/* XPM */
static char * actor_left_rev_xpm[] = {
"64 64 7 1",
" 	c None",
".	c #071821",
"+	c #EBAC3C",
"@	c #FFFFFF",
"#	c #B1822E",
"$	c #3CCCEC",
"%	c #FB7CFC",
"                   ....                  ....                   ",
"                   ....                  ....                   ",
"                   ....                  ....                   ",
"                   ....                  ....                   ",
"           ........++++...            ...++++....               ",
"           ........++++...            ...++++....               ",
"           ........++++...            ...++++....               ",
"           ........++++...            ...++++....               ",
"        ...++++....@@@@+++............+++@@@@++++....           ",
"        ...++++....@@@@+++............+++@@@@++++....           ",
"        ...++++....@@@@+++............+++@@@@++++....           ",
"        ...++++....@@@@+++............+++@@@@++++....           ",
"           ........++++++++++++++++++++++@@@@++++....           ",
"           ........++++++++++++++++++++++@@@@++++....           ",
"           ........++++++++++++++++++++++@@@@++++....           ",
"           ........++++++++++++++++++++++@@@@++++....           ",
"           ....++++++++...+++++++++++++++++++++++....           ",
"           ....++++++++...+++++++++++++++++++++++....           ",
"           ....++++++++...+++++++++++++++++++++++....           ",
"           ....++++++++...+++++++++++++++++++++++....           ",
"    ...........++++++++...+++++++++++++++++++++++.......        ",
"    ...........++++++++...+++++++++++++++++++++++.......        ",
"    ...........++++++++...+++++++++++++++++++++++.......        ",
"    ...........++++++++...+++++++++++++++++++++++.......        ",
"    ....###@@@@@@@@++++++++++++++++++++++++++++++....@@@....    ",
"    ....###@@@@@@@@++++++++++++++++++++++++++++++....@@@....    ",
"    ....###@@@@@@@@++++++++++++++++++++++++++++++....@@@....    ",
"    ....###@@@@@@@@++++++++++++++++++++++++++++++....@@@....    ",
"        ...@@@@@@@@@@@@@@@@@@@+++++++++++++++++++....@@@....    ",
"        ...@@@@@@@@@@@@@@@@@@@+++++++++++++++++++....@@@....    ",
"        ...@@@@@@@@@@@@@@@@@@@+++++++++++++++++++....@@@....    ",
"        ...@@@@@@@@@@@@@@@@@@@+++++++++++++++++++....@@@....    ",
"           ....@@@@@@@@@@@@@@@@@@@+++++++++++........+++....    ",
"           ....@@@@@@@@@@@@@@@@@@@+++++++++++........+++....    ",
"           ....@@@@@@@@@@@@@@@@@@@+++++++++++........+++....    ",
"           ....@@@@@@@@@@@@@@@@@@@+++++++++++........+++....    ",
"               ..................................+++++++....    ",
"               ..................................+++++++....    ",
"               ..................................+++++++....    ",
"               ..................................+++++++....    ",
"               ....@@@@...........$$$$$$$....+++++++++++....    ",
"               ....@@@@...........$$$$$$$....+++++++++++....    ",
"               ....@@@@...........$$$$$$$....+++++++++++....    ",
"               ....@@@@...........$$$$$$$....+++++++++++....    ",
"               ...........@@@@@@@@....@@@....+++++++++++....    ",
"               ...........@@@@@@@@....@@@....+++++++++++....    ",
"               ...........@@@@@@@@....@@@....+++++++++++....    ",
"               ...........@@@@@@@@....@@@....+++++++++++....    ",
"               ....@@@@...@@@@@@@@....@@@....++++++++...        ",
"               ....@@@@...@@@@@@@@....@@@....++++++++...        ",
"               ....@@@@...@@@@@@@@....@@@....++++++++...        ",
"               ....@@@@...@@@@@@@@....@@@....++++++++...        ",
"               ....%%%%..............................           ",
"               ....%%%%..............................           ",
"               ....%%%%..............................           ",
"               ....%%%%..............................           ",
"               ...............@@@@@@@@+++....                   ",
"               ...............@@@@@@@@+++....                   ",
"               ...............@@@@@@@@+++....                   ",
"               ...............@@@@@@@@+++....                   ",
"        ................................................        ",
"        ................................................        ",
"        ................................................        ",
"        ................................................        "};
