/* XPM */
static char * forest_down_xpm[] = {
"64 64 512 2",
"  	c #0C532C",
". 	c #093330",
"+ 	c #121C1F",
"@ 	c #2F8136",
"# 	c #2E7E35",
"$ 	c #151F20",
"% 	c #084133",
"& 	c #0A5B2F",
"* 	c #0B5F2E",
"= 	c #075436",
"- 	c #0E2623",
"; 	c #499231",
"> 	c #23612F",
", 	c #0D3027",
"' 	c #095E31",
") 	c #0B5D2E",
"! 	c #0B5C2F",
"~ 	c #0B5C2E",
"{ 	c #0A5C2F",
"] 	c #0B572E",
"^ 	c #1F4A29",
"/ 	c #0098B2",
"( 	c #FF5442",
"_ 	c #2D7B34",
": 	c #122A23",
"< 	c #0A592F",
"[ 	c #0B5B2E",
"} 	c #0B552D",
"| 	c #0D2326",
"1 	c #26602E",
"2 	c #2B7532",
"3 	c #D9B75C",
"4 	c #2F8036",
"5 	c #489131",
"6 	c #61A0EF",
"7 	c #276730",
"8 	c #084432",
"9 	c #0A612F",
"0 	c #0B552C",
"a 	c #084232",
"b 	c #2B7935",
"c 	c #006B46",
"d 	c #0097B1",
"e 	c #093230",
"f 	c #0B572D",
"g 	c #084D33",
"h 	c #073C36",
"i 	c #064136",
"j 	c #0A2E2C",
"k 	c #276D30",
"l 	c #609EEC",
"m 	c #075435",
"n 	c #095431",
"o 	c #0E2024",
"p 	c #0F1A21",
"q 	c #0B2D2B",
"r 	c #297232",
"s 	c #084A34",
"t 	c #085334",
"u 	c #0C2025",
"v 	c #0D2425",
"w 	c #0E1D23",
"x 	c #225F2D",
"y 	c #468C30",
"z 	c #2E8036",
"A 	c #2B7834",
"B 	c #064438",
"C 	c #074735",
"D 	c #084E33",
"E 	c #085234",
"F 	c #0B402B",
"G 	c #095631",
"H 	c #0A5A2F",
"I 	c #0E2222",
"J 	c #0E1C21",
"K 	c #0B2F2C",
"L 	c #234825",
"M 	c #5F9DEA",
"N 	c #695B95",
"O 	c #083B33",
"P 	c #064437",
"Q 	c #074436",
"R 	c #064637",
"S 	c #064538",
"T 	c #074535",
"U 	c #074536",
"V 	c #0A5630",
"W 	c #094732",
"X 	c #0D2524",
"Y 	c #0D1F23",
"Z 	c #17472D",
"` 	c #CFAF59",
" .	c #499031",
"..	c #171F20",
"+.	c #0A342F",
"@.	c #0E1D22",
"#.	c #093831",
"$.	c #10171F",
"%.	c #0C2529",
"&.	c #0B612E",
"*.	c #064137",
"=.	c #0B5F2D",
"-.	c #0B5E2E",
";.	c #074236",
">.	c #0C2526",
",.	c #0F1820",
"'.	c #2D5478",
").	c #2F7F36",
"!.	c #2B3E29",
"~.	c #0D2426",
"{.	c #11121D",
"].	c #073E35",
"^.	c #0A5430",
"/.	c #064337",
"(.	c #074936",
"_.	c #0D2526",
":.	c #074136",
"<.	c #074836",
"[.	c #093931",
"}.	c #083C33",
"|.	c #09342E",
"1.	c #0F191F",
"2.	c #093A32",
"3.	c #22502D",
"4.	c #226331",
"5.	c #2D7F35",
"6.	c #0B3829",
"7.	c #064036",
"8.	c #074336",
"9.	c #074E36",
"0.	c #074935",
"a.	c #083732",
"b.	c #05483A",
"c.	c #064638",
"d.	c #083A32",
"e.	c #0C2929",
"f.	c #074736",
"g.	c #064237",
"h.	c #216736",
"i.	c #2A7836",
"j.	c #2D7E35",
"k.	c #0F151E",
"l.	c #0B302C",
"m.	c #0B2E2C",
"n.	c #0A5730",
"o.	c #064037",
"p.	c #095531",
"q.	c #093A31",
"r.	c #073A35",
"s.	c #084934",
"t.	c #054739",
"u.	c #0D2226",
"v.	c #0C2828",
"w.	c #0E1E23",
"x.	c #0F141D",
"y.	c #0E1E22",
"z.	c #0A302C",
"A.	c #063F38",
"B.	c #0B5C2D",
"C.	c #095132",
"D.	c #093630",
"E.	c #408230",
"F.	c #297536",
"G.	c #0F1B21",
"H.	c #083B32",
"I.	c #0C2B2A",
"J.	c #085533",
"K.	c #084F33",
"L.	c #0A5B30",
"M.	c #0F1C20",
"N.	c #075636",
"O.	c #074035",
"P.	c #0E1920",
"Q.	c #0D2124",
"R.	c #0A582F",
"S.	c #0A5530",
"T.	c #0B2E2B",
"U.	c #0C2A29",
"V.	c #3A742B",
"W.	c #0D2728",
"X.	c #083831",
"Y.	c #074835",
"Z.	c #095731",
"`.	c #0E1E24",
" +	c #074036",
".+	c #0A5830",
"++	c #095032",
"@+	c #085034",
"#+	c #0D2126",
"$+	c #0E2124",
"%+	c #0A2F2D",
"&+	c #0C2727",
"*+	c #093530",
"=+	c #0C2C2A",
"-+	c #0A312D",
";+	c #2D7433",
">+	c #0E1F24",
",+	c #0F161E",
"'+	c #0B312B",
")+	c #0A352D",
"!+	c #0F1921",
"~+	c #084933",
"{+	c #0A5D30",
"]+	c #074D36",
"^+	c #064038",
"/+	c #0C4D2B",
"(+	c #10151F",
"_+	c #0A332E",
":+	c #064336",
"<+	c #083D34",
"[+	c #0B2C2A",
"}+	c #0D2527",
"|+	c #2E7A34",
"1+	c #2D7A34",
"2+	c #121E20",
"3+	c #074834",
"4+	c #0F2522",
"5+	c #0B372B",
"6+	c #074A35",
"7+	c #0A5831",
"8+	c #095331",
"9+	c #073A34",
"0+	c #0B2B2B",
"a+	c #0A312E",
"b+	c #064238",
"c+	c #0A5E30",
"d+	c #074B35",
"e+	c #0E2125",
"f+	c #0C2627",
"g+	c #121E21",
"h+	c #23602D",
"i+	c #376A31",
"j+	c #293524",
"k+	c #084732",
"l+	c #064938",
"m+	c #073D35",
"n+	c #0C3E2A",
"o+	c #083A33",
"p+	c #083432",
"q+	c #0A5930",
"r+	c #0E1722",
"s+	c #0A632F",
"t+	c #064338",
"u+	c #074A37",
"v+	c #0E1C22",
"w+	c #064639",
"x+	c #064839",
"y+	c #0D2627",
"z+	c #131B20",
"A+	c #306931",
"B+	c #073C34",
"C+	c #0E1F23",
"D+	c #064138",
"E+	c #083D33",
"F+	c #0A622F",
"G+	c #0F141F",
"H+	c #0B292A",
"I+	c #085233",
"J+	c #054639",
"K+	c #0D2225",
"L+	c #0F1F21",
"M+	c #0A5D2F",
"N+	c #084B33",
"O+	c #0F1E22",
"P+	c #202E24",
"Q+	c #2F7A34",
"R+	c #083632",
"S+	c #094C32",
"T+	c #073D36",
"U+	c #074E35",
"V+	c #075137",
"W+	c #0F1821",
"X+	c #084F35",
"Y+	c #0B302D",
"Z+	c #0A322D",
"`+	c #10161E",
" @	c #2C642F",
".@	c #2C7A34",
"+@	c #073E34",
"@@	c #084E34",
"#@	c #095232",
"$@	c #064236",
"%@	c #5E5584",
"&@	c #074635",
"*@	c #073D34",
"=@	c #0E1B22",
"-@	c #0B552E",
";@	c #0B512D",
">@	c #073F35",
",@	c #0B312D",
"'@	c #224E2B",
")@	c #61558A",
"!@	c #0B2D2A",
"~@	c #064739",
"{@	c #054239",
"]@	c #084C34",
"^@	c #0B2B2C",
"/@	c #0A6230",
"(@	c #0B2D2C",
"_@	c #0C2D2A",
":@	c #121D21",
"<@	c #499030",
"[@	c #488F30",
"}@	c #22542A",
"|@	c #093E31",
"1@	c #095432",
"2@	c #093B31",
"3@	c #074636",
"4@	c #084C33",
"5@	c #074B37",
"6@	c #0F2221",
"7@	c #0A5F2F",
"8@	c #0C2428",
"9@	c #44872F",
"0@	c #81A100",
"a@	c #307531",
"b@	c #083E34",
"c@	c #0B332B",
"d@	c #095332",
"e@	c #0C2528",
"f@	c #0A422E",
"g@	c #0A302F",
"h@	c #0C2728",
"i@	c #2C7833",
"j@	c #094831",
"k@	c #0C2729",
"l@	c #095532",
"m@	c #0A602F",
"n@	c #0F1721",
"o@	c #073F34",
"p@	c #073B34",
"q@	c #0F1920",
"r@	c #0F1C22",
"s@	c #43862F",
"t@	c #42852E",
"u@	c #0A332D",
"v@	c #094A32",
"w@	c #084B34",
"x@	c #0D3727",
"y@	c #094931",
"z@	c #083C34",
"A@	c #093932",
"B@	c #0A352F",
"C@	c #0E2225",
"D@	c #489031",
"E@	c #0C2928",
"F@	c #084D34",
"G@	c #0A342E",
"H@	c #093731",
"I@	c #095231",
"J@	c #074C37",
"K@	c #10141D",
"L@	c #0C2B29",
"M@	c #161F20",
"N@	c #172222",
"O@	c #0C2D2B",
"P@	c #074437",
"Q@	c #085133",
"R@	c #0A302D",
"S@	c #09362F",
"T@	c #08869D",
"U@	c #094731",
"V@	c #0A5E2F",
"W@	c #0B2A2B",
"X@	c #10161F",
"Y@	c #10141E",
"Z@	c #04869D",
"`@	c #2F7D35",
" #	c #172021",
".#	c #083832",
"+#	c #10131D",
"@#	c #0D2325",
"##	c #10151E",
"$#	c #122C25",
"%#	c #297032",
"&#	c #2C7332",
"*#	c #11181E",
"=#	c #0C2F28",
"-#	c #095333",
";#	c #073F36",
">#	c #064537",
",#	c #0A322E",
"'#	c #094B32",
")#	c #083932",
"!#	c #0D2727",
"~#	c #184329",
"{#	c #18452A",
"]#	c #20502C",
"^#	c #2C7733",
"/#	c #0C2A2A",
"(#	c #101820",
"_#	c #0B2C2C",
":#	c #0B342B",
"<#	c #162D23",
"[#	c #193725",
"}#	c #1A4628",
"|#	c #1A3225",
"1#	c #2D7C35",
"2#	c #074135",
"3#	c #074B36",
"4#	c #0B5D2F",
"5#	c #095832",
"6#	c #0A392F",
"7#	c #0D1E22",
"8#	c #1C4228",
"9#	c #11171E",
"0#	c #0D2023",
"a#	c #0B2B2A",
"b#	c #093730",
"c#	c #073E36",
"d#	c #0F1D22",
"e#	c #09352F",
"f#	c #083830",
"g#	c #0E2923",
"h#	c #064837",
"i#	c #1F4C2A",
"j#	c #193E28",
"k#	c #0D2125",
"l#	c #2A7032",
"m#	c #30472B",
"n#	c #3B4E29",
"o#	c #2E3D26",
"p#	c #2D4129",
"q#	c #074337",
"r#	c #0B512B",
"s#	c #0B602D",
"t#	c #243C28",
"u#	c #0C2A28",
"v#	c #0C2827",
"w#	c #374828",
"x#	c #1C2622",
"y#	c #1B2723",
"z#	c #2A462A",
"A#	c #2C4A2B",
"B#	c #3A2413",
"C#	c #294229",
"D#	c #2F442A",
"E#	c #384B28",
"F#	c #101E22",
"G#	c #403329",
"H#	c #2F4E2C",
"I#	c #30512D",
"J#	c #2B3022",
"K#	c #322216",
"L#	c #3E271D",
"M#	c #2B2018",
"N#	c #2D4E29",
"O#	c #162221",
"P#	c #383628",
"Q#	c #2B2F21",
"R#	c #3E2613",
"S#	c #62351C",
"T#	c #342215",
"U#	c #171C20",
"V#	c #0F1B22",
"W#	c #2D482B",
"X#	c #322625",
"Y#	c #313729",
"Z#	c #304D2C",
"`#	c #304E2D",
" $	c #31462B",
".$	c #2B2920",
"+$	c #3C2513",
"@$	c #161E21",
"#$	c #1F1C1E",
"$$	c #141E22",
"%$	c #65432D",
"&$	c #1F1B1B",
"*$	c #31221D",
"=$	c #0F1A20",
"-$	c #3D3529",
";$	c #293726",
">$	c #2F2423",
",$	c #2F1F22",
"'$	c #2B1C1D",
")$	c #28201E",
"!$	c #744B30",
"~$	c #61341C",
"{$	c #4D3729",
"]$	c #2F2117",
"^$	c #2D4029",
"/$	c #211E1A",
"($	c #271D18",
"_$	c #1D191E",
":$	c #2B1F1D",
"<$	c #3A4B29",
"[$	c #161F1F",
"}$	c #2C1F17",
"|$	c #192422",
"1$	c #101A20",
"2$	c #3D2613",
"3$	c #332315",
"4$	c #223326",
"5$	c #32452B",
"6$	c #3C3C2B",
"7$	c #48332B",
"8$	c #1E2E24",
"9$	c #35422B",
"0$	c #162524",
"a$	c #243426",
"b$	c #37412B",
"c$	c #111A20",
"d$	c #3D2513",
"e$	c #34442B",
"f$	c #182523",
"g$	c #3C2613",
"h$	c #233527",
"i$	c #182723",
"j$	c #2F3B27",
"k$	c #293D29",
"l$	c #213125",
"m$	c #235A2D",
"  . + @ @ @ @ @ @ @ @ @ @ @ @ @ @ @ @ @ @ @ @ @ @ @ @ @ @ @ @ @ @ @ @ @ @ @ @ @ @ @ @ @ @ @ @ @ @ @ @ @ @ @ @ @ @ @ @ @ @ # $ % ",
"& * = - @ @ @ @ @ @ @ @ @ @ ; ; @ @ @ @ ; ; ; @ @ @ @ @ @ ; @ @ @ @ @ @ @ @ @ @ @ @ @ @ @ @ ; ; @ @ @ @ ; ; ; @ @ @ @ @ > , ' ) ",
"! & ~ { ] ^ @ @ @ @ @ ; / @ @ @ @ @ @ @ @ ; @ @ ( @ @ @ @ ; @ @ @ @ ; ; @ @ @ @ @ @ @ ; / @ @ @ @ @ @ @ @ ; @ @ @ @ _ : < ! ~ ! ",
"! ! ! ! [ } | 1 2 @ @ / 3 / @ @ 4 5 @ @ @ @ ( ( ( @ @ @ ; ; @ @ @ @ 6 @ @ @ @ @ @ @ @ / 3 / @ @ @ ; @ @ @ @ @ @ @ 7 8 9 [ ! ! ! ",
"! ! ! ! ! { & 0 a b @ c d @ @ ; ; ; @ @ @ @ ; ( 3 ( ( @ @ @ @ @ @ 6 3 6 @ @ ; @ @ @ @ c / @ @ ; ; ; @ @ @ @ ; @ e f ! & ! ! ! ! ",
"! ! ! ! ! ~ g h i j k c ; @ @ @ @ ; ; ; @ @ @ ( ( ( @ @ @ ; ; @ @ l 3 6 @ ; ; @ ; ; @ c ; @ @ @ @ ; ; ; @ @ @ m * & ! ! ! ! ! ! ",
"! ! ! ! ! & ~ n o p q r @ @ ; ; @ @ ; @ @ @ @ c ( @ @ @ @ ; ; @ @ c 6 6 @ ; ; @ 6 ; ; @ @ @ ; ; @ @ ; @ @ @ @ s ) & ! ~ ~ ~ ~ ! ",
"! ! ! ! ! ! ! ~ t u v w x y ; @ @ @ @ @ @ @ @ @ @ ; @ @ @ @ @ @ @ c @ @ @ ; ; 6 3 6 ; @ @ ; ; @ @ @ @ z @ @ A B C ~ & D E F G ! ",
"! ! ! & ) & ! & ~ H I J K L @ @ 6 M @ @ ; ; @ @ ; ; @ ; N @ @ @ @ @ @ @ @ @ @ @ 6 c @ @ @ ; @ @ 6 6 @ @ ; ; O P Q R Q S o T ~ ! ",
"! ! ! ~ U V n ~ ~ & 9 W X Y Z 6 ` 6 @ @ 4 ; @ @ ; ; @ N 3 N @ @ @ @ @ @ @ @ @ @ @ @ @ @ @ @ @ 6 3 6 @ @ @  ...o +.@.#.$.%.&.& ! ",
"~ & ! ~ C P *.=.C -.-.;.;.>.,.@.'.; @ @ @ @ @ @ ; @ @ c N @ @ @ @ @ @ ; @ @ @ @ @ @ @ @ @ @ @ 6 6 ; @ @ ).!.~.;.;.{.#.].^.) & & ",
"/.) ! ~ (._.:.Q <.Q U [.;.}.|.1.2.3.4.@ @ @ ( ( @ @ @ @ @ @ @ @ @ @ @ ; N N @ ; ; ; ; @ @ @ @ @ c ; 5.6.@.| 7.8.*.9.0.& & 8.n { ",
"a.) ! ~ ~ *.w b.o c.P d.e.e.,.f.g./.P ;.h.i.( 3 ( @ @ @ @ @ @ @ @ @ @ @ N 3 N ; ; @ @ @ @ @ @ @ @ j.k.l.P m.n.o.p.& & ~ (.) (.q.",
"r.) ! ! ) s.t.u.v.e.w.x.y.z.A.B.V C.g.P P D.E.( ( @ @ ; @ @ @ @ @ @ @ @ N 3 N @ @ @ ; ; ; @ ; @ F.G.H.O I.J.) K.~ ! ! L.M.N.p K ",
"V ~ ! ! & V o.n.g.O./.P.@.Q.p.R.Q S.B T.P U.V.c @ @ @ ; ; @ @ ; ; ; @ @ c N N @ @ @ ; ; @ @ ; ; W.X.$.e.#.Y.~ ~ & ! ! Z.`.$.#. +",
".+< < ! & -.++n.g.U @+#+e.D.$+%+&+*+D.=+-+e.;+@ @ @ @ @ ; @ ; ; ; ; @ ; ; @ @ @ @ @ @ @ @ @ @ >+,+'+)+!+~+) K.& < ~ ~ .+{+]+^+~ ",
"& n.n.~ ) *.n.) C Y.~ /+(+_+:+<+[+@.=+=+=+}+|+@ @ @ ; ; @ @ ; @ @ ; ; ; @ @ @ @ @ 6 6 @ ; ; 1+2+#.3+4+5+6+g.n.C ) V 7+[ ~ V p.~ ",
"8+9+0+<.-.^+a+b+++Q c+d+>+l.e+~.~.f+U.g+h+i+@ @ @ 6 6 ; ; @ @ @ @ ; ; @ ; @ @ @ @ 6 3 6 @ ; j+u.k+~ l+q m+++n+o+p+q+r+s+{ ~ ~ ~ ",
") t+w u+~ Z.v+w+/.P y.x+w._+B y+$._.z+A+@ @ ; ; 6 3 6 @ @ @ @ @ @ @ @ ; ; @ @ @ ; c 6 6 @ p B+B.& n.S w.C+t.o o D+q+v+E+/+! ! ~ ",
"F+G+H+I+.+V J+v.,.K+-+o }+L+M+N+q O+P+A+@ ; @ @ 6 6 c @ @ @ @ @ @ @ @ ; @ 4 @ @ @ @ @ @ Q+H.O.R+S+D+}.e.:.y+T+U+n.V V+W+X+-.& ~ ",
"S @.D+) ~ ~ Y./.Y+=+=+=+<+C -.*.g./.Z+`+ @@ @ @ @ @ @ @ @ @ @ @ @ @ @ @ ; @ @ @ @ @ @ ; @ .@T.p +@d.y+(.Y.g.V & & & ) a.[.Y.~ V ",
"g.p q+& ! ~ ++H B [.H.K @@=.~ K.#@/.P $@m.C+@ @ @ @ ; ; @ @ @ @ @ @ @ @ ; @ ; @ @ @ ; ; @ %@w.~.q o h =.-.++~ ) & ~ &@*@q =@.+-@",
"w.S V ! ! & ) *.8.g./.;./.Y.~ ;@>@l./././.$@,@'@@ @ @ @ @ @ @ @ @ @ @ @ @ @ ; ; ; @ ; ; )@!@=+=+>@K n.~ & & ) &@~ ~ &@.+S w ~@w.",
"{@~ < ! ! ! ~ ]@^@/@;.g o.* ~ d+(@_@D.l.d.q H.:@<@@ @ ; @ @ ; @ @ @ @ @ @ @ @ ; ; @ [@}@D.;.=+|@P 1@* 2@~ ) &@3@*.) ) V 4@>@e.Z+",
"n.& ~ ! ! ! & ~ 5@6@M+~ &@) ~ ~ 7@8@v.=+>@I.=+v.9@@ ; ; @ ; ; @ @ @ @ 0@0@@ @ @ @ a@v.=+b@/./.Y.~ & 7@c@-.&@Y.g.n.& ! ~ ) *./.g.",
"4@C.) & ) & ! ~ d@e@f@/.{ .+H ~ #@g@w.K I.h@y.e+# N N @ @ ; @ @ @ @ @ 0@3 0@@ i@y.v.P b+g 8+#@-.-./.R U.j@>@k@l@~ ! ! ~ #@o.8.g.",
"*.-.U -.U ) ! & m@n@o@<+p@.+o.) & n.S q@q q r@s@; N 3 N @ @ @ @ @ @ @ c 0@0@t@u@/./.*.) & & & V n.B+>@U.:.@.b+n.V ! ! & & n.g.g.",
"v@w@*.4@o.=.) q+x@y@d.e.>@z@].4@D+g A@B@C+e+C@D@; c N N @ @ ; @ @ @ @ @ @ $+E@#.O./.P *.R+F@^+g b+G@B@=+=+C+H@I@~ ! ! ~ D < B :.",
"b@;.;./.8.Y.&@) J@K@H.I.L@>@U.S K P ;./._+M@A+@ ; @ @ @ @ @ ; @ @ ; ; @ @ N@v.=+b@b@U.B K o@<+<+o@I.O@O@T.C+b+) ! ! ~ & -.D+w.T.",
"e._+}+:.>@<+<+P@Q@R@y+q q I.=+d.Z+T.=+/./.S@T@@ @ @ @ ; ; @ ; @ @ ; ; @ 4 q@o l.T.=+=+B@=+I.O._+I.q O@=+T.,.U@~ ! ! ) *.V@W@q@;.",
"O.I.m.X@Y@H.#.[.d.y+v.q O@=+=+=+=+v.W.=+I.=+Z@@ @ @ @ ; @ @ @ @ @ @ @ @ @ `@ #v.W.W.v.q =+q =+q O@O@q Z+Z+v..#) ~ & ) *.S +#H.<+",
";.U.=+T.m.e+o y+h@p O =+O@L@w.K | @#G.w.##$#%#@ @ @ @ @ @ @ @ @ @ @ @ @ @ @ @ &#*#f+l.$+q q q O@O@=+I.}.b@y++@=##@&@-#(@K _.b@;#",
"8.o@q =+=+=+o@P >#/./.I.q =+K X@$.U.##S S v.,.@ @ @ @ @ @ # $ %   . + @ @ @ @ @ @ $.##T.=+W.v.O@=+,#-+S Y+E@+#~@:.g.S Y@e.-+g.< ",
"L.;#c.T.l.Y+P Q ~ '#)#!#U.q I.=+=+=+q o +@P b@-++.~## @ {#, ' ) & * = - ]#@ @ @ ^#v.+.U.C+!#q /#k@S /.].=+=+(#;.+#~@| k@_#9+n.S.",
":#o@q@q I.O.<+Y.&@-.s.P $+o P ;.S ,@P P K /.P =+G.<#[#}#< ! ~ ! ! & ~ { ] |#@ 1#y+;.;.2#-+G.q 3#* &@&@.+g.o@q ,@Z+P b+.+n.~ ~ 4#",
"5#k@Y+,.=+_+O.6#Q @@) ;#K G.}.I.O.S P D.>@!#-+D.7#8#8 9 [ ! ! ! ! ! ! ! [ } | 1 9#0#o@a#a#<+/.D b#P /.].O.,#=+=+:.-+b@Q ) D ~ ~ ",
") c#G.q q q =+-+/.K g.8./.W.y+=++@m.:.>@I.q d#Y@e f ! & ! ! ! ! ! ! ! ! ! { & 0 a e#f#q@_@P ;./.K >@b@U.U.q O@q =+=++@Y.C Y.~ & ",
"d+,#Z+q@T.C@o K q -+b#S E+e#X@T.=+=+I.B@f+f+g#m * & ! ! ! ! ! ! ! ! ! ! ! ~ g h i j v+,@/.,@O.Z+=+G@=+q ,.T.O@O@O@Z+#.D./.Y.K.n.",
" +O.G.w T.$.e.I.q -+-+Y+K o@p T.q =+T.G.L@| h#s ) & ! ~ ~ ~ ~ ! ! ! ! ! ! & ~ n o p q G.=+=+I.v.v.v.y+v.v.=+=+q I.O@I././.:.*..+",
"m.S@e.}+K E@r@G.q T.=+T.q e.+#d.U.[+e+w i#j#k#B C ~ & D E F G ! ! ! ! ! ! ! ! ~ t u v w @.o q p L@p C@w.I.=+[.=+!#$+T.,@#.l.g.s ",
"/.!#v.$+c.q K $.v.q@T.##!#v.)#/.S v.l#m#n#o#O P Q R Q S o T ~ ! ! ! ! & ) & ! & ~ H I J K p G.I.$.K q q =+-+S I.T.r@q@T.=+_+:./.",
"b@=+p Z+/.+@=+T.v.,.>+p v.p !#D./.<+M@m#m#n#..o +.@.#.$.%.&.& ! ! ! ! ~ U V n ~ ~ & 9 W X Y I.q q =+O@=+=+l.P <+l.=+q@K C+P I.S ",
"E+U.q@~@;./.Y+q =+q l.q =+T.I.S g./.l+:@p#!.~.;.;.{.#.].^.) & & ~ & ! ~ C P *.=.C -.-.;.;.>.,.@.=+q q Z+,#S /.;.S I.r@v.X@O@U.>@",
"T.X@K+B q#:.E+U.q =+;.T.b@Y+<+/.8+8.) 6.@.| 7.8.*.9.0.& & 8.n { /.) ! ~ (._.:.Q <.Q U [.;.}.|.1.2.K K +@/.>@O.b@Z+=+K q@e.p v.,#",
"y+@.T.P g.U g.>@=+q I.=+E+K /.O.^+r#k.l.P m.n.o.p.& & ~ (.) (.q.a.) ! ~ ~ *.w b.o c.P d.e.e.,.f.g./.P ;.;.>@U.<+=+O@=+T.q T.r@y+",
"y+=+o@g.o.-.n.7.T.T.=+q =+q :.I.:.G.H.O I.J.) K.~ ! ! L.M.N.p K r.) ! ! ) s.t.u.v.e.w.x.y.z.A.B.V C.g.P P D._+=+q q q T.}.T.-+y+",
"L@:.+@Y.]@s s g.~@q@=+=+q G.I.q W.X.$.e.#.Y.~ ~ & ! ! Z.`.$.#. +V ~ ! ! & V o.n.g.O./.P.@.Q.p.R.Q S.B T.P U.q@!@=+v.h@=++@:.G@=+",
"[././.Y.D D s#m+-+b#v.&+p U.U.>+,+'+)+!+~+) K.& < ~ ~ .+{+]+^+~ .+< < ! & -.++n.g.U @+#+e.D.$+%+&+*+D.=+-+e.t#G.u#p v#T.Z+Y+P d.",
"H.;.o@g./.>@*.o@q =+p y+w#x#y#2+#.3+4+5+6+g.n.C ) V 7+[ ~ V p.~ & n.n.~ ) *.n.) C Y.~ /+(+_+:+<+[+@.=+=+=+}+z#A#9#B#y+q@q =+}.U.",
"=+-+U.c.S@Y++.S O.I.r@C#D#E#j+u.k+~ l+q m+++n+o+p+q+r+s+{ ~ ~ ~ 8+9+0+<.-.^+a+b+++Q c+d+>+l.e+~.~.f+U.g+F#G#H#I#J#K#L#M#e.T.=+T.",
"=+=+=+K ,@,@,@l.>@}.$.N#O#p B+B.& n.S w.C+t.o o D+q+v+E+/+! ! ~ ) t+w u+~ Z.v+w+/.P y.x+w._+B y+$._.z+m#m#P#I#I#Q#R#S#T#U.,.T.,.",
"U#U.!+q T.=+T.q E+l.V#W#X#H.O.R+S+D+}.e.:.y+T+U+n.V V+W+X+-.& ~ F+G+H+I+.+V J+v.,.K+-+o }+L+M+N+q O+P+m#Y#Z#`# $.$R#S#+$@$#$$$%$",
"S#&$*$L@=$I.@.U.L@e.r@-$m#r@T.p +@d.y+(.Y.g.V & & & ) a.[.Y.~ V S @.D+) ~ ~ Y./.Y+=+=+=+<+C -.*.g./.Z+`+;$>$,$'$'$R#S#R#R#)$!$~$",
"S#R#S#{$,.]$d#,.r@,.,.n#m#^$w.~.q o h =.-.++~ ) & ~ &@*@q =@.+-@g.p q+& ! ~ ++H B [.H.K @@=.~ K.#@/.P $@m.C+/$($_$R#S#R#R#S#!$S#",
"S#R#R#!$S#R#S#S#S#'$:$<$[$!@=+=+>@K n.~ & & ) &@~ ~ &@.+S w ~@w.w.S V ! ! & ) *.8.g./.;./.Y.~ ;@>@l./././.$@,@[+V#R#S#R#R#S#!$S#",
"S#R#R#S#S#R#S#S#S#R#}$|$D.;.=+|@P 1@* 2@~ ) &@3@*.) ) V 4@>@e.Z+{@~ < ! ! ! ~ ]@^@/@;.g o.* ~ d+(@_@D.l.d.q H.:@R#~$R#R#R#S#!$S#",
"R#R#R#S#S#'$R#S#R#T#v.=+b@/./.Y.~ & 7@c@-.&@Y.g.n.& ! ~ ) *./.g.n.& ~ ! ! ! & ~ 5@6@M+~ &@) ~ ~ 7@8@v.=+>@I.=+v.$.R#'$R#R#S#!$S#",
"R#R#R#R#S#S#'$##y.v.P b+g 8+#@-.-./.R U.j@>@k@l@~ ! ! ~ #@o.8.g.4@C.) & ) & ! ~ d@e@f@/.{ .+H ~ #@g@w.K I.h@y.e+q@(#(#R#R#S#S#S#",
"R#1$(#R#2$3$$.u@/./.*.) & & & V n.B+>@U.:.@.b+n.V ! ! & & n.g.g.*.-.U -.U ) ! & m@n@o@<+p@.+o.) & n.S q@q q r@4$5$6$7$(#R#S#S#R#",
"8$m#9$0$K+$+E@#.O./.P *.R+F@^+g b+G@B@=+=+C+H@I@~ ! ! ~ D < B :.v@w@*.4@o.=.) q+x@y@d.e.>@z@].4@D+g A@B@C+e+C@a$m#m#b$c$R#S#R#d$",
"m#m#m#m#9$N@v.=+b@b@U.B K o@<+<+o@I.O@O@T.C+b+) ! ! ~ & -.D+w.T.b@;.;./.8.Y.&@) J@K@H.I.L@>@U.S K P ;./._+M@m#m#m#m#m#e$f$R#g$h$",
"m#m#m#m#m#q@o l.T.=+=+B@=+I.O._+I.q O@=+T.,.U@~ ! ! ) *.V@W@q@;.e._+}+:.>@<+<+P@Q@R@y+q q I.=+d.Z+T.=+/./.S@i$m#m#m#m#m#m#j$k$m#",
"m#m#@ @ m#m# #v.W.W.v.q =+q =+q O@O@q Z+Z+v..#) ~ & ) *.S +#H.<+O.I.m.X@Y@H.#.[.d.y+v.q O@=+=+=+=+v.W.=+I.=+V#@ @ m#m#m#m#m#m#m#",
"@ @ @ @ @ @ @ l$*#f+l.$+q q q O@O@=+I.}.b@y++@=##@&@-#(@K _.b@;#;.U.=+T.m.e+o y+h@p O =+O@L@w.K | @#G.w.##$#m$@ m#m#m#m#m#m#@ @ "};
