/* XPM */
static char * wall_xpm[] = {
"64 64 571 2",
"  	c #2F8136",
". 	c #11101D",
"+ 	c #084133",
"@ 	c #0C532C",
"# 	c #093230",
"$ 	c #10131D",
"% 	c #499231",
"& 	c #0D2025",
"* 	c #0D3027",
"= 	c #095E31",
"- 	c #0B5D2E",
"; 	c #0A5B2F",
"> 	c #0B5F2E",
", 	c #075436",
"' 	c #0E2623",
") 	c #0098B2",
"! 	c #FF5442",
"~ 	c #10151E",
"{ 	c #0F2122",
"] 	c #0A592F",
"^ 	c #0B5C2F",
"/ 	c #0B5C2E",
"( 	c #0A5C2F",
"_ 	c #0B572E",
": 	c #100C1D",
"< 	c #D9B75C",
"[ 	c #084432",
"} 	c #0A612F",
"| 	c #0B5B2E",
"1 	c #0B552D",
"2 	c #0D2326",
"3 	c #006B46",
"4 	c #10141E",
"5 	c #093331",
"6 	c #0B572D",
"7 	c #0B552C",
"8 	c #084232",
"9 	c #09352F",
"0 	c #0C2627",
"a 	c #0E2923",
"b 	c #075536",
"c 	c #084D33",
"d 	c #073C36",
"e 	c #074136",
"f 	c #0B2E2C",
"g 	c #61A0EF",
"h 	c #064838",
"i 	c #084A34",
"j 	c #095431",
"k 	c #0E2024",
"l 	c #0D2125",
"m 	c #064438",
"n 	c #074735",
"o 	c #084E33",
"p 	c #085234",
"q 	c #0B402B",
"r 	c #095631",
"s 	c #085435",
"t 	c #0D1F25",
"u 	c #083B33",
"v 	c #064437",
"w 	c #074436",
"x 	c #064637",
"y 	c #064538",
"z 	c #074535",
"A 	c #0A5A2F",
"B 	c #0F2222",
"C 	c #0A342F",
"D 	c #0E1D22",
"E 	c #093831",
"F 	c #10171F",
"G 	c #0C2529",
"H 	c #0B612E",
"I 	c #074536",
"J 	c #0A5630",
"K 	c #094732",
"L 	c #101D1F",
"M 	c #0D2426",
"N 	c #074236",
"O 	c #11121D",
"P 	c #073E35",
"Q 	c #0A5430",
"R 	c #064137",
"S 	c #0B5F2D",
"T 	c #0B5E2E",
"U 	c #074337",
"V 	c #0D2526",
"W 	c #10161F",
"X 	c #0F1820",
"Y 	c #695B95",
"Z 	c #0F1D22",
"` 	c #074336",
" .	c #074E36",
"..	c #074935",
"+.	c #064337",
"@.	c #074936",
"#.	c #074836",
"$.	c #093931",
"%.	c #083C33",
"&.	c #0A342E",
"*.	c #10161E",
"=.	c #0B302C",
"-.	c #0A5730",
";.	c #064037",
">.	c #095531",
",.	c #093A31",
"'.	c #083732",
").	c #0E1D23",
"!.	c #05483A",
"~.	c #064638",
"{.	c #083A32",
"].	c #0C2929",
"^.	c #0F1B21",
"/.	c #0C2B2A",
"(.	c #085533",
"_.	c #084F33",
":.	c #0A5B30",
"<.	c #0F1C20",
"[.	c #075636",
"}.	c #0F1A21",
"|.	c #0B2F2C",
"1.	c #073A35",
"2.	c #084934",
"3.	c #054739",
"4.	c #0D2226",
"5.	c #0C2828",
"6.	c #0E1E23",
"7.	c #10141D",
"8.	c #074835",
"9.	c #095731",
"0.	c #0E1E24",
"a.	c #074036",
"b.	c #064237",
"c.	c #074035",
"d.	c #0F1920",
"e.	c #0F1C22",
"f.	c #0B312B",
"g.	c #0A362E",
"h.	c #0F1921",
"i.	c #084933",
"j.	c #0A5830",
"k.	c #0A5D30",
"l.	c #074D36",
"m.	c #064038",
"n.	c #095032",
"o.	c #085034",
"p.	c #0D2126",
"q.	c #093630",
"r.	c #0E2124",
"s.	c #0F2522",
"t.	c #0B372B",
"u.	c #074A35",
"v.	c #0A5831",
"w.	c #0C4D2B",
"x.	c #10151F",
"y.	c #0A332E",
"z.	c #083D34",
"A.	c #0B2D2B",
"B.	c #084833",
"C.	c #064938",
"D.	c #073D35",
"E.	c #0C3E2A",
"F.	c #083A33",
"G.	c #083432",
"H.	c #0A5930",
"I.	c #0E1722",
"J.	c #0A632F",
"K.	c #095331",
"L.	c #073A34",
"M.	c #0B2B2B",
"N.	c #0A312E",
"O.	c #064238",
"P.	c #0A5E30",
"Q.	c #074B35",
"R.	c #0E1F24",
"S.	c #0E2125",
"T.	c #156C99",
"U.	c #073C34",
"V.	c #0E1F23",
"W.	c #064138",
"X.	c #0E1C22",
"Y.	c #083D33",
"Z.	c #064338",
"`.	c #074A37",
" +	c #064639",
".+	c #0E1E22",
"++	c #064839",
"@+	c #0D2627",
"#+	c #083B32",
"$+	c #083632",
"%+	c #094C32",
"&+	c #073D36",
"*+	c #074E35",
"=+	c #075137",
"-+	c #0F1821",
";+	c #084F35",
">+	c #0A622F",
",+	c #0F141F",
"'+	c #0B292A",
")+	c #085233",
"!+	c #054639",
"~+	c #0D2225",
"{+	c #0A312D",
"]+	c #0D2527",
"^+	c #0F1F21",
"/+	c #0A5D2F",
"(+	c #084B33",
"_+	c #073E34",
":+	c #0B302D",
"<+	c #0C2C2A",
"[+	c #0A322D",
"}+	c #074635",
"|+	c #073D34",
"1+	c #0E1B22",
"2+	c #0B552E",
"3+	c #084E34",
"4+	c #095232",
"5+	c #0B2E2B",
"6+	c #073F35",
"7+	c #064739",
"8+	c #0B512D",
"9+	c #0B312D",
"0+	c #0F1B22",
"a+	c #093E31",
"b+	c #095432",
"c+	c #093B31",
"d+	c #074636",
"e+	c #084C33",
"f+	c #054239",
"g+	c #084C34",
"h+	c #0B2B2C",
"i+	c #0A6230",
"j+	c #0B2D2C",
"k+	c #0C2D2A",
"l+	c #81A100",
"m+	c #083E34",
"n+	c #0A5F2F",
"o+	c #0B332B",
"p+	c #074B37",
"q+	c #0F2221",
"r+	c #0C2428",
"s+	c #0C2A29",
"t+	c #094831",
"u+	c #0C2729",
"v+	c #095532",
"w+	c #095132",
"x+	c #095332",
"y+	c #0C2528",
"z+	c #0A422E",
"A+	c #0A302F",
"B+	c #0C2728",
"C+	c #0A602F",
"D+	c #0F1721",
"E+	c #073F34",
"F+	c #073B34",
"G+	c #084D34",
"H+	c #0A352F",
"I+	c #093731",
"J+	c #095231",
"K+	c #094A32",
"L+	c #084B34",
"M+	c #0D3727",
"N+	c #094931",
"O+	c #083C34",
"P+	c #093932",
"Q+	c #0E2225",
"R+	c #0C2D2B",
"S+	c #074C37",
"T+	c #0C2B29",
"U+	c #094731",
"V+	c #0A5E2F",
"W+	c #0B2A2B",
"X+	c #074437",
"Y+	c #085133",
"Z+	c #0A302D",
"`+	c #09362F",
" @	c #0D2728",
".@	c #083832",
"+@	c #0C2F28",
"@@	c #095333",
"#@	c #073F36",
"$@	c #0D2325",
"%@	c #0A322E",
"&@	c #0C2928",
"*@	c #064537",
"=@	c #0D2727",
"-@	c #0C2A2A",
";@	c #101820",
">@	c #0B2C2C",
",@	c #0A5530",
"'@	c #094B32",
")@	c #083932",
"!@	c #074135",
"~@	c #074B36",
"{@	c #0B5D2F",
"]@	c #0B342B",
"^@	c #0B2B2A",
"/@	c #093730",
"(@	c #095832",
"_@	c #0A392F",
":@	c #073E36",
"<@	c #0B2D2A",
"[@	c #0E2325",
"}@	c #0F2123",
"|@	c #102C31",
"1@	c #323527",
"2@	c #384D28",
"3@	c #364227",
"4@	c #323827",
"5@	c #323227",
"6@	c #343726",
"7@	c #353D27",
"8@	c #14171F",
"9@	c #314229",
"0@	c #363F27",
"a@	c #343426",
"b@	c #322325",
"c@	c #131A20",
"d@	c #181820",
"e@	c #15171F",
"f@	c #111B20",
"g@	c #2C2B24",
"h@	c #323327",
"i@	c #323127",
"j@	c #272A24",
"k@	c #332A25",
"l@	c #121F20",
"m@	c #201A21",
"n@	c #093A32",
"o@	c #095031",
"p@	c #182020",
"q@	c #632828",
"r@	c #5D2727",
"s@	c #343126",
"t@	c #323427",
"u@	c #232A23",
"v@	c #074736",
"w@	c #353826",
"x@	c #122522",
"y@	c #063F38",
"z@	c #064036",
"A@	c #322B26",
"B@	c #302824",
"C@	c #0B5631",
"D@	c #0A582F",
"E@	c #131D20",
"F@	c #322D26",
"G@	c #323727",
"H@	c #322A26",
"I@	c #12191F",
"J@	c #0D332B",
"K@	c #0B3E32",
"L@	c #0C4334",
"M@	c #094537",
"N@	c #1F2122",
"O@	c #0F1C21",
"P@	c #0C2A28",
"Q@	c #0C2827",
"R@	c #0B602D",
"S@	c #0C2727",
"T@	c #132323",
"U@	c #262222",
"V@	c #283225",
"W@	c #323C28",
"X@	c #323627",
"Y@	c #353C27",
"Z@	c #323928",
"`@	c #353042",
" #	c #36354A",
".#	c #112522",
"+#	c #133429",
"@#	c #0D4837",
"##	c #293124",
"$#	c #2A2E25",
"%#	c #11161E",
"&#	c #3A2413",
"*#	c #0E2827",
"=#	c #2E2724",
"-#	c #161A20",
";#	c #181920",
">#	c #111C22",
",#	c #30353D",
"'#	c #1B2421",
")#	c #152220",
"!#	c #181C20",
"~#	c #182923",
"{#	c #313F28",
"]#	c #323E28",
"^#	c #322F26",
"/#	c #323A28",
"(#	c #353A26",
"_#	c #383C57",
":#	c #4E3C2B",
"<#	c #1A2A3F",
"[#	c #0A3830",
"}#	c #111A21",
"|#	c #101E22",
"1#	c #40352A",
"2#	c #303226",
"3#	c #2B281F",
"4#	c #363340",
"5#	c #3E271D",
"6#	c #2B2018",
"7#	c #2D3249",
"8#	c #2F3B27",
"9#	c #332F26",
"0#	c #312B32",
"a#	c #2F2D34",
"b#	c #4E412B",
"c#	c #2D4855",
"d#	c #2F3547",
"e#	c #283626",
"f#	c #314329",
"g#	c #323D28",
"h#	c #393E5A",
"i#	c #3A415F",
"j#	c #364427",
"k#	c #2F312A",
"l#	c #363348",
"m#	c #0D2425",
"n#	c #12181F",
"o#	c #322E26",
"p#	c #3A2D27",
"q#	c #343526",
"r#	c #35405E",
"s#	c #57411F",
"t#	c #623725",
"u#	c #342215",
"v#	c #343E5A",
"w#	c #314029",
"x#	c #2F414C",
"y#	c #303A44",
"z#	c #303141",
"A#	c #374828",
"B#	c #364327",
"C#	c #3C4869",
"D#	c #725D36",
"E#	c #3C496B",
"F#	c #322C26",
"G#	c #2C1F23",
"H#	c #292128",
"I#	c #292624",
"J#	c #354326",
"K#	c #324229",
"L#	c #394A6E",
"M#	c #3E2719",
"N#	c #62351C",
"O#	c #3C2513",
"P#	c #161E21",
"Q#	c #1F1C1E",
"R#	c #141E22",
"S#	c #65432D",
"T#	c #171C20",
"U#	c #2D4028",
"V#	c #454B2E",
"W#	c #323026",
"X#	c #30303F",
"Y#	c #314129",
"Z#	c #364127",
"`#	c #393F5B",
" $	c #383B55",
".$	c #171B21",
"+$	c #322826",
"@$	c #312E25",
"#$	c #303626",
"$$	c #2F3625",
"%$	c #2F3825",
"&$	c #2C3822",
"*$	c #2B291F",
"=$	c #3E2813",
"-$	c #3E2613",
";$	c #28201E",
">$	c #744B30",
",$	c #61341C",
"'$	c #1F1B1B",
")$	c #31221D",
"!$	c #0F1A20",
"~$	c #0F1E22",
"{$	c #3E4129",
"]$	c #323B28",
"^$	c #353E27",
"/$	c #3E2F46",
"($	c #132822",
"_$	c #112021",
":$	c #3E2713",
"<$	c #3E2D15",
"[$	c #2B231E",
"}$	c #4D3729",
"|$	c #2F2117",
"1$	c #353926",
"2$	c #353B26",
"3$	c #3F3047",
"4$	c #665232",
"5$	c #342425",
"6$	c #121920",
"7$	c #2B1C1D",
"8$	c #333026",
"9$	c #373952",
"0$	c #53412D",
"a$	c #3C2D41",
"b$	c #302C29",
"c$	c #3B3429",
"d$	c #2B1D1D",
"e$	c #2D2D21",
"f$	c #323F28",
"g$	c #383D58",
"h$	c #2B2F20",
"i$	c #152722",
"j$	c #314629",
"k$	c #344228",
"l$	c #374527",
"m$	c #343326",
"n$	c #343727",
"o$	c #322926",
"p$	c #2C2D20",
"q$	c #3D3217",
"r$	c #122321",
"s$	c #101B20",
"t$	c #423C2B",
"u$	c #383B29",
"v$	c #374727",
"w$	c #2F3225",
"x$	c #203224",
"y$	c #182521",
"z$	c #273C24",
"A$	c #352A25",
"B$	c #3F382A",
"C$	c #48332B",
"D$	c #483A2B",
"E$	c #3D3629",
"F$	c #374627",
"G$	c #333E28",
"H$	c #3A3128",
"I$	c #3D2513",
"J$	c #1B2021",
"K$	c #383528",
"L$	c #172222",
"M$	c #3D2F16",
"N$	c #3E2B14",
"O$	c #2B251E",
"P$	c #31472A",
"Q$	c #343626",
"R$	c #372F27",
"S$	c #161921",
"T$	c #3D2613",
"U$	c #212623",
"V$	c #364027",
"W$	c #383829",
"X$	c #1C3725",
"Y$	c #173824",
"Z$	c #1B3124",
"`$	c #30343C",
" %	c #31292F",
".%	c #374928",
"+%	c #314429",
"@%	c #314A2A",
"#%	c #2F3023",
"$%	c #2C3D25",
"%%	c #374827",
"&%	c #3B4F29",
"*%	c #2F3F49",
"=%	c #5A472F",
"-%	c #137043",
";%	c #384E28",
">%	c #31492A",
",%	c #31462A",
"'%	c #395128",
")%	c #314C2B",
"!%	c #314F2B",
"~%	c #31502B",
"{%	c #314529",
"                                                            . + @ # $                                                           ",
"                            % %         % % %           & * = - ; > , '                     % %         % % %             %     ",
"    % %               % )                 %     !   ~ { ] ^ / ^ ^ ; / ( _ :           % )                 %               %     ",
"                      ) < )       %         ! ! !   [ } | ^ ^ ^ ^ ^ ^ ^ | 1 2         ) < )       %                     % %     ",
"            %         3 )     % % %         % 4 5 6 ^ ; ^ ^ ^ ^ ^ ^ ^ ^ ^ ( ; 7 8 9   3 )     % % %         %                   ",
"          % %   % %   3 %         % % %   0 a b > ; ^ ^ ^ ^ ^ ^ ^ ^ ^ ^ ^ / c d e f   3 %         % % %                   % %   ",
"          % %   g % %       % %     %     2 h i - ; ^ / / / / ^ ^ ^ ^ ^ ^ ; / j k % %       % %     %                     % %   ",
"          % % g < g %     % %               l m n / ; o p q r ^ ^ ^ ^ ^ ^ ^ ^ / s t %     % %                     %             ",
"                g 3       %     g g     % % u v w x w y k z / ^ ^ ^ ^ ; - ; ^ ; / A B ~   %     g g     % %     % %   %         ",
"                              g < g       % $ k C D E F G H ; ^ ^ ^ ^ / I J j / / ; } K L     g < g       %     % %             ",
"      %                       g g %         M N N O E P Q - ; ; / ; ^ / n v R S n T T U N V W X g %             %               ",
"      % Y Y   % % % %           3 %     Z 2 R ` R  ...; ; ` j ( +.- ^ / @.V e w #.w I $.N %.&.*.3 %         ! !                 ",
"        Y < Y % %                   4 =.v f -.;.>.; ; / @.- @.,.'.- ^ / / R ).!.k ~.v {.].].X               ! < !               ",
"        Y < Y       % % %   %     ^.%.u /.(.- _./ ^ ^ :.<.[.}.|.1.- ^ ^ - 2.3.4.5.].6.7.~   %               % ! !     %         ",
"% %     3 Y Y       % %     % %     F ].E 8./ / ; ^ ^ 9.0.F E a.J / ^ ^ ; J ;.-.b.c.+.d.e.F % %     %       % 3       % %     % ",
"% %   % %                     % ) f.g.h.i.- _.; ] / / j.k.l.m./ j.] ] ^ ; T n.-.b.I o.p.].q.r.% ) % %                   %   % % ",
"  % % %           g g   % %   ) E ..s.t.u.b.-.n - J v.| / J >./ ; -.-./ - R -.- n 8./ w.x.y.v z.A.W %               % %     %   ",
"  % %   %         g < g   % ) 4.B./ C.A.D.n.E.F.G.H.I.J.( / / / K.L.M.#.T m.N.O.n.w P.Q.R.=.S.M M ) T.            g g % %       ",
"      % %       % 3 g g X }.U.- ; -.y 6.V.3.k k W.H.X.Y.w.^ ^ / - Z.).`./ 9.X. ++.v .+++6.y.m @+F T.        % % g < g           ",
"      %                   #+c.$+%+W.%.].e @+&+*+-.J =+-+;+T ; / >+,+'+)+j.J !+5.X ~+{+k ]+^+/+(+f Z       %     g g 3           ",
"        %             %   e.|.}._+{.@+@.8.b.J ; ; ; - '.$.8./ J y D W.- / / 8.+.:+<+<+<+z.n T R b.+.[+*.                        ",
"        %   %       % %   Y 6.M A.k d S T n./ - ; / }+|+A.1+j.2+b.}.H.; ^ / n.A m $.#+|.3+S / _.4++.v +.f V.d.  F   % %         ",
"            % % %   % % *.5+<+<+6+|.-./ ; ; - }+/ / }+j.y ).7+6.6.y J ^ ^ ; - R ` b.+.N +.8./ 8+6+=.+.+.+.+.9+A.0+              ",
"              % %   % D q.N <+a+v b+> c+/ - }+d+R - - J e+6+].[+f+/ ] ^ ^ ^ / g+h+i+N c ;.> / Q.j+k+q.=.{.A.#+).%     %     %   ",
"      l+l+          5.<+m++.+.8./ ; n+o+T }+8.b.-.; ^ / - R +.b.-.; / ^ ^ ^ ; / p+q+/+/ }+- / / n+r+5.<+6+/.<+5.F   % %   % %   ",
"      l+< l+  4 V.5.y O.c K.4+T T +.x s+t+6+u+v+/ ^ ^ / 4+;.` b.e+w+- ; - ; ^ / x+y+z++.( j.A / 4+A+6.|./.B+6.S.^.Y Y     %     ",
"      3 l+l+F y.+.+.R - ; ; ; J -.U.6+s+e D O.-.J ^ ^ ; ; -.b.b.R T I T I - ^ ; C+D+E+z.F+j.;.- ; -.y d.A.A.e.% % Y < Y         ",
"          r.s+E c.+.v R $+G+m.c O.&.H+<+<+V.I+J+/ ^ ^ / o ] m e K+L+R e+;.S - H.M+N+{.].6+O+P e+W.c P+H+V.S.Q+% % 3 Y Y     %   ",
"  % %     % 5.<+m+m+s+m |.E+z.z.E+/.R+R+5+V.O.- ^ ^ / ; T W.6.5+m+N N +.` 8.}+- S+7.#+/.T+6+s+y |.v N +.y.W     %           %   ",
"  % %     d.k =.5+<+<+H+<+/.c.y./.A.R+<+5+X U+/ ^ ^ - R V+W+d.N ].y.]+e 6+z.z.X+Y+Z+@+A.A./.<+{.[+5+<++.+.`+}.        % %   %   ",
"            W 5. @ @5.A.<+A.<+A.R+R+A.[+[+5..@- / ; - R y $ #+z.c./.f W 4 #+E $.{.@+5.A.R+<+<+<+<+5. @<+/.<+0+        %         ",
"                *.B+=.r.A.A.A.R+R+<+/.%.m+@+_++@4+}+@@j+|.V m+#@N s+<+5+f S.k @+B+}.u <+R+T+6.|.2 $@^.6.~ V.                    ",
"                  F ~ 5+<+ @5.R+<+%@{+y :+&@$ 7+e b.y 4 ].{+b.] ` E+A.<+<+<+E+v *@+.+./.A.<+|.W F s+~ y y 5.X                   ",
"                  5.C s+V.=@A.-@u+y +.P <+<+;@N $ 7+2 u+>@L.-.,@:.#@~.5+=.:+v w / '@)@=@s+A./.<+<+<+A.k _+v m+{+C Q+      %     ",
"    % %         @+N N !@{+^.A.~@> }+}+j.b.E+A.9+[+v O.j.-./ / {@]@E+d.A./.c.z.8.}+T 2.v r.k v N y 9+v v |.+.v <+^.F       %     ",
"    g           $ =@N ^@^@z.+.o /@v +.P c.%@<+<+e {+m+w - o / / (@u+:+X <+y.c._@w 3+- #@|.^.%./.c.y v q.6+=@{+q.~+      % %     ",
"  g < g     % e.!@+.N d.k+v N +.|.6+m+s+s+A.R+A.<+<+_+8.n 8./ ; - :@^.A.A.A.<+{++.|.b.` +. @@+<+_+f e 6+/.A.Z W < ! !           ",
"  g < g   d.Q+6++.u 6.9++.9+c.[+<+&.<+A.X 5+R+R+R+[+E q.+.8._.-.Q.%@[+d.5+Q+k |.A.{+/@y Y.9 W 5+<+<+/.H+A.6.k F ! !       % %   ",
"  3 g g X 5+z.%.c.}.A.^.<+<+/.5.5.5.@+5.5.<+<+A./.R+/.+.+.e R j.a.c.^.).5+F ]./.A.{+{+:+|.E+}.5+A.<+5+^.<+W   3 !         % %   ",
"  3 M =@5+<+<+|.q.%@V ).D k A.}.T+}.Q+6./.<+$.<+=@r.5+9+E =.b.i f `+].]+|.&@e.^.A.5+<+5+A.].$ {.s+<@[@}@          %             ",
"    ~ 5.5.<+<+<+<+A./.5+|.}.^./.F |.A.A.<+{+y /.5+e.d.5+<+y.e +.+.=@5.r.~.A.|.F 5.d.5+~ =@5.)@+.y |@  1@2@3@4@5@6@7@  % Y       ",
"        6.R.5+^.^.<+W 5+5+M /.A.A.<+R+<+<+=.v z.=.<+d.|.V.v /.y m+<+}.[++._+<+5+5.X R.}.5.}.=@q.+.z.8@4@9@0@1@1@a@%   Y < Y     ",
"      %     W b@c@d@e@<+^.y.C <+<+A.A.[+%@y +.N y /.e.5.W R+s+6+Y.s+d.7+N +.:+A.<+A.=.A.<+5+/.y b.+.C.f@g@1@h@i@a@    3 Y       ",
"      % Y Y   % j@k@l@m@ @c.y &@n@|.|._++.6+c.m+[+<+|.d.].}.5.%@5+W ~+m U e Y.s+A.<+N 5+m+:+z.+.K.` - o@B+p@q@r@                ",
"        Y < Y % s@h@t@u@5.%@+.v@b.+.v N N 6+s+z.<+R+<+5+A.5+e.@+@+D 5+v b.I b.6+<+A./.<+Y.|.+.c.m./ d+R y A.^.< !               ",
"        Y < Y     t@w@x@&@y y@- J w+b.v v q.y.<+A.A.A.5+%.5+{+@+@+<+E+b.;.T -.z@5+5+<+A.<+A.e /.e b.C y v m ^.! !     %         ",
"% %     3 Y Y   i@A@B@6.Y.6+C@D@w ,@m 5+v s+d.<@<+5.B+<+_+e &.<+T+e _+8.g+i i b.7+d.<+<+A.^./.A. @N :+/.k+d.z.E@1@F@  % %     % ",
"% %   % %   G@H@G@F@I@J@K@L@M@b.H+m q.<+{+].N@O@P@}.Q@5+[+:+v {.$.+.+.8.o o R@D.{+/@5.S@}.s+s+R.^.e.s+s+/.T@U@V@W@h@X@G@Y@  % % ",
"  % % % t@t@4@h@Z@`@ #.#+#@#N #+s+c.<+<+<+]+##$#%#&#@+d.A.<+%.s+#+N E+b.+.6+R E+A.<+}.*#=#-#;#>#^.,#'#)#!#~#4@{#]#h@w@6@4@^#%   ",
"  % % /#(#G@W@t@^#_#:#<#[#6+:+<+<+5+s+}#|#1#2#F@3#4#5#6#].5+<+5+<+{+s+~.`+:+C y c./.e.7#8#9#0#a#b#c#d#e#G@Z@f#f#g#h#i#j#0@g#    ",
"      a@6@{#]#G@0@k#l#e.k+/.T+m#M V n#b@o#p#q#7@r#s#t#u#s+X 5+X <+<+<+|.9+9+9+=.6+%.F v#w#1@G@x#y#z#t@4@g#g#A#B#C#D#E#t@        ",
"      %     Z@/#h@h@F#X e.^.^.G#H#I#F#h@1@J#/#K#L#M#N#O#P#Q#R#S#T#s+h.A.5+<+5+A.Y.=.e.U#V#G@W#4@X#h@G@{#Y#Z#t@1@`# $3           ",
"        %         H@^#.$+$F#1@@$F#t@X@g##$$$%$&$*$=$N#-$-$;$>$,$N#'$)$T+!$/.D s+T+].~${$9@h@1@W@o#o#A@i@h@^#1@]$                ",
"        %   %       % ^$/#/$/#4@g#W@(#h@($_$:$<$[$:$N#-$-$N#>$N#N#-$N#}$X |$Z X e.X X 1${#i@G@]#h@^#2$F@`@W#1@^#5@  % %         ",
"            % % %   j#^$3$4$3$/#h@6@s@o#A@5$6$7$-$-$N#-$-$N#>$N#N#-$-$>$N#-$N#N#N#7$7$5@W@1@/#]$1@Y@8$9$0$ #1@j#w#h@            ",
"              % % ^#^$1@4@a$b$^#i@G@t@{#]$c$d$-$-$N#-$-$-$N#>$N#N#-$-$N#N#-$N#N#N#-$-$e$G@w#]$f$G@t@/#i@g$4@W@Z#^$]#i@%     %   ",
"                  G@^#4@H@i@6@6@1@G@h@/#G@h$-$-$N#-$7$-$-$N#>$N#-$-$-$N#N#7$-$N#-$-$;@i$w#j$k$3@Z@4@i@      w#l$7@/#m$%   % %   ",
"                n$^#g#W#o$F@1@X@4@4@^#G@p$=$=$q$r$;@;@-$-$N#N#N#-$-$-$-$N#N#7$s$_$_$t$u$]$f#4@]$G@/#W#H@                  %     ",
"            % % %         W@v$X@Z@W#X@1$w$x$y$z$A$B$C$;@-$N#N#-$-$;@;@-$-$-$7$D$E$4@Y#^#G@]$6@/#/#4@{#B#6@    % %               ",
"                          % %     W@W@Y@G@/#F$B#G$h@H$f@-$N#-$I$J$/#K$L$_$M$N$O$t@P$1@Z@/#2$Q$W#W#W#Z@3@^#  % % %           %   ",
"  % %     %       % %     %   h@G@/#W@g#{#g#]$g#9@/#]$R$S$-$T$U$Z@V$F$t@W$X$Y$Z$g#V$%     % ^#^#^#X@{#4@`$ %    %           %   ",
"  % %     % %               F#/#v$.%9@Y#f$]#]$/#]$+%@%j#^$#%$%Y#]$3@%%f#P$2@&%g#/#g#/#          % 6@/#X@*%=%)         % %   %   ",
"            %                   %       -%        ]#j$;%g#j$>%>%9@W@    9@,%'%)%!%~%{%g#        %       3 ) )         %         ",
"                                %               /#W@]$4@Z@X@                  1@+%>%Y#Y#        %                               "};
