/* XPM */
static char * actor_down_xpm[] = {
"64 64 13 1",
" 	c None",
".	c #071821",
"+	c #ECAD3C",
"@	c #FFFFFF",
"#	c #E4AF43",
"$	c #EAAE3E",
"%	c #FDFFFC",
"&	c #FEFFFE",
"*	c #FCFEFB",
"=	c #3FCCEA",
"-	c #F682FA",
";	c #FA81FD",
">	c #FF76FF",
"            ....                            ....                ",
"            ....                            ....                ",
"            ....                            ....                ",
"            ....                            ....                ",
"        ....++++....        ................++++....            ",
"        ....++++....        ................++++....            ",
"        ....++++....        ................++++....            ",
"        ....++++....        ................++++....            ",
"        ....@@@@++++........++++++++++++....@@@@++++....        ",
"        ....@@@@++++........++++++++++++....@@@@++++....        ",
"        ....@@@@++++........++++++++++++....@@@@++++....        ",
"        ....@@@@++++........++++++++++++....@@@@++++....        ",
"        ....@@@@++++++++++++++++++++....++++@@@@++++....        ",
"        ....@@@@++++++++++++++++++++....++++@@@@++++....        ",
"        ....@@@@++++++++++++++++++++....++++@@@@++++....        ",
"        ....@@@@++++++++++++++++++++....++++@@@@++++....        ",
"        ....++++++++....++++++++++++++++....++++++++....        ",
"        ....++++++++....++++++++++++++++....++++++++....        ",
"        ....++++++++....++++++++++++++++....++++++++....        ",
"        ....++++++++....++++++++++++++++....++++++++....        ",
"        ....++++++++....####$$$$++++++++....++++++++....        ",
"        ....++++++++....####$$$$++++++++....++++++++....        ",
"        ....++++++++....####$$$$++++++++....++++++++....        ",
"        ....++++++++....####$$$$++++++++....++++++++....        ",
"        ....++++++++@@@@@@@@........%%%%@@@@++++++++....        ",
"        ....++++++++@@@@@@@@........%%%%@@@@++++++++....        ",
"        ....++++++++@@@@@@@@........%%%%@@@@++++++++....        ",
"        ....++++++++@@@@@@@@........%%%%@@@@++++++++....        ",
"        ....@@@@@@@@@@@@@@@@@@@@@@@@@@@@@@@@@@@@@@@@....        ",
"        ....@@@@@@@@@@@@@@@@@@@@@@@@@@@@@@@@@@@@@@@@....        ",
"        ....@@@@@@@@@@@@@@@@@@@@@@@@@@@@@@@@@@@@@@@@....        ",
"        ....@@@@@@@@@@@@@@@@@@@@@@@@@@@@@@@@@@@@@@@@....        ",
"    ....++++....%%%%&&&&&&&&@@@@@@@@&&&&@@@@@@@@....            ",
"    ....++++....%%%%&&&&&&&&@@@@@@@@&&&&@@@@@@@@....            ",
"    ....++++....%%%%&&&&&&&&@@@@@@@@&&&&@@@@@@@@....            ",
"    ....++++....%%%%&&&&&&&&@@@@@@@@&&&&@@@@@@@@....            ",
"    ....++++....................................++++....        ",
"    ....++++....................................++++....        ",
"    ....++++....................................++++....        ",
"    ....++++....................................++++....        ",
"    ....++++@@@@****....====================....++++@@@@....    ",
"    ....++++@@@@****....====================....++++@@@@....    ",
"    ....++++@@@@****....====================....++++@@@@....    ",
"    ....++++@@@@****....====================....++++@@@@....    ",
"        ....@@@@****....----;;;;;;;;;;;;;;;;;;;;....@@@@....    ",
"        ....@@@@****....----;;;;;;;;;;;;;;;;;;;;....@@@@....    ",
"        ....@@@@****....----;;;;;;;;;;;;;;;;;;;;....@@@@....    ",
"        ....@@@@****....----;;;;;;;;;;;;;;;;;;;;....@@@@....    ",
"            ........@@@@@@@@@@@@@@@@@@@@@@@@@@@@........        ",
"            ........@@@@@@@@@@@@@@@@@@@@@@@@@@@@........        ",
"            ........@@@@@@@@@@@@@@@@@@@@@@@@@@@@........        ",
"            ........@@@@@@@@@@@@@@@@@@@@@@@@@@@@........        ",
"            ....>>>>>>>>>>>>>>>>>>>>................            ",
"            ....>>>>>>>>>>>>>>>>>>>>................            ",
"            ....>>>>>>>>>>>>>>>>>>>>................            ",
"            ....>>>>>>>>>>>>>>>>>>>>................            ",
"            ............................@@@@++++....            ",
"            ............................@@@@++++....            ",
"            ............................@@@@++++....            ",
"            ............................@@@@++++....            ",
"                ................................                ",
"                ................................                ",
"                ................................                ",
"                ................................                "};
