/* XPM */
static char * actor_down_rev_xpm[] = {
"64 64 13 1",
" 	c None",
".	c #071821",
"+	c #ECAD3C",
"@	c #FFFFFF",
"#	c #EAAE3E",
"$	c #E4AF43",
"%	c #FDFFFC",
"&	c #FEFFFE",
"*	c #3FCCEA",
"=	c #FCFEFB",
"-	c #FA81FD",
";	c #F682FA",
">	c #FF76FF",
"                ....                            ....            ",
"                ....                            ....            ",
"                ....                            ....            ",
"                ....                            ....            ",
"            ....++++................        ....++++....        ",
"            ....++++................        ....++++....        ",
"            ....++++................        ....++++....        ",
"            ....++++................        ....++++....        ",
"        ....++++@@@@....++++++++++++........++++@@@@....        ",
"        ....++++@@@@....++++++++++++........++++@@@@....        ",
"        ....++++@@@@....++++++++++++........++++@@@@....        ",
"        ....++++@@@@....++++++++++++........++++@@@@....        ",
"        ....++++@@@@++++....++++++++++++++++++++@@@@....        ",
"        ....++++@@@@++++....++++++++++++++++++++@@@@....        ",
"        ....++++@@@@++++....++++++++++++++++++++@@@@....        ",
"        ....++++@@@@++++....++++++++++++++++++++@@@@....        ",
"        ....++++++++....++++++++++++++++....++++++++....        ",
"        ....++++++++....++++++++++++++++....++++++++....        ",
"        ....++++++++....++++++++++++++++....++++++++....        ",
"        ....++++++++....++++++++++++++++....++++++++....        ",
"        ....++++++++....++++++++####$$$$....++++++++....        ",
"        ....++++++++....++++++++####$$$$....++++++++....        ",
"        ....++++++++....++++++++####$$$$....++++++++....        ",
"        ....++++++++....++++++++####$$$$....++++++++....        ",
"        ....++++++++@@@@%%%%........@@@@@@@@++++++++....        ",
"        ....++++++++@@@@%%%%........@@@@@@@@++++++++....        ",
"        ....++++++++@@@@%%%%........@@@@@@@@++++++++....        ",
"        ....++++++++@@@@%%%%........@@@@@@@@++++++++....        ",
"        ....@@@@@@@@@@@@@@@@@@@@@@@@@@@@@@@@@@@@@@@@....        ",
"        ....@@@@@@@@@@@@@@@@@@@@@@@@@@@@@@@@@@@@@@@@....        ",
"        ....@@@@@@@@@@@@@@@@@@@@@@@@@@@@@@@@@@@@@@@@....        ",
"        ....@@@@@@@@@@@@@@@@@@@@@@@@@@@@@@@@@@@@@@@@....        ",
"            ....@@@@@@@@&&&&@@@@@@@@&&&&&&&&%%%%....++++....    ",
"            ....@@@@@@@@&&&&@@@@@@@@&&&&&&&&%%%%....++++....    ",
"            ....@@@@@@@@&&&&@@@@@@@@&&&&&&&&%%%%....++++....    ",
"            ....@@@@@@@@&&&&@@@@@@@@&&&&&&&&%%%%....++++....    ",
"        ....++++....................................++++....    ",
"        ....++++....................................++++....    ",
"        ....++++....................................++++....    ",
"        ....++++....................................++++....    ",
"    ....@@@@++++....********************....====@@@@++++....    ",
"    ....@@@@++++....********************....====@@@@++++....    ",
"    ....@@@@++++....********************....====@@@@++++....    ",
"    ....@@@@++++....********************....====@@@@++++....    ",
"    ....@@@@....--------------------;;;;....====@@@@....        ",
"    ....@@@@....--------------------;;;;....====@@@@....        ",
"    ....@@@@....--------------------;;;;....====@@@@....        ",
"    ....@@@@....--------------------;;;;....====@@@@....        ",
"        ........@@@@@@@@@@@@@@@@@@@@@@@@@@@@........            ",
"        ........@@@@@@@@@@@@@@@@@@@@@@@@@@@@........            ",
"        ........@@@@@@@@@@@@@@@@@@@@@@@@@@@@........            ",
"        ........@@@@@@@@@@@@@@@@@@@@@@@@@@@@........            ",
"            ................>>>>>>>>>>>>>>>>>>>>....            ",
"            ................>>>>>>>>>>>>>>>>>>>>....            ",
"            ................>>>>>>>>>>>>>>>>>>>>....            ",
"            ................>>>>>>>>>>>>>>>>>>>>....            ",
"            ....++++@@@@............................            ",
"            ....++++@@@@............................            ",
"            ....++++@@@@............................            ",
"            ....++++@@@@............................            ",
"                ................................                ",
"                ................................                ",
"                ................................                ",
"                ................................                "};
