/* XPM */
static char * actor_left_xpm[] = {
"64 64 7 1",
" 	c None",
".	c #071821",
"+	c #EBAC3C",
"@	c #FFFFFF",
"#	c #AA6718",
"$	c #3CCCEC",
"%	c #FB7CFC",
"                                                                ",
"                                                                ",
"                                                                ",
"                                                                ",
"                   ....                  ....                   ",
"                   ....                  ....                   ",
"                   ....                  ....                   ",
"                   ....                  ....                   ",
"           ........++++...            ...++++....               ",
"           ........++++...            ...++++....               ",
"           ........++++...            ...++++....               ",
"           ........++++...            ...++++....               ",
"        ...++++....@@@@+++............+++@@@@++++....           ",
"        ...++++....@@@@+++............+++@@@@++++....           ",
"        ...++++....@@@@+++............+++@@@@++++....           ",
"        ...++++....@@@@+++............+++@@@@++++....           ",
"           ........++++++++++++++++++++++@@@@++++....           ",
"           ........++++++++++++++++++++++@@@@++++....           ",
"           ........++++++++++++++++++++++@@@@++++....           ",
"           ........++++++++++++++++++++++@@@@++++....           ",
"        .......++++++++...+++++++++++++++++++++++....           ",
"        .......++++++++...+++++++++++++++++++++++....           ",
"        .......++++++++...+++++++++++++++++++++++....           ",
"        .......++++++++...+++++++++++++++++++++++....           ",
"    ....###@@@@@@@@++++...+++++++++++++++++++++++.......        ",
"    ....###@@@@@@@@++++...+++++++++++++++++++++++.......        ",
"    ....###@@@@@@@@++++...+++++++++++++++++++++++.......        ",
"    ....###@@@@@@@@++++...+++++++++++++++++++++++.......        ",
"        ...@@@@@@@@@@@@++++++++++++++++++++++++++....@@@....    ",
"        ...@@@@@@@@@@@@++++++++++++++++++++++++++....@@@....    ",
"        ...@@@@@@@@@@@@++++++++++++++++++++++++++....@@@....    ",
"        ...@@@@@@@@@@@@++++++++++++++++++++++++++....@@@....    ",
"           ....@@@@@@@@@@@@@@@@@@@+++++++++++........@@@....    ",
"           ....@@@@@@@@@@@@@@@@@@@+++++++++++........@@@....    ",
"           ....@@@@@@@@@@@@@@@@@@@+++++++++++........@@@....    ",
"           ....@@@@@@@@@@@@@@@@@@@+++++++++++........@@@....    ",
"               ..................................+++++++....    ",
"               ..................................+++++++....    ",
"               ..................................+++++++....    ",
"               ..................................+++++++....    ",
"               ....@@@@@@@....$$$$$$$$%%%....+++++++++++....    ",
"               ....@@@@@@@....$$$$$$$$%%%....+++++++++++....    ",
"               ....@@@@@@@....$$$$$$$$%%%....+++++++++++....    ",
"               ....@@@@@@@....$$$$$$$$%%%....+++++++++++....    ",
"               ....@@@@@@@....%%%%%%%%+++........+++++++....    ",
"               ....@@@@@@@....%%%%%%%%+++........+++++++....    ",
"               ....@@@@@@@....%%%%%%%%+++........+++++++....    ",
"               ....@@@@@@@....%%%%%%%%+++........+++++++....    ",
"               ...........++++++++++++@@@...............        ",
"               ...........++++++++++++@@@...............        ",
"               ...........++++++++++++@@@...............        ",
"               ...........++++++++++++@@@...............        ",
"           ...............@@@@@@@@@@@@.......++++....           ",
"           ...............@@@@@@@@@@@@.......++++....           ",
"           ...............@@@@@@@@@@@@.......++++....           ",
"           ...............@@@@@@@@@@@@.......++++....           ",
"        ...++++@@@@......................@@@@@@@@....           ",
"        ...++++@@@@......................@@@@@@@@....           ",
"        ...++++@@@@......................@@@@@@@@....           ",
"        ...++++@@@@......................@@@@@@@@....           ",
"        ................................................        ",
"        ................................................        ",
"        ................................................        ",
"        ................................................        "};
