/* XPM */
static char * move_background_xpm[] = {
"70 30 2 1",
" 	c #FFFFFF",
".	c #000000",
"                                                                      ",
"                                                                      ",
"  ..................................................................  ",
"  ..................................................................  ",
"  ..................................................................  ",
"  ..................................................................  ",
"  ..................................................................  ",
"  ..................................................................  ",
"  ..................................................................  ",
"  ..................................................................  ",
"  ..................................................................  ",
"  ..................................................................  ",
"  ..................................................................  ",
"  ..................................................................  ",
"  ..................................................................  ",
"  ..................................................................  ",
"  ..................................................................  ",
"  ..................................................................  ",
"  ..................................................................  ",
"  ..................................................................  ",
"  ..................................................................  ",
"  ..................................................................  ",
"  ..................................................................  ",
"  ..................................................................  ",
"  ..................................................................  ",
"  ..................................................................  ",
"  ..................................................................  ",
"  ..................................................................  ",
"                                                                      ",
"                                                                      "};
