/* XPM */
static char * actor_right_xpm[] = {
"64 64 7 1",
" 	c None",
".	c #071821",
"+	c #EBAC3C",
"@	c #FFFFFF",
"#	c #AA6718",
"$	c #FB7CFC",
"%	c #3CCCEC",
"                                                                ",
"                                                                ",
"                                                                ",
"                                                                ",
"                   ....                  ....                   ",
"                   ....                  ....                   ",
"                   ....                  ....                   ",
"                   ....                  ....                   ",
"               ....++++...            ...++++........           ",
"               ....++++...            ...++++........           ",
"               ....++++...            ...++++........           ",
"               ....++++...            ...++++........           ",
"           ....++++@@@@+++............+++@@@@....++++...        ",
"           ....++++@@@@+++............+++@@@@....++++...        ",
"           ....++++@@@@+++............+++@@@@....++++...        ",
"           ....++++@@@@+++............+++@@@@....++++...        ",
"           ....++++@@@@++++++++++++++++++++++........           ",
"           ....++++@@@@++++++++++++++++++++++........           ",
"           ....++++@@@@++++++++++++++++++++++........           ",
"           ....++++@@@@++++++++++++++++++++++........           ",
"           ....+++++++++++++++++++++++...++++++++.......        ",
"           ....+++++++++++++++++++++++...++++++++.......        ",
"           ....+++++++++++++++++++++++...++++++++.......        ",
"           ....+++++++++++++++++++++++...++++++++.......        ",
"        .......+++++++++++++++++++++++...++++@@@@@@@@###....    ",
"        .......+++++++++++++++++++++++...++++@@@@@@@@###....    ",
"        .......+++++++++++++++++++++++...++++@@@@@@@@###....    ",
"        .......+++++++++++++++++++++++...++++@@@@@@@@###....    ",
"    ....@@@....++++++++++++++++++++++++++@@@@@@@@@@@@...        ",
"    ....@@@....++++++++++++++++++++++++++@@@@@@@@@@@@...        ",
"    ....@@@....++++++++++++++++++++++++++@@@@@@@@@@@@...        ",
"    ....@@@....++++++++++++++++++++++++++@@@@@@@@@@@@...        ",
"    ....@@@........+++++++++++@@@@@@@@@@@@@@@@@@@....           ",
"    ....@@@........+++++++++++@@@@@@@@@@@@@@@@@@@....           ",
"    ....@@@........+++++++++++@@@@@@@@@@@@@@@@@@@....           ",
"    ....@@@........+++++++++++@@@@@@@@@@@@@@@@@@@....           ",
"    ....+++++++..................................               ",
"    ....+++++++..................................               ",
"    ....+++++++..................................               ",
"    ....+++++++..................................               ",
"    ....+++++++++++....$$$%%%%%%%%....@@@@@@@....               ",
"    ....+++++++++++....$$$%%%%%%%%....@@@@@@@....               ",
"    ....+++++++++++....$$$%%%%%%%%....@@@@@@@....               ",
"    ....+++++++++++....$$$%%%%%%%%....@@@@@@@....               ",
"    ....+++++++........+++$$$$$$$$....@@@@@@@....               ",
"    ....+++++++........+++$$$$$$$$....@@@@@@@....               ",
"    ....+++++++........+++$$$$$$$$....@@@@@@@....               ",
"    ....+++++++........+++$$$$$$$$....@@@@@@@....               ",
"        ...............@@@++++++++++++...........               ",
"        ...............@@@++++++++++++...........               ",
"        ...............@@@++++++++++++...........               ",
"        ...............@@@++++++++++++...........               ",
"           ....++++.......@@@@@@@@@@@@...............           ",
"           ....++++.......@@@@@@@@@@@@...............           ",
"           ....++++.......@@@@@@@@@@@@...............           ",
"           ....++++.......@@@@@@@@@@@@...............           ",
"           ....@@@@@@@@......................@@@@++++...        ",
"           ....@@@@@@@@......................@@@@++++...        ",
"           ....@@@@@@@@......................@@@@++++...        ",
"           ....@@@@@@@@......................@@@@++++...        ",
"        ................................................        ",
"        ................................................        ",
"        ................................................        ",
"        ................................................        "};
