/* XPM */
static char * actor_up_rev_xpm[] = {
"64 64 8 1",
" 	c None",
".	c #071821",
"+	c #EBAC3C",
"@	c #FFFFFF",
"#	c #F9FEF7",
"$	c #FCFEFA",
"%	c #3CCCEC",
"&	c #FB7CFC",
"             ....                              ....             ",
"             ....                              ....             ",
"             ....                              ....             ",
"             ....                              ....             ",
"         ....++++....                      ....++++....         ",
"         ....++++....                      ....++++....         ",
"         ....++++....                      ....++++....         ",
"         ....++++....                      ....++++....         ",
"         ....++++++++......................++++++++++++.....    ",
"         ....++++++++......................++++++++++++.....    ",
"         ....++++++++......................++++++++++++.....    ",
"         ....++++++++......................++++++++++++.....    ",
"         ....++++++++++++++++++++++++++++++++++++++++++.....    ",
"         ....++++++++++++++++++++++++++++++++++++++++++.....    ",
"         ....++++++++++++++++++++++++++++++++++++++++++.....    ",
"         ....++++++++++++++++++++++++++++++++++++++++++.....    ",
"         ....++++++++++++++++++++++++++++++++++++++++++.....    ",
"         ....++++++++++++++++++++++++++++++++++++++++++.....    ",
"         ....++++++++++++++++++++++++++++++++++++++++++.....    ",
"         ....++++++++++++++++++++++++++++++++++++++++++.....    ",
"         ....+++++++++++++++++.............++++++++++++.....    ",
"         ....+++++++++++++++++.............++++++++++++.....    ",
"         ....+++++++++++++++++.............++++++++++++.....    ",
"         ....+++++++++++++++++.............++++++++++++.....    ",
"         ....+++++++++++++....@@@@@@@@@@@@@....++++++++.....    ",
"         ....+++++++++++++....@@@@@@@@@@@@@....++++++++.....    ",
"         ....+++++++++++++....@@@@@@@@@@@@@....++++++++.....    ",
"         ....+++++++++++++....@@@@@@@@@@@@@....++++++++.....    ",
"             ....++++.....@@@@@@@@@@@@#####$$$$........         ",
"             ....++++.....@@@@@@@@@@@@#####$$$$........         ",
"             ....++++.....@@@@@@@@@@@@#####$$$$........         ",
"             ....++++.....@@@@@@@@@@@@#####$$$$........         ",
"         ....++++.........@@@@@@@@@@@@@@@@@@@@@........         ",
"         ....++++.........@@@@@@@@@@@@@@@@@@@@@........         ",
"         ....++++.........@@@@@@@@@@@@@@@@@@@@@........         ",
"         ....++++.........@@@@@@@@@@@@@@@@@@@@@........         ",
"    .....@@@@++++....+++++++++@@@@@@@@@@@@@........++++.....    ",
"    .....@@@@++++....+++++++++@@@@@@@@@@@@@........++++.....    ",
"    .....@@@@++++....+++++++++@@@@@@@@@@@@@........++++.....    ",
"    .....@@@@++++....+++++++++@@@@@@@@@@@@@........++++.....    ",
"    .....@@@@........++++++++++++++++++++++........++++.....    ",
"    .....@@@@........++++++++++++++++++++++........++++.....    ",
"    .....@@@@........++++++++++++++++++++++........++++.....    ",
"    .....@@@@........++++++++++++++++++++++........++++.....    ",
"         ....%%%%....++++++++++++++++++++++............         ",
"         ....%%%%....++++++++++++++++++++++............         ",
"         ....%%%%....++++++++++++++++++++++............         ",
"         ....%%%%....++++++++++++++++++++++............         ",
"         ....&&&&....++++++++++++++++++++++....@@@@....         ",
"         ....&&&&....++++++++++++++++++++++....@@@@....         ",
"         ....&&&&....++++++++++++++++++++++....@@@@....         ",
"         ....&&&&....++++++++++++++++++++++....@@@@....         ",
"         ........@@@@.....++++++++++++.................         ",
"         ........@@@@.....++++++++++++.................         ",
"         ........@@@@.....++++++++++++.................         ",
"         ........@@@@.....++++++++++++.................         ",
"         ..................................@@@@@@@@.........    ",
"         ..................................@@@@@@@@.........    ",
"         ..................................@@@@@@@@.........    ",
"         ..................................@@@@@@@@.........    ",
"             ..........................................         ",
"             ..........................................         ",
"             ..........................................         ",
"             ..........................................         "};
