/* XPM */
static char * actor_up_xpm[] = {
"64 64 8 1",
" 	c None",
".	c #071821",
"+	c #EBAC3C",
"@	c #FFFFFF",
"#	c #FCFEFA",
"$	c #F9FEF7",
"%	c #3CCCEC",
"&	c #FB7CFC",
"             ....                              ....             ",
"             ....                              ....             ",
"             ....                              ....             ",
"             ....                              ....             ",
"         ....++++....                      ....++++....         ",
"         ....++++....                      ....++++....         ",
"         ....++++....                      ....++++....         ",
"         ....++++....                      ....++++....         ",
"    .....++++++++++++......................++++++++....         ",
"    .....++++++++++++......................++++++++....         ",
"    .....++++++++++++......................++++++++....         ",
"    .....++++++++++++......................++++++++....         ",
"    .....++++++++++++++++++++++++++++++++++++++++++....         ",
"    .....++++++++++++++++++++++++++++++++++++++++++....         ",
"    .....++++++++++++++++++++++++++++++++++++++++++....         ",
"    .....++++++++++++++++++++++++++++++++++++++++++....         ",
"    .....++++++++++++++++++++++++++++++++++++++++++....         ",
"    .....++++++++++++++++++++++++++++++++++++++++++....         ",
"    .....++++++++++++++++++++++++++++++++++++++++++....         ",
"    .....++++++++++++++++++++++++++++++++++++++++++....         ",
"    .....++++++++++++.............+++++++++++++++++....         ",
"    .....++++++++++++.............+++++++++++++++++....         ",
"    .....++++++++++++.............+++++++++++++++++....         ",
"    .....++++++++++++.............+++++++++++++++++....         ",
"    .....++++++++....@@@@@@@@@@@@@....+++++++++++++....         ",
"    .....++++++++....@@@@@@@@@@@@@....+++++++++++++....         ",
"    .....++++++++....@@@@@@@@@@@@@....+++++++++++++....         ",
"    .....++++++++....@@@@@@@@@@@@@....+++++++++++++....         ",
"         ........####$$$$$@@@@@@@@@@@@.....++++....             ",
"         ........####$$$$$@@@@@@@@@@@@.....++++....             ",
"         ........####$$$$$@@@@@@@@@@@@.....++++....             ",
"         ........####$$$$$@@@@@@@@@@@@.....++++....             ",
"         ........@@@@@@@@@@@@@@@@@@@@@.........++++....         ",
"         ........@@@@@@@@@@@@@@@@@@@@@.........++++....         ",
"         ........@@@@@@@@@@@@@@@@@@@@@.........++++....         ",
"         ........@@@@@@@@@@@@@@@@@@@@@.........++++....         ",
"    .....++++........@@@@@@@@@@@@@+++++++++....++++@@@@.....    ",
"    .....++++........@@@@@@@@@@@@@+++++++++....++++@@@@.....    ",
"    .....++++........@@@@@@@@@@@@@+++++++++....++++@@@@.....    ",
"    .....++++........@@@@@@@@@@@@@+++++++++....++++@@@@.....    ",
"    .....++++........++++++++++++++++++++++........@@@@.....    ",
"    .....++++........++++++++++++++++++++++........@@@@.....    ",
"    .....++++........++++++++++++++++++++++........@@@@.....    ",
"    .....++++........++++++++++++++++++++++........@@@@.....    ",
"         ............++++++++++++++++++++++....%%%%....         ",
"         ............++++++++++++++++++++++....%%%%....         ",
"         ............++++++++++++++++++++++....%%%%....         ",
"         ............++++++++++++++++++++++....%%%%....         ",
"         ....@@@@....++++++++++++++++++++++....&&&&....         ",
"         ....@@@@....++++++++++++++++++++++....&&&&....         ",
"         ....@@@@....++++++++++++++++++++++....&&&&....         ",
"         ....@@@@....++++++++++++++++++++++....&&&&....         ",
"         .................++++++++++++.....@@@@........         ",
"         .................++++++++++++.....@@@@........         ",
"         .................++++++++++++.....@@@@........         ",
"         .................++++++++++++.....@@@@........         ",
"    .........@@@@@@@@..................................         ",
"    .........@@@@@@@@..................................         ",
"    .........@@@@@@@@..................................         ",
"    .........@@@@@@@@..................................         ",
"         ..........................................             ",
"         ..........................................             ",
"         ..........................................             ",
"         ..........................................             "};
