/* XPM */
static char * forest_xpm[] = {
"64 64 448 2",
"  	c #0C532C",
". 	c #093330",
"+ 	c #121C1F",
"@ 	c #2F8136",
"# 	c #10171F",
"$ 	c #10151E",
"% 	c #0B2E2B",
"& 	c #0C2C2A",
"* 	c #0D2728",
"= 	c #0C2828",
"- 	c #0C2D2B",
"; 	c #0A322E",
"> 	c #0A312D",
", 	c #064538",
"' 	c #0B302D",
") 	c #0C2928",
"! 	c #10131D",
"~ 	c #064739",
"{ 	c #074136",
"] 	c #064237",
"^ 	c #10141E",
"/ 	c #0C2929",
"( 	c #0A592F",
"_ 	c #074336",
": 	c #073F34",
"< 	c #0B2D2B",
"[ 	c #064437",
"} 	c #064537",
"| 	c #064337",
"1 	c #0C2B2A",
"2 	c #0B2F2C",
"3 	c #10161F",
"4 	c #0C2A29",
"5 	c #0F1820",
"6 	c #2D7C34",
"7 	c #2E7D35",
"8 	c #2B7332",
"9 	c #151F20",
"0 	c #084133",
"a 	c #0A5B2F",
"b 	c #0B5F2E",
"c 	c #075436",
"d 	c #0E2623",
"e 	c #20502C",
"f 	c #21512B",
"g 	c #0A342F",
"h 	c #0E1F23",
"i 	c #0D2727",
"j 	c #0C2A2A",
"k 	c #0C2729",
"l 	c #073E35",
"m 	c #101820",
"n 	c #074236",
"o 	c #0D2326",
"p 	c #0B2C2C",
"q 	c #073A34",
"r 	c #0A5730",
"s 	c #0A5530",
"t 	c #0A5B30",
"u 	c #073F36",
"v 	c #064638",
"w 	c #0B302C",
"x 	c #074436",
"y 	c #0B5C2E",
"z 	c #094B32",
"A 	c #083932",
"B 	c #0E2024",
"C 	c #073E34",
"D 	c #083E34",
"E 	c #0E2325",
"F 	c #2E7F35",
"G 	c #0F2726",
"H 	c #0D3027",
"I 	c #095E31",
"J 	c #0B5D2E",
"K 	c #0B5C2F",
"L 	c #0A5C2F",
"M 	c #0B572E",
"N 	c #1A3225",
"O 	c #286B31",
"P 	c #0D2627",
"Q 	c #074135",
"R 	c #0F1B21",
"S 	c #074B36",
"T 	c #074635",
"U 	c #0A5830",
"V 	c #0B312D",
"W 	c #0A322D",
"X 	c #064238",
"Y 	c #0B5D2F",
"Z 	c #0B342B",
"` 	c #0F1920",
" .	c #074035",
"..	c #083D34",
"+.	c #074835",
"@.	c #0B5E2E",
"#.	c #084934",
"$.	c #0E2124",
"%.	c #162D23",
"&.	c #193725",
"*.	c #122A23",
"=.	c #0B5B2E",
"-.	c #0B552D",
";.	c #26602E",
">.	c #11171E",
",.	c #0D2023",
"'.	c #0B2B2A",
").	c #084E33",
"!.	c #093730",
"~.	c #095832",
"{.	c #0A332E",
"].	c #0A392F",
"^.	c #084E34",
"/.	c #083C33",
"(.	c #093630",
"_.	c #073F35",
":.	c #0D1E22",
"<.	c #1C4228",
"[.	c #084432",
"}.	c #0A612F",
"|.	c #0B552C",
"1.	c #084232",
"2.	c #09352F",
"3.	c #083830",
"4.	c #0C2D2A",
"5.	c #074735",
"6.	c #073E36",
"7.	c #0B2E2C",
"8.	c #0F1D22",
"9.	c #093230",
"0.	c #0B572D",
"a.	c #084D33",
"b.	c #073C36",
"c.	c #064136",
"d.	c #0A2E2C",
"e.	c #0E1C22",
"f.	c #0A342E",
"g.	c #093831",
"h.	c #084F33",
"i.	c #074B35",
"j.	c #0E2225",
"k.	c #083D33",
"l.	c #0A352F",
"m.	c #0C2627",
"n.	c #0E2923",
"o.	c #075435",
"p.	c #095431",
"q.	c #0F1A21",
"r.	c #064137",
"s.	c #074036",
"t.	c #0E1D23",
"u.	c #0C2B29",
"v.	c #064837",
"w.	c #084A34",
"x.	c #085334",
"y.	c #0C2025",
"z.	c #0D2425",
"A.	c #0E1D22",
"B.	c #0E1E23",
"C.	c #093931",
"D.	c #09362F",
"E.	c #0D2527",
"F.	c #0F1C22",
"G.	c #083A32",
"H.	c #0B2C2A",
"I.	c #0E2125",
"J.	c #1F4C2A",
"K.	c #193E28",
"L.	c #0D2125",
"M.	c #064438",
"N.	c #085234",
"O.	c #0B402B",
"P.	c #095631",
"Q.	c #0A5A2F",
"R.	c #0E2222",
"S.	c #0E1C21",
"T.	c #2A7032",
"U.	c #30472B",
"V.	c #3B4E29",
"W.	c #2E3D26",
"X.	c #083B33",
"Y.	c #064637",
"Z.	c #074535",
"`.	c #074536",
" +	c #0A5630",
".+	c #094732",
"++	c #0D2524",
"@+	c #0D1F23",
"#+	c #0E1F24",
"$+	c #161F20",
"%+	c #171F20",
"&+	c #0C2529",
"*+	c #0B612E",
"=+	c #0B5F2D",
"-+	c #0C2526",
";+	c #064938",
">+	c #121D21",
",+	c #2D4129",
"'+	c #2B3E29",
")+	c #0D2426",
"!+	c #11121D",
"~+	c #0A5430",
"{+	c #074936",
"]+	c #0D2526",
"^+	c #074836",
"/+	c #09342E",
"(+	c #0F191F",
"_+	c #093A32",
":+	c #0D2225",
"<+	c #074337",
"[+	c #095331",
"}+	c #0B3829",
"|+	c #064036",
"1+	c #074E36",
"2+	c #074935",
"3+	c #083732",
"4+	c #05483A",
"5+	c #074736",
"6+	c #064038",
"7+	c #0B512B",
"8+	c #0F151E",
"9+	c #064037",
"0+	c #095531",
"a+	c #093A31",
"b+	c #073A35",
"c+	c #054739",
"d+	c #0D2226",
"e+	c #0F141D",
"f+	c #0E1E22",
"g+	c #0A302C",
"h+	c #063F38",
"i+	c #0B5C2D",
"j+	c #095132",
"k+	c #083B32",
"l+	c #085533",
"m+	c #0F1C20",
"n+	c #075636",
"o+	c #0E1920",
"p+	c #0D2124",
"q+	c #0A582F",
"r+	c #0B2D2A",
"s+	c #0C2728",
"t+	c #084C34",
"u+	c #083831",
"v+	c #095731",
"w+	c #0E1E24",
"x+	c #095032",
"y+	c #085034",
"z+	c #0D2126",
"A+	c #0A2F2D",
"B+	c #0C2727",
"C+	c #093530",
"D+	c #243C28",
"E+	c #0C2A28",
"F+	c #0C2827",
"G+	c #0B602D",
"H+	c #073D35",
"I+	c #0F161E",
"J+	c #0B312B",
"K+	c #0A352D",
"L+	c #0F1921",
"M+	c #084933",
"N+	c #0A5D30",
"O+	c #074D36",
"P+	c #0C4D2B",
"Q+	c #10151F",
"R+	c #064336",
"S+	c #2A462A",
"T+	c #2C4A2B",
"U+	c #3A2413",
"V+	c #374828",
"W+	c #1C2622",
"X+	c #1B2723",
"Y+	c #121E20",
"Z+	c #074834",
"`+	c #0F2522",
" @	c #0B372B",
".@	c #074A35",
"+@	c #0A5831",
"@@	c #0B2B2B",
"#@	c #0A312E",
"$@	c #0A5E30",
"%@	c #121E21",
"&@	c #101E22",
"*@	c #403329",
"=@	c #2F4E2C",
"-@	c #30512D",
";@	c #2B3022",
">@	c #322216",
",@	c #3E271D",
"'@	c #2B2018",
")@	c #294229",
"!@	c #2F442A",
"~@	c #384B28",
"{@	c #293524",
"]@	c #084732",
"^@	c #0C3E2A",
"/@	c #083A33",
"(@	c #083432",
"_@	c #0A5930",
":@	c #0E1722",
"<@	c #0A632F",
"[@	c #064338",
"}@	c #074A37",
"|@	c #064639",
"1@	c #064839",
"2@	c #131B20",
"3@	c #383628",
"4@	c #2B2F21",
"5@	c #3E2613",
"6@	c #62351C",
"7@	c #342215",
"8@	c #2D4E29",
"9@	c #162221",
"0@	c #073C34",
"a@	c #064138",
"b@	c #0A622F",
"c@	c #0F141F",
"d@	c #0B292A",
"e@	c #085233",
"f@	c #054639",
"g@	c #0F1F21",
"h@	c #0A5D2F",
"i@	c #084B33",
"j@	c #0F1E22",
"k@	c #202E24",
"l@	c #313729",
"m@	c #304D2C",
"n@	c #304E2D",
"o@	c #31462B",
"p@	c #2B2920",
"q@	c #3C2513",
"r@	c #161E21",
"s@	c #1F1C1E",
"t@	c #141E22",
"u@	c #65432D",
"v@	c #171C20",
"w@	c #0F1B22",
"x@	c #2D482B",
"y@	c #322625",
"z@	c #083632",
"A@	c #094C32",
"B@	c #073D36",
"C@	c #074E35",
"D@	c #075137",
"E@	c #0F1821",
"F@	c #084F35",
"G@	c #10161E",
"H@	c #293726",
"I@	c #2F2423",
"J@	c #2F1F22",
"K@	c #2B1C1D",
"L@	c #28201E",
"M@	c #744B30",
"N@	c #61341C",
"O@	c #1F1B1B",
"P@	c #31221D",
"Q@	c #0F1A20",
"R@	c #3D3529",
"S@	c #095232",
"T@	c #064236",
"U@	c #211E1A",
"V@	c #271D18",
"W@	c #1D191E",
"X@	c #4D3729",
"Y@	c #2F2117",
"Z@	c #2D4029",
"`@	c #073D34",
" #	c #0E1B22",
".#	c #0B552E",
"+#	c #0B512D",
"@#	c #2B1F1D",
"##	c #3A4B29",
"$#	c #161F1F",
"%#	c #054239",
"&#	c #0B2B2C",
"*#	c #0A6230",
"=#	c #0B2D2C",
"-#	c #2C1F17",
";#	c #192422",
">#	c #093E31",
",#	c #095432",
"'#	c #093B31",
")#	c #074636",
"!#	c #084C33",
"~#	c #074B37",
"{#	c #0F2221",
"]#	c #0A5F2F",
"^#	c #0C2428",
"/#	c #0B332B",
"(#	c #095332",
"_#	c #0C2528",
":#	c #0A422E",
"<#	c #0A302F",
"[#	c #094831",
"}#	c #095532",
"|#	c #0A602F",
"1#	c #0F1721",
"2#	c #073B34",
"3#	c #223326",
"4#	c #32452B",
"5#	c #3C3C2B",
"6#	c #48332B",
"7#	c #101A20",
"8#	c #3D2613",
"9#	c #332315",
"0#	c #0A332D",
"a#	c #094A32",
"b#	c #084B34",
"c#	c #0D3727",
"d#	c #094931",
"e#	c #083C34",
"f#	c #093932",
"g#	c #243426",
"h#	c #37412B",
"i#	c #111A20",
"j#	c #3D2513",
"k#	c #1E2E24",
"l#	c #35422B",
"m#	c #162524",
"n#	c #084D34",
"o#	c #093731",
"p#	c #095231",
"q#	c #074C37",
"r#	c #10141D",
"s#	c #34442B",
"t#	c #182523",
"u#	c #3C2613",
"v#	c #233527",
"w#	c #172222",
"x#	c #074437",
"y#	c #085133",
"z#	c #0A302D",
"A#	c #182723",
"B#	c #2F3B27",
"C#	c #293D29",
"D#	c #094731",
"E#	c #0A5E2F",
"F#	c #0B2A2B",
"G#	c #172021",
"H#	c #083832",
"I#	c #0D2325",
"J#	c #122C25",
"K#	c #235A2D",
"L#	c #213125",
"M#	c #11181E",
"N#	c #0C2F28",
"O#	c #095333",
"  . + @ @ @ @ @ @ # $ % & * = - & ; > , ' ) ! ~ { ] , ^ / > ] ( _ : < & & & : [ } | | 1 < & 2 3 # 4 $ , , = 5 @ 6 7 @ @ @ 8 9 0 ",
"a b c d e @ @ @ f = g 4 h i < j k , | l & & m n ! ~ o k p q r s t u v % w ' [ x y z A i 4 < 1 & & & < B C [ D > g E 8 F G H I J ",
"K a y L M N @ O P n n Q > R < S b T T U ] : < V W [ X U r y y Y Z : ` < 1  ...+.T @.#.[ $.B [ n , V [ [ 2 | [ & R %.&.*.( K y K ",
"K K K K =.-.o ;.>.,.: '.'...| ).!.[ | l  .; & & { > D x J ).y y ~.k ' 5 & {. .].x ^.J u 2 R /.1  ., [ (._.i > (.:.<.[.}.=.K K K ",
"K K K K K L a |.1.2.3.` 4.[ n | 2 _.D 4 4 < - < & & C +.5.+.y a J 6.R < < < & > | 2 ] _ | * P & C 7.{ _.1 < 8.^ 9.0.K a K K K K ",
"K K K K K y a.b.c.d.e.V | V  .W & f.& < 5 % - - - W g.(.| +.h.r i.; W ` % j.B 2 < > !., k.2.3 % & & 1 l.m.m.n.o.b a K K K K K K ",
"K K K K K a y p.B q.< R & & 1 = = = P = = & & < 1 - 1 | | { r.U s. .R t.% # / 1 < > > ' 2 : q.% < & % R u.o v.w.J a K y y y y K ",
"K K K K K K K y x.y.z.t.A.B < q.u.q.j.B.1 & C.& i $.% V g.w ] w.7.D./ E.2 ) F.R < % & % < / ! G.4 H.I.t.J.K.L.M.5.y a ).N.O.P.K ",
"K K K a J a K a y Q.R.S.2 q.R 1 # 2 < < & > , 1 % F.` % & {.{ | | i = $.v < 2 # = ` % $ i = A | , = T.U.V.W.X.[ x Y.x , B Z.y K ",
"K K K y `. +p.y y a }..+++@+1 < < & - & & w [ ..w & ` 2 h [ 1 , D & q.W | C & % = 5 #+q.= q.i (.| ..$+U.U.V.%+B g A.g.# &+*+a K ",
"y a K y 5.[ r.=+5.@.@.n n -+5 A.& < < W ; , | n , 1 F.= 3 - 4 _.k.4 ` ~ n | ' < & < w < & % 1 , ] | ;+>+,+'+)+n n !+g.l ~+J a a ",
"| J K y {+]+{ x ^+x `.C.n /./+(+_+2 2 C | _. .D W & 2 ` / q.= ; % 3 :+M.<+{ k.4 < & n % D ' ..| [+_ J }+A.o |+_ r.1+2+a a _ p.L ",
"3+J K y y r.t.4+B v [ G./ / 5 5+] | [ n n _.4 ..& - & % < % F.P P A.% [ ] `.] _.& < 1 & k.2 |  .6+7+8+w [ 7.r 9+0+a a y {+J {+a+",
"b+J K K J #.c+d+= / B.e+f+g+h+i+ +j+] [ [ (.{.& < < < % /.% > P P & : ] 9+@.r |+% % & < & < { 1 { R k+X.1 l+J h.y K K t m+n+q.2 ",
" +y K K a  +9+r ]  .| o+A.p+0+q+x s M.% [ 4 ` r+& = s+& C { f.& u.{ C +.t+w.w.] ~ ` & & < R 1 < * u+# / g.+.y y a K K v+w+# g.s.",
"U ( ( K a @.x+r ] `.y+z+/ (.$.A+B+C+(.& > / D+R E+q.F+% W ' [ G.C.| | +.).).G+H+> !.= B+q.4 4 #+I+J+K+L+M+J h.a ( y y U N+O+6+y ",
"a r r y J r.r J 5.+.y P+Q+{.R+..H.A.& & & E.S+T+>.U+P ` < & /.4 k+n : ] | _.r.: < & q.P V+W+X+Y+g.Z+`+ @.@] r 5.J  ++@=.y  +0+y ",
"[+q @@^+@.6+#@X x+x $@i.#+w I.)+)+m.4 %@&@*@=@-@;@>@,@'@/ % & % & > 4 v D.' g ,  .1 F.)@!@~@{@d+]@y ;+< H+x+^@/@(@_@:@<@L y y y ",
"J [@t.}@y v+e.|@| [ f+1@B.{.M.P # ]+2@U.U.3@-@-@4@5@6@7@4 5 % 5 & & & 2 V V V w _./.# 8@9@q.0@i+a r , B.h c+B B a@_@e.k.P+K K y ",
"b@c@d@e@U  +f@= 5 :+> B E.g@h@i@< j@k@U.l@m@n@o@p@5@6@q@r@s@t@u@v@4 L+< % & % < k.w w@x@y@k+ .z@A@a@/./ { P B@C@r  +D@E@F@@.a y ",
", A.a@J y y +.| ' & & & ..5.@.r.] | W G@H@I@J@K@K@5@6@5@5@L@M@N@6@O@P@u.Q@1 A.4 u./ F.R@U.F.% q.C G.P {++.]  +a a a J 3+C.+.y  +",
"] q._@a K y x+Q.M.C.k+2 ^.=+y h.S@| [ T@7.h U@V@W@5@6@5@5@6@M@6@6@5@6@X@5 Y@8.5 F.5 5 V.U.Z@B.)+< B b.=+@.x+y J a y T `@<  #U .#",
"B.,  +K K a J r._ ] | n | +.y +#_.w | | | T@V H.w@5@6@5@5@6@M@6@6@5@5@M@6@5@6@6@6@K@@###$#r+& & _.2 r y a a J T y y T U , t.~ B.",
"%#y ( K K K y t+&#*#n a.9+b y i.=#4.(.w G.< k+>+5@N@5@5@5@6@M@6@6@5@5@6@6@5@6@6@6@5@-#;#(.n & >#[ ,#b '#y J T )#r.J J  +!#_./ W ",
"r a y K K K a y ~#{#h@y T J y y ]#^#= & _.1 & = # 5@K@5@5@6@M@6@5@5@5@6@6@K@5@6@5@7@= & D | | +.y a ]#/#@.T +.] r a K y J r.| ] ",
"!#j+J a J a K y (#_#:#| L U Q.y S@<#B.2 1 s+f+I.` m m 5@5@6@6@6@5@5@5@5@6@6@K@$ f+= [ X a.[+S@@.@.| Y.4 [#_.k }#y K K y S@9+_ ] ",
"r.@.`.@.`.J K a |#1#: ..2#U 9+J a r , ` < < F.3#4#5#6#m 5@6@6@5@5@7#m 5@8#9## 0#| | r.J a a a  +r 0@_.4 { A.X r  +K K a a r ] ] ",
"a#b#r.!#9+=+J _@c#d#G./ _.e#l !#a@a.f#l.h I.j.g#U.U.h#i#5@6@5@j#k#U.l#m#:+$.) g. .| [ r.z@n#6+a.X f.l.& & h o#p#y K K y ).( M.{ ",
"D n n | _ +.T J q#r#k+1 u._.4 , 2 [ n | {.$+U.U.U.U.U.s#t#5@u#v#U.U.U.U.l#w#= & D D 4 M.2 : ....: 1 - - % h X J K K y a @.a@B.% ",
"/ {.E.{ _.....x#y#z#P < < 1 & G.W % & | | D.A#U.U.U.U.U.U.B#C#U.U.U.U.U.U.` B w % & & l.& 1  .{.1 < - & % 5 D#y K K J r.E#F#` n ",
" .1 7.3 ^ k+g.C.G.P = < - & & & & = * & 1 & w@@ @ U.U.U.U.U.U.U.U.U.@ @ U.U.G#= * * = < & < & < - - < W W = H#J y a J r., ! k+..",
"n 4 & % 7.I.B P s+q.X.& - u.B.2 o I#R B.$ J#K#@ U.U.U.U.U.U.@ @ @ @ @ @ @ @ @ L#M#m.w $.< < < - - & 1 /.D P C N#S@T O#=#2 ]+D u ",
"_ : < & & & : [ } | | 1 < & 2 3 # 4 $ , , = 5 @ 6 7 @ @ @ 8 9 0   . + @ @ @ @ @ @ # $ % & * = - & ; > , ' ) ! ~ { ] , ^ / > ] ( ",
"t u v % w ' [ x y z A i 4 < 1 & & & < B C [ D > g E 8 F G H I J a b c d e @ @ @ f = g 4 h i < j k , | l & & m n ! ~ o k p q r s ",
"Z : ` < 1  ...+.T @.#.[ $.B [ n , V [ [ 2 | [ & R %.&.*.( K y K K a y L M N @ O P n n Q > R < S b T T U ] : < V W [ X U r y y Y ",
"~.k ' 5 & {. .].x ^.J u 2 R /.1  ., [ (._.i > (.:.<.[.}.=.K K K K K K K =.-.o ;.>.,.: '.'...| ).!.[ | l  .; & & { > D x J ).y y ",
"J 6.R < < < & > | 2 ] _ | * P & C 7.{ _.1 < 8.^ 9.0.K a K K K K K K K K K L a |.1.2.3.` 4.[ n | 2 _.D 4 4 < - < & & C +.5.+.y a ",
"i.; W ` % j.B 2 < > !., k.2.3 % & & 1 l.m.m.n.o.b a K K K K K K K K K K K y a.b.c.d.e.V | V  .W & f.& < 5 % - - - W g.(.| +.h.r ",
"s. .R t.% # / 1 < > > ' 2 : q.% < & % R u.o v.w.J a K y y y y K K K K K K a y p.B q.< R & & 1 = = = P = = & & < 1 - 1 | | { r.U ",
"7.D./ E.2 ) F.R < % & % < / ! G.4 H.I.t.J.K.L.M.5.y a ).N.O.P.K K K K K K K K y x.y.z.t.A.B < q.u.q.j.B.1 & C.& i $.% V g.w ] w.",
"| i = $.v < 2 # = ` % $ i = A | , = T.U.V.W.X.[ x Y.x , B Z.y K K K K a J a K a y Q.R.S.2 q.R 1 # 2 < < & > , 1 % F.` % & {.{ | ",
"D & q.W | C & % = 5 #+q.= q.i (.| ..$+U.U.V.%+B g A.g.# &+*+a K K K K y `. +p.y y a }..+++@+1 < < & - & & w [ ..w & ` 2 h [ 1 , ",
"k.4 ` ~ n | ' < & < w < & % 1 , ] | ;+>+,+'+)+n n !+g.l ~+J a a y a K y 5.[ r.=+5.@.@.n n -+5 A.& < < W ; , | n , 1 F.= 3 - 4 _.",
"% 3 :+M.<+{ k.4 < & n % D ' ..| [+_ J }+A.o |+_ r.1+2+a a _ p.L | J K y {+]+{ x ^+x `.C.n /./+(+_+2 2 C | _. .D W & 2 ` / q.= ; ",
"P A.% [ ] `.] _.& < 1 & k.2 |  .6+7+8+w [ 7.r 9+0+a a y {+J {+a+3+J K y y r.t.4+B v [ G./ / 5 5+] | [ n n _.4 ..& - & % < % F.P ",
"P & : ] 9+@.r |+% % & < & < { 1 { R k+X.1 l+J h.y K K t m+n+q.2 b+J K K J #.c+d+= / B.e+f+g+h+i+ +j+] [ [ (.{.& < < < % /.% > P ",
"u.{ C +.t+w.w.] ~ ` & & < R 1 < * u+# / g.+.y y a K K v+w+# g.s. +y K K a  +9+r ]  .| o+A.p+0+q+x s M.% [ 4 ` r+& = s+& C { f.& ",
"C.| | +.).).G+H+> !.= B+q.4 4 #+I+J+K+L+M+J h.a ( y y U N+O+6+y U ( ( K a @.x+r ] `.y+z+/ (.$.A+B+C+(.& > / D+R E+q.F+% W ' [ G.",
"k+n : ] | _.r.: < & q.P V+W+X+Y+g.Z+`+ @.@] r 5.J  ++@=.y  +0+y a r r y J r.r J 5.+.y P+Q+{.R+..H.A.& & & E.S+T+>.U+P ` < & /.4 ",
"& > 4 v D.' g ,  .1 F.)@!@~@{@d+]@y ;+< H+x+^@/@(@_@:@<@L y y y [+q @@^+@.6+#@X x+x $@i.#+w I.)+)+m.4 %@&@*@=@-@;@>@,@'@/ % & % ",
"& & & 2 V V V w _./.# 8@9@q.0@i+a r , B.h c+B B a@_@e.k.P+K K y J [@t.}@y v+e.|@| [ f+1@B.{.M.P # ]+2@U.U.3@-@-@4@5@6@7@4 5 % 5 ",
"v@4 L+< % & % < k.w w@x@y@k+ .z@A@a@/./ { P B@C@r  +D@E@F@@.a y b@c@d@e@U  +f@= 5 :+> B E.g@h@i@< j@k@U.l@m@n@o@p@5@6@q@r@s@t@u@",
"6@O@P@u.Q@1 A.4 u./ F.R@U.F.% q.C G.P {++.]  +a a a J 3+C.+.y  +, A.a@J y y +.| ' & & & ..5.@.r.] | W G@H@I@J@K@K@5@6@5@5@L@M@N@",
"6@5@6@X@5 Y@8.5 F.5 5 V.U.Z@B.)+< B b.=+@.x+y J a y T `@<  #U .#] q._@a K y x+Q.M.C.k+2 ^.=+y h.S@| [ T@7.h U@V@W@5@6@5@5@6@M@6@",
"6@5@5@M@6@5@6@6@6@K@@###$#r+& & _.2 r y a a J T y y T U , t.~ B.B.,  +K K a J r._ ] | n | +.y +#_.w | | | T@V H.w@5@6@5@5@6@M@6@",
"6@5@5@6@6@5@6@6@6@5@-#;#(.n & >#[ ,#b '#y J T )#r.J J  +!#_./ W %#y ( K K K y t+&#*#n a.9+b y i.=#4.(.w G.< k+>+5@N@5@5@5@6@M@6@",
"5@5@5@6@6@K@5@6@5@7@= & D | | +.y a ]#/#@.T +.] r a K y J r.| ] r a y K K K a y ~#{#h@y T J y y ]#^#= & _.1 & = # 5@K@5@5@6@M@6@",
"5@5@5@5@6@6@K@$ f+= [ X a.[+S@@.@.| Y.4 [#_.k }#y K K y S@9+_ ] !#j+J a J a K y (#_#:#| L U Q.y S@<#B.2 1 s+f+I.` m m 5@5@6@6@6@",
"5@7#m 5@8#9## 0#| | r.J a a a  +r 0@_.4 { A.X r  +K K a a r ] ] r.@.`.@.`.J K a |#1#: ..2#U 9+J a r , ` < < F.3#4#5#6#m 5@6@6@5@",
"k#U.l#m#:+$.) g. .| [ r.z@n#6+a.X f.l.& & h o#p#y K K y ).( M.{ a#b#r.!#9+=+J _@c#d#G./ _.e#l !#a@a.f#l.h I.j.g#U.U.h#i#5@6@5@j#",
"U.U.U.U.l#w#= & D D 4 M.2 : ....: 1 - - % h X J K K y a @.a@B.% D n n | _ +.T J q#r#k+1 u._.4 , 2 [ n | {.$+U.U.U.U.U.s#t#5@u#v#",
"U.U.U.U.U.` B w % & & l.& 1  .{.1 < - & % 5 D#y K K J r.E#F#` n / {.E.{ _.....x#y#z#P < < 1 & G.W % & | | D.A#U.U.U.U.U.U.B#C#U.",
"U.U.@ @ U.U.G#= * * = < & < & < - - < W W = H#J y a J r., ! k+.. .1 7.3 ^ k+g.C.G.P = < - & & & & = * & 1 & w@@ @ U.U.U.U.U.U.U.",
"@ @ @ @ @ @ @ L#M#m.w $.< < < - - & 1 /.D P C N#S@T O#=#2 ]+D u n 4 & % 7.I.B P s+q.X.& - u.B.2 o I#R B.$ J#K#@ U.U.U.U.U.U.@ @ "};
