/* XPM */
static char * coin_asset_xpm[] = {
"24 24 202 2",
"  	c None",
". 	c #965638",
"+ 	c #985838",
"@ 	c #975637",
"# 	c #954F33",
"$ 	c #954F34",
"% 	c #955037",
"& 	c #A66339",
"* 	c #B8723B",
"= 	c #BA743B",
"- 	c #A16039",
"; 	c #A47349",
"> 	c #C4AD6F",
", 	c #C3AD67",
"' 	c #C0AB48",
") 	c #B39639",
"! 	c #AB683A",
"~ 	c #D88C3E",
"{ 	c #E3943F",
"] 	c #AF6D3C",
"^ 	c #B5945E",
"/ 	c #F7F69F",
"( 	c #F6F593",
"_ 	c #F0F35C",
": 	c #C5B33A",
"< 	c #9C6338",
"[ 	c #995A38",
"} 	c #9B5B38",
"| 	c #BD763B",
"1 	c #D3883D",
"2 	c #AF6C3B",
"3 	c #DFD186",
"4 	c #F0EC98",
"5 	c #FEFFA4",
"6 	c #FEFFA1",
"7 	c #FCFE99",
"8 	c #EDED6E",
"9 	c #E2E043",
"0 	c #D6CE3D",
"a 	c #C1793C",
"b 	c #DD8F3F",
"c 	c #985A39",
"d 	c #EBE594",
"e 	c #FDFEA3",
"f 	c #FEFFA5",
"g 	c #F7FB78",
"h 	c #F2F745",
"i 	c #E1E03E",
"j 	c #975738",
"k 	c #9A5A38",
"l 	c #DE903E",
"m 	c #AA6538",
"n 	c #965537",
"o 	c #EBE694",
"p 	c #FEFEA4",
"q 	c #FEFFA6",
"r 	c #F2F844",
"s 	c #E8EA3D",
"t 	c #C5B33B",
"u 	c #B3963A",
"v 	c #AA673A",
"w 	c #AC693A",
"x 	c #C27A3B",
"y 	c #D68F44",
"z 	c #BA8D55",
"A 	c #B28E5B",
"B 	c #EFEB97",
"C 	c #FDFEA1",
"D 	c #FCFE97",
"E 	c #FCFE9A",
"F 	c #FEFFA3",
"G 	c #F9FC82",
"H 	c #F5FA61",
"I 	c #F4FA58",
"J 	c #EEF240",
"K 	c #BFAA3B",
"L 	c #955038",
"M 	c #995938",
"N 	c #D1863D",
"O 	c #DA8E3E",
"P 	c #C87E3A",
"Q 	c #B98D55",
"R 	c #E3D88B",
"S 	c #EFEA97",
"T 	c #FAFAA1",
"U 	c #F4F95D",
"V 	c #F6FA70",
"W 	c #FDFE9D",
"X 	c #FAFC89",
"Y 	c #EDF040",
"Z 	c #BEA93B",
"` 	c #D98D3E",
" .	c #E69740",
"..	c #CA7F3A",
"+.	c #AF8C5A",
"@.	c #FFFFA5",
"#.	c #FBFD94",
"$.	c #F2F83E",
"%.	c #EDF042",
"&.	c #D98C3E",
"*.	c #E69640",
"=.	c #C97E3A",
"-.	c #EFEA96",
";.	c #FFFFA4",
">.	c #F7FB77",
",.	c #F6FB71",
"'.	c #FEFFA2",
").	c #EBEE81",
"!.	c #DDE15D",
"~.	c #E3E86B",
"{.	c #F5F58F",
"].	c #C3AD66",
"^.	c #C97E3B",
"/.	c #AE8C53",
"(.	c #EDE989",
"_.	c #FCFE94",
":.	c #EFF35B",
"<.	c #EFF462",
"[.	c #FCFDA1",
"}.	c #F7F998",
"|.	c #E0E468",
"1.	c #D1D731",
"2.	c #DCE05A",
"3.	c #F7F69E",
"4.	c #C4AD6E",
"5.	c #CA7F3C",
"6.	c #AB893A",
"7.	c #E5E640",
"8.	c #F3FA41",
"9.	c #D8DE30",
"0.	c #DBE05A",
"a.	c #F6F797",
"b.	c #D9DE54",
"c.	c #CED423",
"d.	c #CFD528",
"e.	c #F8F69F",
"f.	c #C5AE6F",
"g.	c #C87E3C",
"h.	c #B68A3B",
"i.	c #DBD43D",
"j.	c #E5E53E",
"k.	c #DADE33",
"l.	c #E0E456",
"m.	c #FCFE98",
"n.	c #F4F68A",
"o.	c #D8DD4D",
"p.	c #D2D827",
"q.	c #D6DC2E",
"r.	c #DFE156",
"s.	c #F4E792",
"t.	c #C3A567",
"u.	c #955034",
"v.	c #C27A3C",
"w.	c #D58F3E",
"x.	c #B88B3B",
"y.	c #AE8B3A",
"z.	c #E0E13C",
"A.	c #EEF446",
"B.	c #F5F95E",
"C.	c #EEF356",
"D.	c #D5DB2F",
"E.	c #DFE630",
"F.	c #EBF33C",
"G.	c #EDE746",
"H.	c #E8AE5C",
"I.	c #BC8248",
"J.	c #DE903F",
"K.	c #AA663A",
"L.	c #965538",
"M.	c #DDB73E",
"N.	c #EDD540",
"O.	c #F2F83D",
"P.	c #F1F650",
"Q.	c #ECF179",
"R.	c #ECDA63",
"S.	c #ECCA43",
"T.	c #E3BA3F",
"U.	c #BF773A",
"V.	c #B06B39",
"W.	c #D9903E",
"X.	c #EAB640",
"Y.	c #F2F73E",
"Z.	c #FBFE97",
"`.	c #F1CE78",
" +	c #E89F45",
".+	c #9C5B38",
"++	c #B8733B",
"@+	c #AF6B3A",
"#+	c #D0863D",
"$+	c #DEA73E",
"%+	c #F0E63E",
"&+	c #F2E858",
"*+	c #F8ED8B",
"=+	c #E8BE6F",
"-+	c #DA9043",
";+	c #CF843D",
">+	c #AE6A3A",
",+	c #AE6B3A",
"'+	c #E39440",
")+	c #E59641",
"!+	c #BF793C",
"~+	c #B06C3A",
"                                                ",
"                                                ",
"                  . . + @ # $ %                 ",
"                & * = - ; > , ' )               ",
"                ! ~ { ] ^ / ( _ : < [           ",
"          + } | 1 * 2 3 4 5 6 7 8 9 0 [         ",
"          + } a b ! c d e 5 5 f g h i <         ",
"          j k a l m n o p f f q g r s t u       ",
"          v w x y z A B C D E F G H I J K L     ",
"        M N O P Q R S T D U V E W D X Y Z L     ",
"        M `  ...+.S @.5 #.$.U D f 5 #.%.Z L     ",
"        M &.*.=.+.-.;.>.,.#.D '.).!.~.{.].$     ",
"        M &.*.^./.(._.:.<.5 [.}.|.1.2.3.4.#     ",
"        M `  .5.6.7.8.9.0.@.a.b.c.d.0.e.f.#     ",
"        M N O g.h.i.j.k.l.m.n.o.p.q.r.s.t.u.    ",
"          v w v.w.x.y.z.A.B.C.D.E.F.G.H.I.n     ",
"          j k a J.K.L.M.N.O.P.Q.R.S.T.U.V.      ",
"          + } a b ! + W.X.Y.U Z.`. +W..+        ",
"          + } | 1 ++@+#+$+%+&+*+=+-+;+M         ",
"                ! ~ { >+,+{ '+)+!+.+M           ",
"                & * = - - = = = ~+              ",
"                  . . + + . . .                 ",
"                                                ",
"                                                "};
