/* XPM */
static char * heart_background_xpm[] = {
"60 21 2 1",
" 	c #FFFFFF",
".	c #2B2B2B",
"                                                            ",
" .......................................................... ",
" .......................................................... ",
" .......................................................... ",
" .......................................................... ",
" .......................................................... ",
" .......................................................... ",
" .......................................................... ",
" .......................................................... ",
" .......................................................... ",
" .......................................................... ",
" .......................................................... ",
" .......................................................... ",
" .......................................................... ",
" .......................................................... ",
" .......................................................... ",
" .......................................................... ",
" .......................................................... ",
" .......................................................... ",
" .......................................................... ",
"                                                            "};
