/* XPM */
static char * heart_xpm[] = {
"64 59 6 1",
" 	c None",
".	c #FFFFFF",
"+	c #4E001D",
"@	c #B6341E",
"#	c #DF6945",
"$	c #841B0A",
"              .............          .............              ",
"              .............          .............              ",
"              .............          .............              ",
"              .............          .............              ",
"              .............          .............              ",
"         .....+++++++++++++..........+++++++++++++.....         ",
"         .....+++++++++++++..........+++++++++++++.....         ",
"         .....+++++++++++++..........+++++++++++++.....         ",
"         .....+++++++++++++..........+++++++++++++.....         ",
"     ....+++++@@@@@@@@@@@@@++++++++++@@@@@@@@@@@@@+++++....     ",
"     ....+++++@@@@@@@@@@@@@++++++++++@@@@@@@@@@@@@+++++....     ",
"     ....+++++@@@@@@@@@@@@@++++++++++@@@@@@@@@@@@@+++++....     ",
"     ....+++++@@@@@@@@@@@@@++++++++++@@@@@@@@@@@@@+++++....     ",
"     ....+++++@@@@@@@@@@@@@++++++++++@@@@@@@@@@@@@+++++....     ",
".....++++@@@@@#########@@@@@@@@@@@@@@@@@@@@@@@$$$$@@@@@++++.....",
".....++++@@@@@#########@@@@@@@@@@@@@@@@@@@@@@@$$$$@@@@@++++.....",
".....++++@@@@@#########@@@@@@@@@@@@@@@@@@@@@@@$$$$@@@@@++++.....",
".....++++@@@@@#########@@@@@@@@@@@@@@@@@@@@@@@$$$$@@@@@++++.....",
".....++++@@@@@####@@@@@@@@@@@@@@@@@@@@@@@@@@@@$$$$@@@@@++++.....",
".....++++@@@@@####@@@@@@@@@@@@@@@@@@@@@@@@@@@@$$$$@@@@@++++.....",
".....++++@@@@@####@@@@@@@@@@@@@@@@@@@@@@@@@@@@$$$$@@@@@++++.....",
".....++++@@@@@####@@@@@@@@@@@@@@@@@@@@@@@@@@@@$$$$@@@@@++++.....",
".....++++@@@@@####@@@@@@@@@@@@@@@@@@@@@@@@@@@@$$$$@@@@@++++.....",
".....++++@@@@@@@@@@@@@@@@@@@@@@@@@@@@@@@@$$$$$$$$$@@@@@++++.....",
".....++++@@@@@@@@@@@@@@@@@@@@@@@@@@@@@@@@$$$$$$$$$@@@@@++++.....",
".....++++@@@@@@@@@@@@@@@@@@@@@@@@@@@@@@@@$$$$$$$$$@@@@@++++.....",
".....++++@@@@@@@@@@@@@@@@@@@@@@@@@@@@@@@@$$$$$$$$$@@@@@++++.....",
"     ....+++++@@@@@@@@@@@@@@@@@@@@@@@$$$$$$$$$@@@@+++++....     ",
"     ....+++++@@@@@@@@@@@@@@@@@@@@@@@$$$$$$$$$@@@@+++++....     ",
"     ....+++++@@@@@@@@@@@@@@@@@@@@@@@$$$$$$$$$@@@@+++++....     ",
"     ....+++++@@@@@@@@@@@@@@@@@@@@@@@$$$$$$$$$@@@@+++++....     ",
"     ....+++++@@@@@@@@@@@@@@@@@@@@@@@$$$$$$$$$@@@@+++++....     ",
"     ....+++++@@@@$$$$$@@@@@@@@@$$$$$$$$$$$$$$@@@@+++++....     ",
"     ....+++++@@@@$$$$$@@@@@@@@@$$$$$$$$$$$$$$@@@@+++++....     ",
"     ....+++++@@@@$$$$$@@@@@@@@@$$$$$$$$$$$$$$@@@@+++++....     ",
"     ....+++++@@@@$$$$$@@@@@@@@@$$$$$$$$$$$$$$@@@@+++++....     ",
"         .....++++@@@@@$$$$$$$$$$$$$$$$$$@@@@@++++.....         ",
"         .....++++@@@@@$$$$$$$$$$$$$$$$$$@@@@@++++.....         ",
"         .....++++@@@@@$$$$$$$$$$$$$$$$$$@@@@@++++.....         ",
"         .....++++@@@@@$$$$$$$$$$$$$$$$$$@@@@@++++.....         ",
"         .....++++@@@@@$$$$$$$$$$$$$$$$$$@@@@@++++.....         ",
"              ....+++++@@@@$$$$$$$$$$@@@@+++++....              ",
"              ....+++++@@@@$$$$$$$$$$@@@@+++++....              ",
"              ....+++++@@@@$$$$$$$$$$@@@@+++++....              ",
"              ....+++++@@@@$$$$$$$$$$@@@@+++++....              ",
"                  .....++++@@@@@@@@@@++++.....                  ",
"                  .....++++@@@@@@@@@@++++.....                  ",
"                  .....++++@@@@@@@@@@++++.....                  ",
"                  .....++++@@@@@@@@@@++++.....                  ",
"                  .....++++@@@@@@@@@@++++.....                  ",
"                       ....++++++++++....                       ",
"                       ....++++++++++....                       ",
"                       ....++++++++++....                       ",
"                       ....++++++++++....                       ",
"                           ..........                           ",
"                           ..........                           ",
"                           ..........                           ",
"                           ..........                           ",
"                           ..........                           "};
