/* XPM */
static char * bush_xpm[] = {
"64 64 23 1",
" 	c #2F8136",
".	c #499231",
"+	c #0098B2",
"@	c #FF5442",
"#	c #D9B75C",
"$	c #61A0EF",
"%	c #006B46",
"&	c #695B95",
"*	c #041E01",
"=	c #12440D",
"-	c #356628",
";	c #518A40",
">	c #0A3106",
",	c #156C99",
"'	c #81A100",
")	c #3E6D32",
"!	c #20523D",
"~	c #306134",
"{	c #207286",
"]	c #A2884B",
"^	c #4D78B3",
"/	c #255274",
"(	c #192219",
"                                                                ",
"              ..    ...      .                ..    ...      .  ",
"  ..       .+        .  @    .    ..       .+        .       .  ",
"           +#+   .    @@@   ..    $        +#+   .          ..  ",
"      .    %+  ...    .@#@@      $#$  .    %+  ...    .         ",
"     .. .. %.    ...   @@@   ..  $#$ .. .. %.    ...         .. ",
"     .. $..   ..  .    %@    ..  %$$ .. $..   ..  .          .. ",
"     ..$#$.  ..          .       %   ..$#$.  ..          .      ",
"        $%   .  $$  ..  .. .&           $%   .  $$  ..  .. .    ",
"               $#$**********#&                 $#$   .  ..      ",
"   .           $$.**********&      .           $$.      .       ",
"   .&& ....     **====----;;****** .&& ....     %.    @@        ",
"    &#&..       **====----;;******  &#&..             @#@       ",
"    &#&   ... .   **>>======-->>>>**&#&   ... .       .@@  .    ",
"..  %&&   ..  ..  **>>======-->>>>**%&&   ..  ..  .   .%   ..  .",
".. ..          .+.. **==>>====>>>>**.          .+..         . ..",
" ...     $$ .. +++. **==>>====>>>>**     $$ .. +++.       ..  . ",
" .. .    $#$ .++#+, ****>>====-->>**. ************,      $$..   ",
"   ..   .%$$   ++,  ****>>====-->>**. ************    ..$#$     ",
"   .        **************==>>==>>******--------;;** .  $$%     ",
"    .      .**************==>>==>>******--------;;**            ",
"    . . ****--;;--==----;;****==>>****--==========;;**    ..    ",
"      ..****--;;--==----;;****==>>****--==========;;** .        ",
"      **----======>>======;;********>>==>>>>>>>>>>==--**.  .  . ",
"   '' **----======>>======;;********>>==>>>>>>>>>>==--**. .. .. ",
"   '**--======>>==>>====>>----**==****>>**********>>====**&  .  ",
"   %**--======>>==>>====>>----**==****>>**********>>====**#&    ",
"    **==>>====>>==>>********>>**--==********************)!&&  . ",
" .. **==>>====>>==>>********>>**--==********************)~    . ",
" .. ********>>>>****>>----==**>>==>>**>>-->>********{]{~~~ .. . ",
"    ********>>>>****>>----==**>>==>>**>>-->>********!{{~~~ .    ",
"    **~~********>>----==>>******>>**>>>>==--;;>>**~~~~~~        ",
"    **~~********>>----==>>******>>**>>>>==--;;>>**~~~~~~        ",
"      ~~~~****==--==>>>>****-->>****====>>--==;;>>**...      .  ",
"  ..  ~~~~****==--==>>>>****-->>****====>>--==;;>>** .  @    .  ",
"  $   ~~~~~{**--======****>>==;;**====>>--==>>==-->>**@@@   ..  ",
" $#$  )~~~~!**--======****>>==;;**====>>--==>>==-->>**.@#@@     ",
" $#$ .. .. %**====>>==**======;;******====>>>>>>--;;** @@@   .. ",
" %$$ .. $.. **====>>==**======;;******====>>>>>>--;;** %@    .. ",
" %   ..$#$**--====>>>>**==>>>>--******==**>>==-->>==**   .      ",
"        $%**--====>>>>**==>>>>--******==**>>==-->>==**  .. .&   ",
"          **==>>==>>****>>======>>********======>>==--**.. &#&  ",
"   .      **==>>==>>****>>======>>********======>>==--**.  %&   ",
"   .&& ...**==**********====>>;;>>********====****==--**        ",
"    &#&.. **==**********====>>;;>>********====****==--**@       ",
"    &#&   ..**)~~~~~****>>>>==-->>>>**********====**==>>@  .    ",
"..  %&&   ..**))~~)~****>>>>==-->>>>**********====**==>>   ..  .",
".. ..          .{))~~~~~**======>>>>**~~~~~~********====    . ..",
" ...     $$ .. +{{)~~~~~**======>>>>**~~~^^~********====  ..  . ",
" .. .    $#$ .++#+, ~~~~**>>==-->>**)~~~~^]^~){{]{****** $$..   ",
"   ..   .%$$   ++,  ~~))**>>==-->>**)~~~)!^^~~~{{/******$#$     ",
"   .            ,    .~~^^**--==**~)~~~~~~  ~~~~/~~~~)**$$%     ",
"    .      .          ~~~~**--==**~~)~~~~~ .~~~~~~~~~~**        ",
"    . .   .. &    . $   ~~))--**~~~~)~.   .. &    . $     ..    ",
"      ... ..&#&  ..$#$ .~~~~--**~~~~~~... ..&#&  ..$#$ .        ",
"       .. .  &%     $  .. ~)(()~~~     .. .  &%     $  ..  .  . ",
"          @   ..       .. ))(()~~~ ''     @   ..       .. .. .. ",
"        .@#@             && ~)~~   '#'  .@#@                 .  ",
"      ...%@   .    ..  ..&#&~~~~   %''...%@   .    ..  ..       ",
"             ..    .  ...%&&  .              ..    .  ...     . ",
" ..  .   ..  .      ++  .     .  ..  .   ..  .      ++  .     . ",
" ..  ..         ..  +#+    .. .  ..  ..         ..  +#+    .. . ",
"      .         .   %++    .          .         .   %++    .    ",
"                                                                "};
