/* XPM */
static char * coin_4_xpm[] = {
"64 64 6 1",
" 	c None",
".	c #985838",
"+	c #FEFFA4",
"@	c #E89840",
"#	c #CFD526",
"$	c #F2F840",
"                                                                ",
"                                                                ",
"                                                                ",
"                                                                ",
"                                                                ",
"                         ...................                    ",
"                         ...................                    ",
"                         ...................                    ",
"                         ...................                    ",
"                         ...................                    ",
"                    .....+++++++++.....@@@@@.....               ",
"                    .....+++++++++.....@@@@@.....               ",
"                    .....+++++++++.....@@@@@.....               ",
"                    .....+++++++++.....@@@@@.....               ",
"                    .....+++++++++.....@@@@@.....               ",
"               .....++++++++++####$$$$$.....@@@@@.....          ",
"               .....++++++++++####$$$$$.....@@@@@.....          ",
"               .....++++++++++####$$$$$.....@@@@@.....          ",
"               .....++++++++++####$$$$$.....@@@@@.....          ",
"               .....++++++++++####$$$$$.....@@@@@.....          ",
"          .....+++++++++++++++####$$$$$.....@@@@@.....          ",
"          .....+++++++++++++++####$$$$$.....@@@@@.....          ",
"          .....+++++++++++++++####$$$$$.....@@@@@.....          ",
"          .....+++++++++++++++####$$$$$.....@@@@@.....          ",
"          .....+++++++++++++++####$$$$$.....@@@@@.....          ",
"          .....+++++++++++++++$$$$+++++$$$$$.....@@@@@.....     ",
"          .....+++++++++++++++$$$$+++++$$$$$.....@@@@@.....     ",
"          .....+++++++++++++++$$$$+++++$$$$$.....@@@@@.....     ",
"          .....+++++++++++++++$$$$+++++$$$$$.....@@@@@.....     ",
"          .....+++++++++++++++$$$$+++++$$$$$.....@@@@@.....     ",
"          .....+++++$$$$$+++++$$$$$$$$$#####.....@@@@@.....     ",
"          .....+++++$$$$$+++++$$$$$$$$$#####.....@@@@@.....     ",
"          .....+++++$$$$$+++++$$$$$$$$$#####.....@@@@@.....     ",
"          .....+++++$$$$$+++++$$$$$$$$$#####.....@@@@@.....     ",
"          .....+++++#####$$$$$#########$$$$$.....@@@@@.....     ",
"          .....+++++#####$$$$$#########$$$$$.....@@@@@.....     ",
"          .....+++++#####$$$$$#########$$$$$.....@@@@@.....     ",
"          .....+++++#####$$$$$#########$$$$$.....@@@@@.....     ",
"          .....+++++#####$$$$$#########$$$$$.....@@@@@.....     ",
"          .....@@@@@$$$$$#####++++$$$$$.....@@@@@.....          ",
"          .....@@@@@$$$$$#####++++$$$$$.....@@@@@.....          ",
"          .....@@@@@$$$$$#####++++$$$$$.....@@@@@.....          ",
"          .....@@@@@$$$$$#####++++$$$$$.....@@@@@.....          ",
"          .....@@@@@$$$$$#####++++$$$$$.....@@@@@.....          ",
"               .....@@@@@+++++$$$$@@@@@.....@@@@@.....          ",
"               .....@@@@@+++++$$$$@@@@@.....@@@@@.....          ",
"               .....@@@@@+++++$$$$@@@@@.....@@@@@.....          ",
"               .....@@@@@+++++$$$$@@@@@.....@@@@@.....          ",
"               .....@@@@@+++++$$$$@@@@@.....@@@@@.....          ",
"                    .....@@@@@@@@@.....@@@@@.....               ",
"                    .....@@@@@@@@@.....@@@@@.....               ",
"                    .....@@@@@@@@@.....@@@@@.....               ",
"                    .....@@@@@@@@@.....@@@@@.....               ",
"                    .....@@@@@@@@@.....@@@@@.....               ",
"                         ...................                    ",
"                         ...................                    ",
"                         ...................                    ",
"                         ...................                    ",
"                         ...................                    ",
"                                                                ",
"                                                                ",
"                                                                ",
"                                                                ",
"                                                                "};
