/* XPM */
static char * coin_2_xpm[] = {
"64 64 6 1",
" 	c None",
".	c #985838",
"+	c #E89840",
"@	c #FEFFA4",
"#	c #F2F840",
"$	c #CFD526",
"                                                                ",
"                                                                ",
"                                                                ",
"                                                                ",
"                                                                ",
"                         ...................                    ",
"                         ...................                    ",
"                         ...................                    ",
"                         ...................                    ",
"                         ...................                    ",
"                    .....+++++....@@@@@#####.....               ",
"                    .....+++++....@@@@@#####.....               ",
"                    .....+++++....@@@@@#####.....               ",
"                    .....+++++....@@@@@#####.....               ",
"                    .....+++++....@@@@@#####.....               ",
"               .....+++++.....@@@@@@@@@@@@@@#####.....          ",
"               .....+++++.....@@@@@@@@@@@@@@#####.....          ",
"               .....+++++.....@@@@@@@@@@@@@@#####.....          ",
"               .....+++++.....@@@@@@@@@@@@@@#####.....          ",
"               .....+++++.....@@@@@@@@@@@@@@#####.....          ",
"               .....+++++.....@@@@@@@@@@@@@@##########.....     ",
"               .....+++++.....@@@@@@@@@@@@@@##########.....     ",
"               .....+++++.....@@@@@@@@@@@@@@##########.....     ",
"               .....+++++.....@@@@@@@@@@@@@@##########.....     ",
"               .....+++++.....@@@@@@@@@@@@@@##########.....     ",
"          .....+++++.....@@@@@@@@@#####@@@@@@@@@@#####.....     ",
"          .....+++++.....@@@@@@@@@#####@@@@@@@@@@#####.....     ",
"          .....+++++.....@@@@@@@@@#####@@@@@@@@@@#####.....     ",
"          .....+++++.....@@@@@@@@@#####@@@@@@@@@@#####.....     ",
"          .....+++++.....@@@@@@@@@#####@@@@@@@@@@#####.....     ",
"          .....+++++.....@@@@@####@@@@@@@@@@$$$$$@@@@@.....     ",
"          .....+++++.....@@@@@####@@@@@@@@@@$$$$$@@@@@.....     ",
"          .....+++++.....@@@@@####@@@@@@@@@@$$$$$@@@@@.....     ",
"          .....+++++.....@@@@@####@@@@@@@@@@$$$$$@@@@@.....     ",
"          .....+++++.....#####$$$$@@@@@$$$$$$$$$$@@@@@.....     ",
"          .....+++++.....#####$$$$@@@@@$$$$$$$$$$@@@@@.....     ",
"          .....+++++.....#####$$$$@@@@@$$$$$$$$$$@@@@@.....     ",
"          .....+++++.....#####$$$$@@@@@$$$$$$$$$$@@@@@.....     ",
"          .....+++++.....#####$$$$@@@@@$$$$$$$$$$@@@@@.....     ",
"               .....+++++.....#########$$$$$#####+++++.....     ",
"               .....+++++.....#########$$$$$#####+++++.....     ",
"               .....+++++.....#########$$$$$#####+++++.....     ",
"               .....+++++.....#########$$$$$#####+++++.....     ",
"               .....+++++.....#########$$$$$#####+++++.....     ",
"               .....+++++.....++++#####@@@@@+++++.....          ",
"               .....+++++.....++++#####@@@@@+++++.....          ",
"               .....+++++.....++++#####@@@@@+++++.....          ",
"               .....+++++.....++++#####@@@@@+++++.....          ",
"               .....+++++.....++++#####@@@@@+++++.....          ",
"                    .....+++++....++++++++++.....               ",
"                    .....+++++....++++++++++.....               ",
"                    .....+++++....++++++++++.....               ",
"                    .....+++++....++++++++++.....               ",
"                    .....+++++....++++++++++.....               ",
"                         ...................                    ",
"                         ...................                    ",
"                         ...................                    ",
"                         ...................                    ",
"                         ...................                    ",
"                                                                ",
"                                                                ",
"                                                                ",
"                                                                ",
"                                                                "};
