/* XPM */
static char * coin_3_xpm[] = {
"64 64 6 1",
" 	c None",
".	c #985838",
"+	c #F2F840",
"@	c #CFD526",
"#	c #FEFFA4",
"$	c #E89840",
"                                                                ",
"                                                                ",
"                                                                ",
"                                                                ",
"                                                                ",
"                              ....                              ",
"                              ....                              ",
"                              ....                              ",
"                              ....                              ",
"                              ....                              ",
"                         .....++++.....                         ",
"                         .....++++.....                         ",
"                         .....++++.....                         ",
"                         .....++++.....                         ",
"                         .....++++.....                         ",
"                         .....@@@@.....                         ",
"                         .....@@@@.....                         ",
"                         .....@@@@.....                         ",
"                         .....@@@@.....                         ",
"                         .....@@@@.....                         ",
"                         .....@@@@.....                         ",
"                         .....@@@@.....                         ",
"                         .....@@@@.....                         ",
"                         .....@@@@.....                         ",
"                         .....@@@@.....                         ",
"                         .....@@@@.....                         ",
"                         .....@@@@.....                         ",
"                         .....@@@@.....                         ",
"                         .....@@@@.....                         ",
"                         .....@@@@.....                         ",
"                         .....@@@@.....                         ",
"                         .....@@@@.....                         ",
"                         .....@@@@.....                         ",
"                         .....@@@@.....                         ",
"                         .....@@@@.....                         ",
"                         .....@@@@.....                         ",
"                         .....@@@@.....                         ",
"                         .....@@@@.....                         ",
"                         .....@@@@.....                         ",
"                         .....####.....                         ",
"                         .....####.....                         ",
"                         .....####.....                         ",
"                         .....####.....                         ",
"                         .....####.....                         ",
"                         .....++++.....                         ",
"                         .....++++.....                         ",
"                         .....++++.....                         ",
"                         .....++++.....                         ",
"                         .....++++.....                         ",
"                         .....$$$$.....                         ",
"                         .....$$$$.....                         ",
"                         .....$$$$.....                         ",
"                         .....$$$$.....                         ",
"                         .....$$$$.....                         ",
"                              ....                              ",
"                              ....                              ",
"                              ....                              ",
"                              ....                              ",
"                              ....                              ",
"                                                                ",
"                                                                ",
"                                                                ",
"                                                                ",
"                                                                "};
