/* XPM */
static char * coin_1_xpm[] = {
"64 64 15 1",
" 	c #2F8136",
".	c #499231",
"+	c #0098B2",
"@	c #FF5442",
"#	c #D9B75C",
"$	c #61A0EF",
"%	c #006B46",
"&	c #695B95",
"*	c #156C99",
"=	c #81A100",
"-	c #985838",
";	c #FEFFA4",
">	c #F2F840",
",	c #CFD526",
"'	c #E89840",
"                                                                ",
"              ..    ...      .                ..    ...      .  ",
"  ..       .+        .  @    .    ..       .+        .       .  ",
"           +#+   .    @@@   ..    $        +#+   .          ..  ",
"      .    %+  ...    .@#@@      $#$  .    %+  ...    .         ",
"     .. .. %.    ...   @@@   ..  $#$ .. .. %.    ...         .. ",
"     .. $..   ..  .    %@    ..  %$$ .. $..   ..  .          .. ",
"     ..$#$.  ..          .       %   ..$#$.  ..          .      ",
"        $%   .  $$  ..  .. .&           $%   .  $$  ..  .. .    ",
"               $#$   .  .. &#&                 $#$   .  ..      ",
"   .           $$.      .  %&      .           $$.      .       ",
"   .&& ....     %.    @@           .&& ....     %.    @@        ",
"    &#&..             @#@           &#&..             @#@       ",
"    &#&   ... .       .@@  .        &#&   ... .       .@@  .    ",
"..  %&&   ..  ..  .   .%   ..  ...  %&&   ..  ..  .   .%   ..  .",
".. ..          .+..         . .... ..          .+..         . ..",
" ...     $$ .. +++.       ..  .  ...     $$ .. +++.       ..  . ",
" .. .    $#$ .++#+*      $$..    .. .    $#$ .++#+*      $$..   ",
"   ..   .%$$   ++*    ..$#$        ..   .%$$   ++*    ..$#$     ",
"   .            *    .  $$%        .            *    .  $$%     ",
"    .      .                        .      .                    ",
"    . .   .. &    . $     ..        . .   .. &    . $     ..    ",
"      ... ..&#&  ..$#$ .              ... ..&#&  ..$#$ .        ",
"       .. .  &%     $  ..  .  .        .. .  &%     $  ..  .  . ",
"   ==     @   ..       .. .. ..    ==     @   ..       .. .. .. ",
"   =#=  .@#@             &&  .     =#=  .@#@             &&  .  ",
"   %==...%@   .    ..  ..&#&       %==...%@   .    ..  ..&#&    ",
"             ..    .  ...--------------      ..    .  ...%&&  . ",
" ..  .   ..  .      ++  .--------------  ..  .      ++  .     . ",
" ..  ..         ..  +#+ -;;;;;;>>>>>>>>-        ..  +#+    .. . ",
"      .         .   %++ -;;;;;;>>>>>>>>-        .   %++    .    ",
"                .       -;;;;;;>>>>>>>>-        .               ",
"                     ---;>>>>>>,,;;;>>>>---                     ",
"              ..   --;;;>>>>>>>,,;;;>>>>>>>-- ..    ...      .  ",
"  ..       .+      --;;;>>>>>>>,,;;;>>>>>>>--        .  @    .  ",
"  $        +#+   . --;;;>>>>>>>,,;;;>>>>>>>--+   .    @@@   ..  ",
" $#$  .    %+  ... --;;;>,,,>>>,,;;;,,,;>>>--  ...    .@#@@     ",
" $#$ .. .. %.    ..--;;;>,,,>>>,,;;;,,,;>>>--    ...   @@@   .. ",
" %$$ .. $..   ..  .--;;;>,,,>>>,,;;;,,,;>>>-- ..  .    %@    .. ",
" %   ..$#$.  ..    -->>>,;;;>>>,,;;;>>>,;;;--..          .      ",
"        $%   .  $$ -->>>,;;;>>>,,;;;>>>,;;;--.  $$  ..  .. .&   ",
"               $#$ -->>>,;;;,,,,,,,,>>>,;;;--  $#$   .  .. &#&  ",
"   .           $$. -->>>,;;;,,,,,,,,>>>,;;;--  $$.      .  %&   ",
"   .&& ....     %. -->>>,;;;,,,,,,,,>>>,;;;--   %.    @@        ",
"    &#&..          --'''>>>>,,,;;,,,;;;>'''--         @#@       ",
"    &#&   ... .    --'''>>>>,,,;;,,,;;;>'''-- .       .@@  .    ",
"..  %&&   ..  ..  .--'''>>>>,,,;;,,,;;;>'''-- ..  .   .%   ..  .",
".. ..          .+..  ---'>>>;;;>>;;;>>>'---    .+..         . ..",
" ...     $$ .. +++.     -''''''''''''''- $$ .. +++.       ..  . ",
" .. .    $#$ .++#+*     -''''''''''''''- $#$ .++#+*      $$..   ",
"   ..   .%$$   ++*    ..-''''''''''''''-.%$$   ++*    ..$#$     ",
"   .            *    .  $--------------         *    .  $$%     ",
"    .      .             --------------    .                    ",
"    . .   .. &    . $     ..        . .   .. &    . $     ..    ",
"      ... ..&#&  ..$#$ .              ... ..&#&  ..$#$ .        ",
"       .. .  &%     $  ..  .  .        .. .  &%     $  ..  .  . ",
"          @   ..       .. .. ..    ==     @   ..       .. .. .. ",
"        .@#@             &&  .     =#=  .@#@                 .  ",
"      ...%@   .    ..  ..&#&       %==...%@   .    ..  ..       ",
"             ..    .  ...%&&  .              ..    .  ...     . ",
" ..  .   ..  .      ++  .     .  ..  .   ..  .      ++  .     . ",
" ..  ..         ..  +#+    .. .  ..  ..         ..  +#+    .. . ",
"      .         .   %++    .          .         .   %++    .    ",
"                .                               .               "};
