/* XPM */
static char * exit_xpm[] = {
"64 64 168 2",
"  	c #2F8136",
". 	c #B7996A",
"+ 	c #CFC587",
"@ 	c #499231",
"# 	c #0098B2",
"$ 	c #D9B75C",
"% 	c #006B46",
"& 	c #61A0EF",
"* 	c #573726",
"= 	c #695B95",
"- 	c #B78C41",
"; 	c #FF5442",
"> 	c #684415",
", 	c #C7B47A",
"' 	c #986A20",
") 	c #156C99",
"! 	c #81A100",
"~ 	c #2B1C1D",
"{ 	c #303A22",
"] 	c #573926",
"^ 	c #304825",
"/ 	c #303B22",
"( 	c #2C4524",
"_ 	c #2C3821",
": 	c #2C3E23",
"< 	c #2C4925",
"[ 	c #2B2B1F",
"} 	c #2C3A22",
"| 	c #2B3220",
"1 	c #2C4224",
"2 	c #2B2D1F",
"3 	c #2C3822",
"4 	c #344F23",
"5 	c #302D1F",
"6 	c #2C3F23",
"7 	c #314321",
"8 	c #553E27",
"9 	c #2C4725",
"0 	c #2C3721",
"a 	c #2C5127",
"b 	c #2E4E2D",
"c 	c #2C5027",
"d 	c #2C4B26",
"e 	c #2C4C26",
"f 	c #2B3320",
"g 	c #333B20",
"h 	c #573A26",
"i 	c #563B27",
"j 	c #303721",
"k 	c #303E22",
"l 	c #2C4424",
"m 	c #304223",
"n 	c #303C22",
"o 	c #563C27",
"p 	c #303521",
"q 	c #2C4E27",
"r 	c #363A21",
"s 	c #363720",
"t 	c #976B20",
"u 	c #3E2613",
"v 	c #363821",
"w 	c #354925",
"x 	c #2D5629",
"y 	c #364423",
"z 	c #385223",
"A 	c #946C22",
"B 	c #343D20",
"C 	c #344221",
"D 	c #355026",
"E 	c #2C4625",
"F 	c #2C3D23",
"G 	c #305227",
"H 	c #966C21",
"I 	c #573927",
"J 	c #544428",
"K 	c #303320",
"L 	c #2C4324",
"M 	c #304123",
"N 	c #304524",
"O 	c #304323",
"P 	c #344121",
"Q 	c #395924",
"R 	c #322F1E",
"S 	c #936C22",
"T 	c #304324",
"U 	c #32331F",
"V 	c #302F1F",
"W 	c #365524",
"X 	c #2B3521",
"Y 	c #2C5328",
"Z 	c #2D5729",
"` 	c #305829",
" .	c #305328",
"..	c #414923",
"+.	c #452F1D",
"@.	c #976A20",
"#.	c #62351C",
"$.	c #424623",
"%.	c #303220",
"&.	c #374D22",
"*.	c #324421",
"=.	c #375925",
"-.	c #365824",
";.	c #324622",
">.	c #2C4023",
",.	c #2C5228",
"'.	c #334222",
").	c #303420",
"!.	c #44391F",
"~.	c #433C20",
"{.	c #303D22",
"].	c #30281E",
"^.	c #304023",
"/.	c #414924",
"(.	c #414C24",
"_.	c #304624",
":.	c #2F3920",
"<.	c #314021",
"[.	c #2D4023",
"}.	c #352F1F",
"|.	c #35311F",
"1.	c #40321E",
"2.	c #412C1D",
"3.	c #4B331D",
"4.	c #53381E",
"5.	c #593D1E",
"6.	c #383E20",
"7.	c #344223",
"8.	c #2C3320",
"9.	c #2C3421",
"0.	c #303F20",
"a.	c #2C3C22",
"b.	c #334C22",
"c.	c #344E23",
"d.	c #2C3B22",
"e.	c #345023",
"f.	c #343520",
"g.	c #3F3C20",
"h.	c #423B1F",
"i.	c #4B351E",
"j.	c #30201D",
"k.	c #61371D",
"l.	c #41341E",
"m.	c #343620",
"n.	c #2C3621",
"o.	c #2C3922",
"p.	c #314421",
"q.	c #2C4D26",
"r.	c #2B3321",
"s.	c #2B2F20",
"t.	c #2E341F",
"u.	c #344D23",
"v.	c #324722",
"w.	c #2F3820",
"x.	c #303B20",
"y.	c #2C4123",
"z.	c #2C4A25",
"A.	c #245563",
"B.	c #255362",
"C.	c #355123",
"D.	c #355223",
"E.	c #334922",
"F.	c #303D20",
"G.	c #314221",
"H.	c #28414C",
"I.	c #3A2B21",
"J.	c #293840",
"K.	c #137043",
"                                                      . . . + + + + . . . . .                                                   ",
"                            @ @         @ @ @       . + + + + + + + + + + + + .             @ @         @ @ @             @     ",
"    @ @               @ #                 @   . + + + + + + + + + + + + + + + + .     @ #                 @               @     ",
"                      # $ #       @         . + + + + + + + + + + + + + + + + + + .   # $ #       @                     @ @     ",
"            @         % #     @ @ @       . + + + + . . . . . . . . . . . + + + + + . % #     @ @ @         @                   ",
"          @ @   @ @   % @         @ @ @ . + + + + + . . . + + + + + + + + . + + + + + . @         @ @ @                   @ @   ",
"          @ @   & @ @       @ @     @ . + + + + . . . + + + + . . . + + + . . + + + + .     @ @     @                     @ @   ",
"          @ @ & $ & @     @ @       . . + + + + . + + + + . . . + + . . + + + . . + + .   @ @                     @             ",
"                & %       @     & & . + + + + + . + + + + . . . . . . + + + + + . + + . * @     & &     @ @     @ @   @         ",
"                              & $ & . + + + + + . . . . + + + + + + + + + . . . . + + . *     & $ &       @     @ @             ",
"      @                       & & @ . . . + + + + . + + + + + . + + . . . + + + + + + . * *   & & @             @               ",
"      @ = =   @ @ @ @           % @ . - - . + + + . . . . . . . . . . . . . + + + + . . * *     % @         ; ;                 ",
"        = $ = @ @                 . - - - - . + + + + + + + + + + + + + + + + + + . . > > * *               ; $ ;               ",
"        = $ =       @ @ @   @     . - - - - . . + + + + + + + + + + + + + + + + . . > > > > *               @ ; ;     @         ",
"@ @     % = =       @ @     @ @   . - - - - - , . . + + + + + + + + + + + + + . - ' ' ' > > * *     @       @ %       @ @     @ ",
"@ @   @ @                     @ . . - - - - , - - . . . . . . . . . . . . . . ' ' ' ' > > > * * # @ @                   @   @ @ ",
"  @ @ @           & &   @ @   . - - - - - , - - - - - - - - - - - - - - - - - ' ' ' > > > > > > * # @               @ @     @   ",
"  @ @   @         & $ &   @ # . - - - - , - - - - - - - - - - - - - - - ' ' ' ' ' > > > > > > > * * )             & & @ @       ",
"      @ @       @ % & &       . - - - - , - - - - - - - - - - - - ' ' ' ' ' ' ' ' ' ' ' > > > > * *         @ @ & $ &           ",
"      @                     . . - - - , , - - - - - - - - - - - - - - - ' ' ' > > > > > > > > * * *       @     & & %           ",
"        @             @   . - - ' ' ' ' , - - - - - - - - - - - - - - ' > > > > > > > > > * * * * * *                           ",
"        @   @       @ @   . - - - - - ' ' - - - - - - - - - - - - - ' ' > > > > > > > * * * * * > > *   &           @ @         ",
"            @ @ @   @ @ . . - - - - , , ' ' ' ' ' ' ' ' - - - - - - ' > * * * * * * * * * ' ' ' > > * & $ &   @                 ",
"              @ @   @   . - - - - - , , , - - - - - - ' ' - - - - - ' > * * * * * * * * ' ' ' ' > > * * &     @ @     @     @   ",
"      ! !           ; . . - - - - - , , - - - - - - - - ' ' ' ' * * * * * - - - - - ' ' ' ' ' > > > > > *     @ @   @ @   @ @   ",
"      ! $ !     @ ; $ . - - - - - , , , - - - - - - - - - - - - - - - - - - - - - ' ' ' ' ' ' > > > > > *         = =     @     ",
"      % ! ! @ @ @ % ; . - - - - , , , , - - - - - - - - - - - - - - - - - - - - - - ' ' ' ' ' ' > > > > *     @ @ = $ =         ",
"                    . . - - - - , , , - - - - - - - - - - - - - - - - - - ' ' ' ' ' ' ' ' > > > > > > > * * @ @ @ % = =     @   ",
"  @ @     @       @ . . - - - - , , - - - - - - - - - - - - - - - - - - ' ' - - ' ' ' ' > > > > > > > > * *     @           @   ",
"  @ @     @ @       . ' ' - - , , , - - - - - - - - - - - - - - - - - - - - - ' ' ' ' ' ' > > > > > > * * * #         @ @   @   ",
"            @     . . ' ' ' ' ' , - - - - - - - - - - - - - ' ' ' ' ' ' - - ' ' ' ' > > > > > > > * * * * * *         @         ",
"                  . - - ' ' ' ' ' - - - - - - - - - - - - ' ' ' ' ' ' ' ' ' ' ' ' > > > > > > > * * * * > > *                   ",
"                . . - - - - - ' ' ' ' ' ' ' - - - - - - ' ' ~ ~ ~ ~ ~ ~ ' ' ' ' > > > * * * * * * ' ' ' > > * {                 ",
"                . . - - - - - - ' ' ' ' ' ' ' - - - - ' ' ~ ~ ~ ~ ~ ~ ~ ~ ' ' ' > > * * * * * * ' ' ' ' > > * ] ^ ^       @     ",
"    @ @       . . - - - - - , , - - - - - ' ' ' ' ' ~ ~ ~ ~ ~ ~ ~ ~ ~ ~ ~ ~ ~ ~ * * - - - - - - ' ' ' ' > > > * * / ( _   @     ",
"    &         . - - - - - - , , - - - - - - ' ' ' ~ ~ ~ ~ ~ ~ ~ ~ ~ ~ ~ ~ ~ ~ ~ ~ * - - - - - ' ' ' ' ' > > > > * * : < @ @     ",
"  & $ &     . . - - - - - , , , - - - - - - - ' ~ ~ ~ ~ ~ ~ ~ ~ ~ ~ ~ ~ ~ ~ ~ ~ ~ ~ - - - - ' ' ' ' ' ' > > > > * * [ } | 1     ",
"  & $ &   @ . . - - - - , , , - - - - - - - - - ~ ~ ~ ~ ~ ~ ~ ~ ~ ~ ~ ~ ~ ~ ~ ~ ~ ~ - - - ' ' ' ' ' > ' ' > > > > * 2 3 ( 4 @   ",
"  % & &   . . - - - - - , , - - - - - - - - - - ~ ~ ~ ~ ~ ~ ~ ~ ~ ~ ~ ~ ~ ~ ~ ~ ~ ~ ' ' ' ' ' ' > > > > > > > > > * * 5 6 7 @   ",
"  %       . - - - - - - , , - - - - - - - - - ' ~ ~ ~ ~ ~ ~ ~ ~ ~ ~ ~ ~ ~ ~ ~ ~ ~ ~ ~ ' ' ' ' ' > > > > > > > > > > * 8 9 0     ",
"        . . - - - - - , , , , , - - - - - - ' ' ~ ~ ~ ~ ~ ~ ~ ~ ~ ~ ~ ~ ~ ~ ~ ~ ~ ~ ~ ~ ' ' > ' ' ' > > > > > > > > * * } a ( 3 ",
"        . ' - - - - , , , , , - - - - - - - ' ~ ~ ~ ~ ~ ~ ~ ~ ~ ~ ~ ~ ~ ~ ~ ~ ~ ~ ~ ~ ~ ' > > > > > > > > > > > > * * * 2 b c d ",
"      . . ' ' ' ' - , , - - - - - - - - - - ~ ~ ~ ~ ~ ~ ~ ~ ~ ~ ~ ~ ~ ~ ~ ~ ~ ~ ~ ~ ~ ~ > > > > > > > > > > * * * * * * * { e a ",
"      . - - ' ' ' ' ' , - - - - - - - - - - ~ ~ ~ ~ ~ ~ ~ ~ ~ ~ ~ ~ ~ ~ ~ ~ ~ ~ ~ ~ ~ ~ > > > > > > > > > * * * * ' > * * * 6 ( ",
"    . . - - - - - ' ' ' ' - - - - - - - - - ~ ~ ~ ~ ~ ~ ~ ~ ~ ~ ~ ~ ~ ~ ~ ~ ~ ~ ~ ~ ~ ~ > > > > > > * * * * * ' ' ' > > * * 1 ( ",
"    . . - - - - - , ' ' ' ' ' - - - - - - - ~ ~ ~ ~ ~ ~ ~ ~ ~ ~ ~ ~ ~ ~ ~ ~ ~ ~ ~ ~ ~ ~ > > > > > * * * * * ' ' ' ' > > * * f 9 ",
"@ . . - - - - - - , , - - ' ' ' ' ' ' - - - ~ ~ ~ ~ ~ ~ ~ ~ ~ ~ ~ ~ ~ ~ ~ ~ ~ ~ ~ ~ ~ ~ * * * * * * * ' ' ' ' ' ' ' > > > * * g ",
"@ . - - - - - - , , - - - - ' ' ' ' ' ' ' - ~ ~ ~ ~ ~ ~ ~ ~ ~ ~ ~ ~ ~ ~ ~ ~ ~ ~ ~ ~ ~ ~ * * * * * * ' ' ' ' ' ' ' > > > > > * * ",
". . - - - - - , , , - - - - - - - - - ' ' ' ~ ~ ~ ~ ~ ~ ~ ~ ~ ~ ~ ~ ~ ~ ~ ~ ~ ~ ~ ~ ~ ~ ' - - - - - ' ' ' ' ' ' > > > > > > h 8 ",
"  . - - - - , , , - - - - - - - - - - - - ' ~ ~ ~ ~ ~ ~ ~ ~ ~ ~ ~ ~ ~ ~ ~ ~ ~ ~ ~ ~ ~ ~ ' - - - - - ' ' ' ' ' > > > > > > * i j ",
"  k ' ' - - , , - - - - - - - - - - - - - - ~ ~ ~ ~ ~ ~ ~ ~ ~ ~ ~ ~ ~ ~ ~ ~ ~ ~ ~ ~ ~ ~ ' ' ' ' ' ' ' ' > > > > > > > > * * | l ",
"  m n ' ' - , , - - - - - - - - - - - - - - ~ ~ ~ ~ ~ ~ ~ ~ ~ ~ ~ ~ ~ ~ ~ ~ ~ ~ ~ ~ ~ ~ ' ' ' ' ' ' ' > > > > > > > > * o p ( q ",
"    r s t ' ' ' - - - - - - - - - - - - - - ~ ~ ~ ~ ~ ~ ~ ~ ~ ~ ~ ~ u u u u u u u u u u ' ' > > > > > > > > > > > * * 8 v w x < ",
"    s y z A ' ' ' - - - - - - - - - - - - - ~ ~ ~ ~ ~ ~ ~ ~ u u u u u u u u u u u u u u ' > > > > > > > > > > * * ] B C v D E F ",
"        G p t H ' ' ' ' ' - - - - - - - - ' ~ ~ ~ ~ ~ u u u u u u u u u u u u u u u u u > > > > > > > * * I * * * J p K e 1 6 L ",
"        M N O P Q n R S ' ' ' - - - - ' ' ' ~ ~ ~ ~ u u u u u u u u u u u u u u u u u u > > > > > * * ] / T K U g V j Q c q W X ",
"            Y Z `  ...+.' ' ' ' @.' ' ' ' ' ~ ~ ~ u u u u #.#.#.#.#.#.#.#.#.#.#.#.#.#.#.* * * * * * * 5 $.$.%.&.*.: =.-.Z ;.@   ",
"            >.,.'.).!.~.%.K j {.O { p S ' ' ~ ~ u u u #.#.#.#.#.#.#.#.#.#.#.#.#.#.#.#.#.* * * ].V 5 { ^./.(.N _.6 c E 9 3 :.    ",
"            @ @ @   9 } 0 0 <.[.}.|.1.2.3.3.4.4.5.5.#.#.#.#.#.#.#.#.#.#.#.#.#.#.4.4.3.3.2.2.6.7.8.9.: ;.0.l a.b.c.a.            ",
"                    d.} E e.c._ f.|.g.h.3.i.4.4.5.j.j.#.#.#.#.#.#.#.k.#.#.#.j.j.4.4.3.3.2.l.6.m.n.o.3 0.6 } p.;.;.q         @   ",
"  @ @     @       @ @     @     c q.9 E L d.r.X X 3 } } 0 s.t.} : u.v.F F f f 3 X 7 w.f s.x.: f X y.l z.A.B.a.F @           @   ",
"  @ @     @ @                   4 C.( F ( F F L L y.>.e.D.9 e.>.a.*.E.r.f w.w.3 } 6 f f 0 r.2 2 F.G.6 } H.I.J.d.      @ @   @   ",
"            @                   @       K.            @                     @                   @       % # #         @         ",
"                                @                                                               @                               "};
