/* XPM */
static char * flower_xpm[] = {
"64 64 19 1",
" 	c #2F8136",
".	c #499231",
"+	c #0098B2",
"@	c #FF5442",
"#	c #D9B75C",
"$	c #61A0EF",
"%	c #006B46",
"&	c #695B95",
"*	c #413B2D",
"=	c #90874E",
"-	c #156C99",
";	c #606835",
">	c #F88078",
",	c #B10921",
"'	c #81A100",
")	c #D19201",
"!	c #D0A858",
"~	c #4B531F",
"{	c #686239",
"                                                                ",
"              ..    ...      .                ..    ...      .  ",
"  ..       .+        .  @    .    ..       .+        .       .  ",
"           +#+   .    @@@   ..    $        +#+   .          ..  ",
"      .    %+  ...    .@#@@      $#$  .    %+  ...    .         ",
"     .. .. %.    ...   @@@   ..  $#$ .. .. %.    ...         .. ",
"     .. $..   ..  .    %@    ..  %$$ .. $..   ..  .          .. ",
"     ..$#$.  ..          .       %   ..$#$.  ..          .      ",
"        $%   .  $$  ..  .. .&           $%   .  $$  ..  .. .    ",
"               $#$   .  .. &#&                 $#$   .  ..      ",
"   .           $$.      .  %&      .           $$.      .       ",
"   .&& ....     %.    @@           .&& ....     %.    @@        ",
"    &#&..             @#@           ****.             @#@       ",
"    &#&   ... .       .@@  .        ****  ... .       .@@  .    ",
"..  %&&   ..  ..  .   .%   ..  .******&   ..  ..  .   .%   ..  .",
".. ..          .+..         . ..******         .+..         . ..",
" ...     $$ .. +++.       ..  **====**   $$ .. +++.       ..  . ",
" .. .    $#$ .++#+-      $$.. **====**   $#$ .++#+-      $$..   ",
"   ..   .%$$   ++-    ..$#$ **;;==**.   .%$$   ++-    ..$#$     ",
"   .            -    .  $$% **;;==**            -    .  $$%     ",
"    .      .              **>>>>==**.      .                    ",
"    . .   .. &    . $     **>>>>==**. .   .. &    . $     ..    ",
"      ... ..&#,,>>.$#$ .  >>>>>>==**  ... ..&#&  ..$#$ .        ",
"       .. .  &,,>>  $  .. >>>>>>==**   .. .  &%     $  ..  .  . ",
"   ''     @   ,,>>>>****,,>>,,,,==**'     @ >>>>       .. .. .. ",
"   '#'  .@#@  ,,>>>>****,,>>,,,,==**#'  .@#@>>>>         &&  .  ",
"   %''...%****,,,,>>,,))!!,,,,,,>>**''...%>>>>>>****** ..&#&    ",
"          ****,,,,>>,,))!!,,,,,,>>**      >>>>>>******...%&&  . ",
" ..  .  **~~~~~~,,,,,,))!!**~~,,>>>> .  ,,>>,,,,======****    . ",
" ..  .. **~~~~~~,,,,,,))!!**~~,,>>>> .. ,,>>,,,,======**** .. . ",
"      . **~~******~~)))))),,>>,,,,>>,,))!!,,,,;;;;======** .    ",
"        **~~******~~)))))),,>>,,,,>>,,))!!,,,,;;;;======**      ",
"        ****{{{{{{******,,,,>>>>,,,,,,))!!;;;;;;;;**********    ",
"        ****{{{{{{******,,,,>>>>,,,,,,))!!;;;;;;;;********** .  ",
"  ..    **{{{{**,,,,>>==**,,,,>>;;**)))))),,>>****   .  @    .  ",
"  $     **{{{{**,,,,>>==**,,,,>>;;**)))))),,>>****    @@@   ..  ",
" $#$  {{{{{{**~~,,>>>>;;**~~~~~~********,,,,>>>>{{{{{{{{#@@     ",
" $#$ .{{{{{{**~~,,>>>>;;**~~~~~~********,,,,>>>>{{{{{{{{@@   .. ",
" %$$ .{{{{{{**~~~~,,~~;;********,,,,>>==**,,,,>>{{{{{{{{{{   .. ",
" %   .{{{{{{**~~~~,,~~;;********,,,,>>==**,,,,>>{{{{{{{{{{      ",
"      {{$%**~~~~~~~~******;;==**,,>>>>;;==****  $$  ..  .. .&   ",
"      {{  **~~~~~~~~******;;==**,,>>>>;;==**** $#$   .  .. &#&  ",
"   .      **~~~~~~****~~~~~~;;==**,,~~~~;;====****      .  %&   ",
"   .&& ...**~~~~~~****~~~~~~;;==**,,~~~~;;====****    @@        ",
"    &#&.**~~~~~~**{{**~~~~~~~~;;**~~~~~~~~;;====**    @#@       ",
"    &#& **~~~~~~**{{**~~~~~~~~;;**~~~~~~~~;;====**    .@@  .    ",
"..  %&& ********{{{{**~~~~~~~~;;**************;;==**  .%   ..  .",
".. ..   ********{{{{**~~~~~~~~;;**************;;==**        . ..",
" ...    **$ {{{{{{{{**~~~~~~~~;;**{{{{{{{{{{{{**;;==**    ..  . ",
" .. .   **#${{{{{{{{**~~~~~~~~;;**{{{{{{{{{{{{**;;==**   $$..   ",
"   ..   .%$$   +{{{{**~~~~~~~~**   ..   .%$${{{{**~~**..$#$     ",
"   .            {{{{**~~~~~~~~**   .        {{{{**~~**  $$%     ",
"    .      .    {{{{**~~~~~~**      .      .  {{{{****          ",
"    . .   .. &  {{{{**~~~~~~**      . .   .. &{{{{****    ..    ",
"      ... ..&#& {{{{{{**~~**          ... ..&#& {{{{** .        ",
"       .. .  &% {{{{{{**~~**  .        .. .  &% {{{{** ..  .  . ",
"          @   ..{{{{   .;;** ..    ''     @   ..  {{** .. .. .. ",
"        .@#@    {{{{    ;;** .     '#'  .@#@      {{**       .  ",
"      ...%@   .   {{{{ .**#&       %''...%@   .    ..  ..       ",
"             ..   {{{{..**&&  .              ..    .  ...     . ",
" ..  .   ..  .      {{  .     .  ..  .   ..  .      ++  .     . ",
" ..  ..         ..  {{+    .. .  ..  ..         ..  +#+    .. . ",
"      .         .   %++    .          .         .   %++    .    ",
"                .                               .               "};
