/* XPM */
static char * foe_xpm[] = {
"64 64 23 1",
" 	c #2F8136",
".	c #241513",
"+	c #499231",
"@	c #408C33",
"#	c #241412",
"$	c #9E5A41",
"%	c #489131",
"&	c #B5834F",
"*	c #308136",
"=	c #308138",
"-	c #489231",
";	c #70453E",
">	c #70463E",
",	c #91633F",
"'	c #4D2921",
")	c #41322C",
"!	c #4A2926",
"~	c #308236",
"{	c #388735",
"]	c #2D1F1E",
"^	c #4B2724",
"/	c #3D8A34",
"(	c #23793D",
"                                   ....                         ",
"              ++    +++      +     ....       ++    +++      +  ",
"  ++       @         +       +  ###$$$$### +         +       +  ",
"                 +          ++  ###$$$$###       +          ++  ",
"      +        +++              ###$$$$###     +++    +         ",
"     ++ ++  %    +++         ###&&&#### ++       +++         ++ ",
"     ++  ++   ++  +          ###&&&####  ++   ++  +          ++ ",
"     ++   +  ++          +   ###&&&####   +  ++          +      ",
"             +      +@  ++ * ###&&&####      +      ++  ++ +    ",
"          ...        +  ++ = ###&&&####              +  ++      ",
"   -      ...    +      +    ###$$$####                 +       ",
"   +   #..$$$... +           ###$$$####++++      @    ####      ",
"       #..$$$...          ###&&&$$$####++             ####      ",
"       #..$$$...      +   ###&&&$$$####   +++ +       #### +    ",
"++        ###$$$###   +   ###&&&$$$####   ++  ++######$$$$###  +",
"++ ++     ###$$$###       ###&&&###++          +######$$$$### ++",
" +++      ###;;;$$$####   ###&&&###+      ######>>>$$$####++  + ",
" ++ +     ###;;;$$$####   ###&&&### +     ######>>>$$$#### ++   ",
"   ++   + ###;;;$$,####+  ###$$$###++   + ######;;;$$$####      ",
"   +   ###$$$###''';;;;######$$$###+   ###$$$$$$;;;'''          ",
"    +  ###$$$###''';;;;######$$$### +  ###$$$$$$;;;'''          ",
"   ##########$$$###)))))))###$$$#######)))'''''''''###    ++    ",
"   ##########$$$###)))))))###$$$#######)))'''''''''### +        ",
"   ##########$$$###)))))))###;;;#######)))'''''''''### ++  +  + ",
"###;;;;;;;;;;###$$$$$$$))))));;;!!!;;;;)))'''&&&&&&$$$####++ ++ ",
"###;;;;;;;;;;###$$$$$$$))))));;;!!!;;;;)))'''&&&&&&$$$####   +  ",
"   ##########&&&&&&$$$$$$$)))$$$!!!;;;;'''$$$;;;###### +        ",
"   ##########&&&&&&$$$$$$$)))$$$!!!;;;;'''$$$;;;######+@      + ",
" ++##########&&&&&&$$$$$$$)))$$$!!!;;;;'''$$$;;;######  +     + ",
" ++  ++   ###''''''''''&&&$$$$$$;;;''''&&&;;;###++         ++ + ",
"      +   ###''''''''''&&&$$$$$$;;;''''&&&;;;###+*         +    ",
"       ###$$$$$$;;;;;;;''';;;$$$;;;$$$$$$$###)))###             ",
"       ###$$$$$$;;;;;;;''';;;$$$;;;$$$$$$$###)))###             ",
"       ###$$$$$$;;;;;;;''';;;$$$;;;$$$$$$$###)))### +++      +  ",
"  +####;;;#########'''';;;''';;;$$$$$$$))))))))))))#######   +  ",
"   ####;;;#########'''';;;''';;;$$$$$$$))))))))))))#######~ ++  ",
"      +###     +##########$$$$$$;;;####$$$&&&;;;;;;)))))))###   ",
"     ++###  {   ##########$$$$$$;;;####$$$&&&;;;;;;)))))))###++ ",
"     ++###+   ++##########$$$$$$;;;####$$$&&&;;;;;;)))))))###++ ",
"     ++      ++    ####&&&$$$''']]];;;;###$$$$$$&&&#######      ",
"             +     ####&&&$$$''']]];;;;###$$$$$$&&&####### +    ",
"                   ####&&&$$$''']]];;;;###$$$$$$&&&#######      ",
"   +         ######&&&&$$$]]]'''''']]]]$$$#########$$$&&&&###   ",
"   +   ++++  ######&&&&$$$]]]'''''']]]]$$$#########$$$&&&&###   ",
"       ++ ###;;;&&&$$$$]]]]]]''']]]'''']]]$$$^^^^^^#######$$$###",
"          ###;;;&&&$$$$]]]]]]''']]]'''']]]$$$^^^^^^#######$$$###",
"++        ###;;;&&&$$$$]]]]]]''']]]'''']]]$$$^^^^^^#######$$$###",
"++ ++        ###;;;####]]]]]]]]]]]]]]]]''';;;;;;$$$###    ### ++",
" +++        +###;;;####]]]]]]]]]]]]]]]]''';;;;;;$$$###    ### + ",
" ++ +        ###;;;####]]]]]]]]]]]]]]]]]]];;;######        ++   ",
"   ++   /    ###;;;####]]]]]]]]]]]]]]]]]]];;;######   +         ",
"   +         ###;;;####]]]]]]]]]]]]]]]]]]];;;######  +          ",
"    +     ###;;;###]]]]]]]]]]]]]]]]]]]]]]];;;###                ",
"    + +   ###;;;###]]]]]]]]]]]]]]]]]]]]]]];;;###  +       ++    ",
"      +++ ###;;;;;;$$$$###;;;;;;]]];;;;]]]]]]]]]###    +        ",
"       ++ ###;;;;;;$$$$###;;;;;;]]];;;;]]]]]]]]]###    ++  +  + ",
"          ###;;;;;;$$$$###;;;;;;]]];;;;]]]]]]]]]###    ++ ++ ++ ",
"        +    ###$$$#######;;;$$$###]]]]###]]]###             +  ",
"      +++(   ###$$$#######;;;$$$###]]]]###]]]###   ++  ++       ",
"             ++ ###+  +   ###$$$#######   ###%+    +  +++     + ",
" ++  +   ++  +  ###       ###$$$#######  +###%          +     + ",
" ++  ++         ###       ###$$$#######   ###   ++         ++ + ",
"      +         +          + ###      +         +          +    ",
"                +            ###                +               "};
