/* XPM */
static char * forest_left_up_xpm[] = {
"64 64 428 2",
"  	c #0C532C",
". 	c #093330",
"+ 	c #121C1F",
"@ 	c #2F8136",
"# 	c #0A5B2F",
"$ 	c #0B5F2E",
"% 	c #075436",
"& 	c #0E2623",
"* 	c #499231",
"= 	c #0B5C2F",
"- 	c #0B5C2E",
"; 	c #0A5C2F",
"> 	c #0B572E",
", 	c #1A3225",
"' 	c #0098B2",
") 	c #FF5442",
"! 	c #0B5B2E",
"~ 	c #0B552D",
"{ 	c #0D2326",
"] 	c #26602E",
"^ 	c #2E7F35",
"/ 	c #D9B75C",
"( 	c #61A0EF",
"_ 	c #0B552C",
": 	c #084232",
"< 	c #2D7C35",
"[ 	c #006B46",
"} 	c #084D33",
"| 	c #073C36",
"1 	c #064136",
"2 	c #0A2E2C",
"3 	c #095431",
"4 	c #0E2024",
"5 	c #0F1A21",
"6 	c #39762F",
"7 	c #085334",
"8 	c #0C2025",
"9 	c #0D2425",
"0 	c #276D31",
"a 	c #0B5D2E",
"b 	c #0A5A2F",
"c 	c #0E2222",
"d 	c #0E1C21",
"e 	c #16492E",
"f 	c #695B95",
"g 	c #074536",
"h 	c #0A5630",
"i 	c #0A612F",
"j 	c #094732",
"k 	c #0D2524",
"l 	c #0D1F23",
"m 	c #1D562F",
"n 	c #074735",
"o 	c #064437",
"p 	c #064137",
"q 	c #0B5F2D",
"r 	c #0B5E2E",
"s 	c #074236",
"t 	c #0C2526",
"u 	c #0F1820",
"v 	c #0E1D22",
"w 	c #5B98E2",
"x 	c #064337",
"y 	c #074936",
"z 	c #0D2526",
"A 	c #074136",
"B 	c #074436",
"C 	c #074836",
"D 	c #093931",
"E 	c #083C33",
"F 	c #09342E",
"G 	c #0F191F",
"H 	c #083732",
"I 	c #0E1D23",
"J 	c #05483A",
"K 	c #064638",
"L 	c #083A32",
"M 	c #0C2929",
"N 	c #073A35",
"O 	c #084934",
"P 	c #054739",
"Q 	c #0D2226",
"R 	c #0C2828",
"S 	c #0E1E23",
"T 	c #0F141D",
"U 	c #0E1E22",
"V 	c #0A302C",
"W 	c #064037",
"X 	c #0A5730",
"Y 	c #064237",
"Z 	c #074035",
"` 	c #0E1920",
" .	c #0A5830",
"..	c #0A592F",
"+.	c #095032",
"@.	c #085034",
"#.	c #0D2126",
"$.	c #074835",
"%.	c #0C4D2B",
"&.	c #10151F",
"*.	c #0A332E",
"=.	c #064336",
"-.	c #095331",
";.	c #073A34",
">.	c #0B2B2B",
",.	c #064038",
"'.	c #0A312E",
").	c #064238",
"!.	c #0A5E30",
"~.	c #074B35",
"{.	c #0E1F24",
"].	c #0B302C",
"^.	c #0E2125",
"/.	c #156C99",
"(.	c #064338",
"_.	c #074A37",
":.	c #095731",
"<.	c #0E1C22",
"[.	c #064639",
"}.	c #064839",
"|.	c #064438",
"1.	c #0D2627",
"2.	c #10171F",
"3.	c #14638B",
"4.	c #0A622F",
"5.	c #0F141F",
"6.	c #0B292A",
"7.	c #085233",
"8.	c #054639",
"9.	c #0D2225",
"0.	c #0A312D",
"a.	c #0D2527",
"b.	c #0F1F21",
"c.	c #0A5D2F",
"d.	c #084B33",
"e.	c #0B2D2B",
"f.	c #0F1E22",
"g.	c #064538",
"h.	c #064138",
"i.	c #0B302D",
"j.	c #0C2C2A",
"k.	c #083D34",
"l.	c #0A322D",
"m.	c #0A5930",
"n.	c #083B32",
"o.	c #0B2F2C",
"p.	c #084E34",
"q.	c #084F33",
"r.	c #095232",
"s.	c #064236",
"t.	c #0B2E2C",
"u.	c #074336",
"v.	c #0B512D",
"w.	c #073F35",
"x.	c #054239",
"y.	c #084C34",
"z.	c #0B2B2C",
"A.	c #0A6230",
"B.	c #0B2D2C",
"C.	c #0C2D2A",
"D.	c #093630",
"E.	c #074B37",
"F.	c #0F2221",
"G.	c #074635",
"H.	c #0A5F2F",
"I.	c #0C2428",
"J.	c #0C2B2A",
"K.	c #81A100",
"L.	c #084C33",
"M.	c #095132",
"N.	c #095332",
"O.	c #0C2528",
"P.	c #0A422E",
"Q.	c #0A302F",
"R.	c #0C2728",
"S.	c #0F1920",
"T.	c #0A602F",
"U.	c #0F1721",
"V.	c #073F34",
"W.	c #073B34",
"X.	c #0F1C22",
"Y.	c #396F2C",
"Z.	c #3F732E",
"`.	c #564D70",
" +	c #094A32",
".+	c #084B34",
"++	c #0D3727",
"@+	c #094931",
"#+	c #083C34",
"$+	c #073E35",
"%+	c #093932",
"&+	c #0A352F",
"*+	c #0E1F23",
"=+	c #356C2B",
"-+	c #083E34",
";+	c #074C37",
">+	c #10141D",
",+	c #0C2B29",
"'+	c #0C2A29",
")+	c #161F20",
"!+	c #2F7633",
"~+	c #074437",
"{+	c #085133",
"]+	c #0A302D",
"^+	c #0B2E2B",
"/+	c #09362F",
"(+	c #0C7A8E",
"_+	c #10161F",
":+	c #10141E",
"<+	c #093831",
"[+	c #0C2D2B",
"}+	c #0D2728",
"|+	c #028DA5",
"1+	c #083B33",
"2+	c #0D2325",
"3+	c #0F1B21",
"4+	c #10151E",
"5+	c #122C25",
"6+	c #2D7B34",
"7+	c #064537",
"8+	c #2F7F35",
"9+	c #1C4225",
"0+	c #084133",
"a+	c #0A5B30",
"b+	c #073F36",
"c+	c #094B32",
"d+	c #083932",
"e+	c #0D2727",
"f+	c #073E34",
"g+	c #164B30",
"h+	c #2D7B35",
"i+	c #18452A",
"j+	c #0D3027",
"k+	c #095E31",
"l+	c #20502C",
"m+	c #0B342B",
"n+	c #0E2124",
"o+	c #0B312D",
"p+	c #162D23",
"q+	c #26642E",
"r+	c #122A23",
"s+	c #095832",
"t+	c #0C2729",
"u+	c #0A392F",
"v+	c #0D1E22",
"w+	c #1C4228",
"x+	c #084432",
"y+	c #2F8036",
"z+	c #073E36",
"A+	c #0F1D22",
"B+	c #093230",
"C+	c #0B572D",
"D+	c #0A322E",
"E+	c #0E2225",
"F+	c #093730",
"G+	c #083D33",
"H+	c #09352F",
"I+	c #0C2627",
"J+	c #0E2923",
"K+	c #075435",
"L+	c #074036",
"M+	c #064837",
"N+	c #084A34",
"O+	c #40812E",
"P+	c #0C2928",
"Q+	c #10131D",
"R+	c #0B2C2A",
"S+	c #1F4C2A",
"T+	c #193E28",
"U+	c #0D2125",
"V+	c #084E33",
"W+	c #085234",
"X+	c #0B402B",
"Y+	c #095631",
"Z+	c #2A7032",
"`+	c #30472B",
" @	c #3B4E29",
".@	c #2E3D26",
"+@	c #064637",
"@@	c #074535",
"#@	c #297232",
"$@	c #171F20",
"%@	c #0A342F",
"&@	c #0C2529",
"*@	c #0B612E",
"=@	c #2C7C36",
"-@	c #064739",
";@	c #064938",
">@	c #121D21",
",@	c #2D4129",
"'@	c #2B3E29",
")@	c #0D2426",
"!@	c #11121D",
"~@	c #0A5430",
"{@	c #297536",
"]@	c #074337",
"^@	c #0B3829",
"/@	c #064036",
"(@	c #074E36",
"_@	c #074935",
":@	c #216635",
"<@	c #0B512B",
"[@	c #0F151E",
"}@	c #095531",
"|@	c #093A31",
"1@	c #085533",
"2@	c #0F1C20",
"3@	c #075636",
"4@	c #478F31",
"5@	c #083831",
"6@	c #0E1E24",
"7@	c #2B7834",
"8@	c #0B602D",
"9@	c #073D35",
"0@	c #0C2727",
"a@	c #0F161E",
"b@	c #0B312B",
"c@	c #0A352D",
"d@	c #0F1921",
"e@	c #084933",
"f@	c #0A5D30",
"g@	c #074D36",
"h@	c #17462C",
"i@	c #374828",
"j@	c #1C2622",
"k@	c #1B2723",
"l@	c #121E20",
"m@	c #074834",
"n@	c #0F2522",
"o@	c #0B372B",
"p@	c #074A35",
"q@	c #0A5831",
"r@	c #21512F",
"s@	c #294229",
"t@	c #2F442A",
"u@	c #384B28",
"v@	c #293524",
"w@	c #084732",
"x@	c #0C3E2A",
"y@	c #083A33",
"z@	c #083432",
"A@	c #0E1722",
"B@	c #0A632F",
"C@	c #0195AE",
"D@	c #2D4E29",
"E@	c #162221",
"F@	c #073C34",
"G@	c #0B5C2D",
"H@	c #097083",
"I@	c #156A96",
"J@	c #171C20",
"K@	c #0F1B22",
"L@	c #2D482B",
"M@	c #322625",
"N@	c #083632",
"O@	c #094C32",
"P@	c #073D36",
"Q@	c #074E35",
"R@	c #075137",
"S@	c #0F1821",
"T@	c #084F35",
"U@	c #28622E",
"V@	c #2F7F36",
"W@	c #62351C",
"X@	c #1F1B1B",
"Y@	c #31221D",
"Z@	c #0F1A20",
"`@	c #3D3529",
" #	c #10161E",
".#	c #2D6B30",
"+#	c #3E2613",
"@#	c #4D3729",
"##	c #2F2117",
"$#	c #2D4029",
"%#	c #073D34",
"&#	c #0E1B22",
"*#	c #0B552E",
"=#	c #184228",
"-#	c #29602A",
";#	c #744B30",
">#	c #2B1C1D",
",#	c #2B1F1D",
"'#	c #3A4B29",
")#	c #161F1F",
"!#	c #0B2D2A",
"~#	c #346E2E",
"{#	c #2C1F17",
"]#	c #192422",
"^#	c #093E31",
"/#	c #095432",
"(#	c #093B31",
"_#	c #074636",
":#	c #488B2F",
"<#	c #342215",
"[#	c #0B332B",
"}#	c #3A742B",
"|#	c #094831",
"1#	c #095532",
"2#	c #184025",
"3#	c #101A20",
"4#	c #101820",
"5#	c #3D2613",
"6#	c #332315",
"7#	c #0A332D",
"8#	c #468930",
"9#	c #1E2E24",
"0#	c #2F7E35",
"a#	c #162524",
"b#	c #084D34",
"c#	c #0A342E",
"d#	c #093731",
"e#	c #095231",
"f#	c #35422B",
"g#	c #172222",
"h#	c #306931",
"i#	c #094731",
"j#	c #0A5E2F",
"k#	c #0B2A2B",
"l#	c #154F59",
"m#	c #2F7D35",
"n#	c #172021",
"o#	c #083832",
"p#	c #087084",
"q#	c #213125",
"r#	c #11181E",
"s#	c #0C2F28",
"t#	c #095333",
"u#	c #2B7333",
"  . + @ @ @ @ @ @ @ @ @ @ @ @ @ @ @ @ @ @ @ @ @ @ @ @ @ @ @ @ @ @ @ @ @ @ @ @ @ @ @ @ @ @ @ @ @ @ @ @ @ @ @ @ @ @ @ @ @ @ @ @ @ ",
"# $ % & @ @ @ @ @ @ @ @ @ @ * * @ @ @ @ * * * @ @ @ @ @ @ * @ @ @ @ @ @ @ @ @ @ @ @ @ @ @ @ * * @ @ @ @ * * * @ @ @ @ @ @ * @ @ ",
"= # - ; > , @ @ @ @ @ * ' @ @ @ @ @ @ @ @ * @ @ ) @ @ @ @ * @ @ @ @ * * @ @ @ @ @ @ @ * ' @ @ @ @ @ @ @ @ * @ @ @ @ @ @ @ * @ @ ",
"= = = = ! ~ { ] ^ @ @ ' / ' @ @ @ * @ @ @ @ ) ) ) @ @ @ * * @ @ @ @ ( @ @ @ @ @ @ @ @ ' / ' @ @ @ * @ @ @ @ @ @ @ @ @ @ * * @ @ ",
"= = = = = ; # _ : < @ [ ' @ @ * * * @ @ @ @ * ) / ) ) @ @ @ @ @ @ ( / ( @ @ * @ @ @ @ [ ' @ @ * * * @ @ @ @ * @ @ @ @ @ @ @ @ @ ",
"= = = = = - } | 1 2 @ [ * @ @ @ @ * * * @ @ @ ) ) ) @ @ @ * * @ @ ( / ( @ * * @ * * @ [ * @ @ @ @ * * * @ @ @ @ @ @ @ @ @ * * @ ",
"= = = = = # - 3 4 5 6 @ @ @ * * @ @ * @ @ @ @ [ ) @ @ @ @ * * @ @ [ ( ( @ * * @ ( * * @ @ @ * * @ @ * @ @ @ @ @ @ @ @ @ @ * * @ ",
"= = = = = = = - 7 8 9 0 @ * * @ @ @ @ @ @ @ @ @ @ * @ @ @ @ @ @ @ [ @ @ @ * * ( / ( * @ @ * * @ @ @ @ @ @ @ @ @ @ * @ @ @ @ @ @ ",
"= = = # a # = # - b c d e * @ @ ( ( @ @ * * @ @ * * @ * f @ @ @ @ @ @ @ @ @ @ @ ( [ @ @ @ * @ @ ( ( @ @ * * @ @ * * @ * @ @ @ @ ",
"= = = - g h 3 - - # i j k l m ( / ( @ @ @ * @ @ * * @ f / f @ @ @ @ @ @ @ @ @ @ @ @ @ @ @ @ @ ( / ( @ @ @ * @ @ * * @ @ @ @ @ @ ",
"- # = - n o p q n r r s s t u v w * @ @ @ @ @ @ * @ @ [ f @ @ @ @ @ @ * @ @ @ @ @ @ @ @ @ @ @ ( ( * @ @ @ @ @ @ * @ @ @ @ @ @ @ ",
"x a = - y z A B C B g D s E F G [ * @ @ @ @ ) ) @ @ @ @ @ @ @ @ @ @ @ * f f @ * * * * @ @ @ @ @ [ * @ @ @ @ ) ) @ @ @ @ @ @ @ @ ",
"H a = - - p I J 4 K o L M M u @ @ @ @ @ @ @ ) / ) @ @ @ @ @ @ @ @ @ @ @ f / f * * @ @ @ @ @ @ @ @ @ @ @ @ @ ) / ) @ @ @ @ @ @ @ ",
"N a = = a O P Q R M S T U V * @ @ @ @ @ @ @ * ) ) @ @ * @ @ @ @ @ @ @ @ f / f @ @ @ * * * @ * @ @ @ @ @ @ @ * ) ) @ @ * @ @ @ @ ",
"h - = = # h W X Y Z x ` v @ * * @ @ * @ @ @ * [ @ @ @ * * @ @ * * * @ @ [ f f @ @ @ * * @ @ * * @ @ * @ @ @ * [ @ @ @ * * @ @ * ",
" .....= # r +.X Y g @.#.M @ @ * ' * * @ @ @ @ @ @ @ @ @ * @ * * * * @ * * @ @ @ @ @ @ @ @ @ @ * ' * * @ @ @ @ @ @ @ @ @ * @ * * ",
"# X X - a p X a n $.- %.&.*.=.' ' ' * @ @ @ @ @ @ @ * * @ @ * @ @ * * * @ @ @ @ @ ( ( @ * * @ ' ' ' * @ @ @ @ @ @ @ * * @ @ * @ ",
"-.;.>.C r ,.'.).+.B !.~.{.].^.' / ' /.@ @ @ @ @ @ ( ( * * @ @ @ @ * * @ * @ @ @ @ ( / ( @ * ' ' / ' /.@ @ @ @ @ @ ( ( * * @ @ @ ",
"a (.I _.- :.<.[.x o U }.S *.|.1.2.3.@ @ @ @ * * ( / ( @ @ @ @ @ @ @ @ * * @ @ @ * [ ( ( @ @ @ ' ' /.@ @ @ @ * * ( / ( @ @ @ @ @ ",
"4.5.6.7. .h 8.R u 9.0.4 a.b.c.d.e.f.@ @ @ * @ @ ( ( [ @ @ @ @ @ @ @ @ * @ @ @ @ @ @ @ @ @ @ @ @ /.@ @ @ @ * @ @ ( ( [ @ @ @ @ @ ",
"g.v h.a - - $.x i.j.j.j.k.n r p Y x l.@ @ @ @ @ @ @ @ @ @ @ @ @ @ @ @ @ * @ @ @ @ @ @ * @ @ @ @ @ @ @ @ @ @ @ @ @ @ @ @ @ @ @ @ ",
"Y 5 m.# = - +.b |.D n.o.p.q - q.r.x o s.t.@ @ @ @ @ * * @ @ @ @ @ @ @ @ * @ * @ @ @ * * @ f @ @ @ @ * @ ( @ @ @ @ @ * * @ @ @ @ ",
"S g.h = = # a p u.Y x s x $.- v.w.].x x x s.@ * @ @ @ @ @ @ @ @ @ @ @ @ @ @ * * * @ * * f / f @ @ * * ( / ( @ * @ @ @ @ @ @ @ @ ",
"x.- ..= = = - y.z.A.s } W $ - ~.B.C.D.].L e.n.* * @ @ * @ @ * @ @ @ @ @ @ @ @ * * @ * @ @ f [ @ @ @ @ @ ( @ @ * * @ @ * @ @ * @ ",
"X # - = = = # - E.F.c.- G.a - - H.I.R j.w.J.j.R * @ * * @ * * @ @ @ @ K.K.@ @ @ @ @ ) @ @ @ * * @ @ @ @ @ @ @ * * @ * * @ * * @ ",
"L.M.a # a # = - N.O.P.x ;  .b - r.Q.S o.J.R.U ^.S.f f @ @ * @ @ @ @ @ K./ K.@ @ * ) / ) @ @ @ @ @ @ @ @ @ @ @ @ @ f f @ @ * @ @ ",
"p r g r g a = # T.U.V.k.W. .W a # X g.S.e.e.X.Y.Z.`./ f @ @ @ @ @ @ @ [ K.K.* * * [ ) @ @ @ * @ @ @ @ * * @ @ * * f / f @ @ @ @ ",
" +.+p L.W q a m.++@+L M w.#+$+L.h.} %+&+*+^.=+* * [ f f @ @ * @ @ @ @ @ @ @ @ @ @ @ @ @ @ * * @ @ @ @ * @ @ * * * [ f f @ @ * @ ",
"-+s s x u.$.G.a ;+>+n.J.,+w.'+g.o.o s x *.)+!+@ * @ @ @ @ @ * @ @ * * @ @ * @ @ @ * * @ @ * @ @ @ @ @ @ ' ' @ @ * @ @ @ @ @ * @ ",
"M *.a.A w.k.k.~+{+]+1.e.e.J.j.L l.^+j.x x /+(+@ @ @ @ * * @ * @ @ * * @ @ * * @ @ @ @ @ @ @ @ @ * * @ @ ' / ' @ @ @ @ * * @ * @ ",
"Z J.t._+:+n.<+D L 1.R e.[+j.j.j.j.R }+j.J.j.|+@ @ @ @ * @ @ @ @ @ @ @ @ @ @ * @ @ @ @ @ @ @ @ @ * @ @ @ [ ' ' @ @ @ @ * @ @ @ @ ",
"s '+j.^+t.^.4 1.R.5 1+j.[+,+S o.{ 2+3+S 4+5+6+@ @ @ @ @ @ @ @ @ @ @ @ @ @ @ @ @ @ @ @ @ @ @ @ @ * @ @ @ @ @ @ @ @ @ @ @ @ @ @ @ ",
"u.V.e.j.j.j.V.o 7+x x J.e.j.o._+2.'+4+g.g.R u @ @ @ @ @ @ 8+9+0+  . + @ @ @ @ @ @ @ @ @ @ @ @ @ @ @ @ @ @ @ @ @ @ @ @ @ @ @ @ @ ",
"a+b+K ^+].i.o B - c+d+e+'+e.J.j.j.j.e.4 f+o -+0.g+h+@ @ i+j+k+a # $ % & l+@ @ @ @ @ @ @ @ @ * * @ @ @ @ * * * @ @ @ @ @ @ * @ @ ",
"m+V.S.e.J.Z k.$.G.r O o n+4 o s g.o+o o o.x o j.3+p+q+r+..= - = = # - ; > , @ @ @ @ @ * ' @ @ @ @ @ @ @ @ * @ @ ) @ @ @ @ * @ @ ",
"s+t+i.u j.*.Z u+B p.a b+o.3+E J.Z g.o D.w.e+0.D.v+w+x+i ! = = = = = = = ! ~ { y+@ @ @ ' / ' @ @ @ * @ @ @ @ ) ) ) @ @ @ * * @ @ ",
"a z+3+e.e.e.j.0.x o.Y u.x }+1.j.f+t.A w.J.e.A+:+B+C+= # = = = = = = = = = ; # _ @ @ @ [ ' @ @ * * * @ @ @ @ * ) / ) ) @ @ @ @ @ ",
"~.D+l.S.^+E+4 o.e.0.F+g.G+H+_+^+j.j.J.&+I+I+J+K+$ # = = = = = = = = = = = - } | 1 * @ [ * @ @ @ @ * * * @ @ @ ) ) ) @ @ @ * * @ ",
"L+Z 3+I ^+2.M J.e.0.0.i.o.V.5 ^+e.j.^+3+,+{ M+N+a # = - - - - = = = = = = # - 3 4 O+* @ y+@ * * @ @ * @ @ @ @ [ ) @ @ @ @ * * @ ",
"t./+M a.o.P+X.3+e.^+j.^+e.M Q+L '+R+^.I S+T+U+|.n - # V+W+X+Y+= = = = = = = = - 7 8 * @ @ * * @ @ @ @ @ @ @ @ @ @ * @ @ @ @ @ @ ",
"x e+R n+K e.o.2.R S.^+4+e+R d+x g.R Z+`+ @.@1+o B +@B g.4 @@- = = = = # a # = # - b #@@ @ * @ @ ( ( @ @ * * @ @ * * @ * f @ @ @ ",
"-+j.5 l.x f+j.^+R u {.5 R 5 e+D.x k.)+`+`+ @$@4 %@v <+2.&@*@# = = = = - g h 3 - - # i =@@ @ @ ( / ( @ @ @ * @ @ * * @ f / f @ @ ",
"G+'+S.-@s x i.e.j.e.].e.j.^+J.g.Y x ;@>@,@'@)@s s !@<+$+~@a # # - # = - n o p q n r r s {@@ @ ( ( * @ @ @ @ @ @ * @ @ [ f @ @ @ ",
"^+_+9.|.]@A G+'+e.j.s ^+-+i.k.x -.u.a ^@v { /@u.p (@_@# # u.3 ; x a = - y z A B C B g D s :@@ @ [ * @ @ @ @ ) ) @ @ @ @ @ @ @ @ ",
"1.v ^+o Y g Y w.j.e.J.j.G+o.x Z ,.<@[@].o t.X W }@# # - y a y |@H a = - - p I J 4 K o L M M u @ @ @ @ @ @ @ ) / ) @ @ @ @ @ @ @ ",
"1.j.V.Y W r X /@^+^+j.e.j.e.A J.A 3+n.1+J.1@a q.- = = a+2@3@5 o.N a = = a O P Q R M S T U V 4@@ @ @ @ @ @ @ * ) ) @ @ * @ @ @ @ ",
",+A f+$.y.N+N+Y -@S.j.j.e.3+J.e.}+5@2.M <+$.- - # = = :.6@2.<+L+h - = = # h W X Y Z x ` v 7@* * @ @ * @ @ @ * [ @ @ @ * * @ @ * ",
"D x x $.V+V+8@9@0.F+R 0@5 '+'+{.a@b@c@d@e@a q.# ..- -  .f@g@,.-  .....= # r +.X Y g @.#.h@@ @ * ' * * y+@ @ @ @ @ @ @ @ * @ * * ",
"n.s V.Y x w.p V.e.j.5 1.i@j@k@l@<+m@n@o@p@Y X n a h q@! - h }@- # X X - a p X a n $.- %.&.r@y+' ' ' * @ @ @ @ @ @ @ * * @ @ * @ ",
"j.0.'+K /+i.%@g.Z J.X.s@t@u@v@Q w@- ;@e.9@+.x@y@z@m.A@B@; - - - -.;.>.C r ,.'.).+.B !.~.{.].^.C@/ ' /.@ @ @ @ @ @ ( ( * * @ @ @ ",
"j.j.j.o.o+o+o+].w.E 2.D@E@5 F@G@# X g.S *+P 4 4 h.m.<.G+%.= = - a (.I _.- :.<.[.x o U }.S *.|.1.H@I@@ @ @ @ * * ( / ( @ @ @ @ @ ",
"J@'+d@e.^+j.^+e.G+].K@L@M@n.Z N@O@h.E M A 1.P@Q@X h R@S@T@r # - 4.5.6.7. .h 8.R u 9.0.4 a.b.c.d.e.f.U@V@@ * @ @ ( ( [ @ @ @ @ @ ",
"W@X@Y@,+Z@J.v '+,+M X.`@`+X.^+5 f+L 1.y $.Y h # # # a H D $.- h g.v h.a - - $.x i.j.j.j.k.n r p Y x l. #.#@ @ @ @ @ @ @ @ @ @ @ ",
"W@+#W@@#u ##A+u X.u u  @`+$#S )@e.4 | q r +.- a # - G.%#e.&# .*#Y 5 m.# = - +.b |.D n.o.p.q - q.r.x o s.t.=#-#@ @ @ * * @ @ @ @ ",
"W@+#+#;#W@+#W@W@W@>#,#'#)#!#j.j.w.o.X - # # a G.- - G. .g.I -@S S g.h = = # a p u.Y x s x $.- v.w.].x x x s.o+~#@ @ @ @ @ @ @ @ ",
"W@+#+#W@W@+#W@W@W@+#{#]#D.s j.^#o /#$ (#- a G._#p a a h L.w.M l.x.- ..= = = - y.z.A.s } W $ - ~.B.C.D.].L e.n.>@:#@ @ * @ @ * @ ",
"+#+#+#W@W@>#+#W@+#<#R j.-+x x $.- # H.[#r G.$.Y X # = - a p x Y X # - = = = # - E.F.c.- G.a - - H.I.R j.w.J.j.R }#@ * * @ * * @ ",
"+#+#+#+#W@W@>#4+U R o ).} -.r.r r x +@'+|#w.t+1#- = = - r.W u.Y L.M.a # a # = - N.O.P.x ;  .b - r.Q.S o.J.R.U ^.2#@ @ @ @ * @ @ ",
"+#3#4#+#5#6#2.7#x x p a # # # h X F@w.'+A v ).X h = = # # X Y Y p r g r g a = # T.U.V.k.W. .W a # X g.S.e.e.X.Y.8#@ @ @ @ @ @ @ ",
"9#0#0#a#9.n+P+<+Z x o p N@b#,.} ).c#&+j.j.*+d#e#- = = - V+..|.A  +.+p L.W q a m.++@+L M w.#+$+L.h.} %+&+*+^.=+* * @ @ @ @ @ * @ ",
"y+* * y+f#g#R j.-+-+'+|.o.V.k.k.V.J.[+[+^+*+).a = = - # r h.S ^+-+s s x u.$.G.a ;+>+n.J.,+w.'+g.o.o s x *.)+h#@ * @ @ @ @ @ * @ ",
"@ * * @ !+S.4 ].^+j.j.&+j.J.Z *.J.e.[+j.^+u i#- = = a p j#k#S.s M *.a.A w.k.k.~+{+]+1.e.e.J.j.L l.^+j.x x /+l#@ @ @ @ * * @ * @ ",
"@ @ @ @ @ m#n#R }+}+R e.j.e.j.e.[+[+e.l.l.R o#a - # a p g.Q+n.k.Z J.t._+:+n.<+D L 1.R e.[+j.j.j.j.R }+j.J.j.p#@ @ @ @ * @ @ @ @ ",
"@ @ @ @ @ @ @ q#r#I+].n+e.e.e.[+[+j.J.E -+1.f+s#r.G.t#B.o.z -+b+s '+j.^+t.^.4 1.R.5 1+j.[+,+S o.{ 2+3+S 4+5+u#@ @ @ @ @ @ @ @ @ "};
