/* XPM */
static char * forest_right_up_xpm[] = {
"64 64 451 2",
"  	c #2F8136",
". 	c #2E7E35",
"+ 	c #151F20",
"@ 	c #084133",
"# 	c #499231",
"$ 	c #23612F",
"% 	c #0D3027",
"& 	c #095E31",
"* 	c #0B5D2E",
"= 	c #0098B2",
"- 	c #FF5442",
"; 	c #2D7B34",
"> 	c #122A23",
", 	c #0A592F",
"' 	c #0B5C2F",
") 	c #0B5C2E",
"! 	c #D9B75C",
"~ 	c #61A0EF",
"{ 	c #276730",
"] 	c #084432",
"^ 	c #0A612F",
"/ 	c #0B5B2E",
"( 	c #006B46",
"_ 	c #093230",
": 	c #0B572D",
"< 	c #0A5B2F",
"[ 	c #609EEC",
"} 	c #075435",
"| 	c #0B5F2E",
"1 	c #084A34",
"2 	c #2E8036",
"3 	c #2B7834",
"4 	c #064438",
"5 	c #074735",
"6 	c #084E33",
"7 	c #085234",
"8 	c #0B402B",
"9 	c #095631",
"0 	c #695B95",
"a 	c #083B33",
"b 	c #064437",
"c 	c #074436",
"d 	c #064637",
"e 	c #064538",
"f 	c #0E2024",
"g 	c #074535",
"h 	c #499031",
"i 	c #171F20",
"j 	c #0A342F",
"k 	c #0E1D22",
"l 	c #093831",
"m 	c #10171F",
"n 	c #0C2529",
"o 	c #0B612E",
"p 	c #2F7F36",
"q 	c #2B3E29",
"r 	c #0D2426",
"s 	c #074236",
"t 	c #11121D",
"u 	c #073E35",
"v 	c #0A5430",
"w 	c #2D7F35",
"x 	c #0B3829",
"y 	c #0D2326",
"z 	c #064036",
"A 	c #074336",
"B 	c #064137",
"C 	c #074E36",
"D 	c #074935",
"E 	c #095431",
"F 	c #0A5C2F",
"G 	c #2D7E35",
"H 	c #0F151E",
"I 	c #0B302C",
"J 	c #0B2E2C",
"K 	c #0A5730",
"L 	c #064037",
"M 	c #095531",
"N 	c #074936",
"O 	c #093A31",
"P 	c #297536",
"Q 	c #0F1B21",
"R 	c #083B32",
"S 	c #0C2B2A",
"T 	c #085533",
"U 	c #084F33",
"V 	c #0A5B30",
"W 	c #0F1C20",
"X 	c #075636",
"Y 	c #0F1A21",
"Z 	c #0B2F2C",
"` 	c #0D2728",
" .	c #083831",
"..	c #0C2929",
"+.	c #074835",
"@.	c #095731",
"#.	c #0E1E24",
"$.	c #074036",
"%.	c #0E1F24",
"&.	c #0F161E",
"*.	c #0B312B",
"=.	c #0A352D",
"-.	c #0F1921",
";.	c #084933",
">.	c #0A5830",
",.	c #0A5D30",
"'.	c #074D36",
").	c #064038",
"!.	c #2D7A34",
"~.	c #121E20",
"{.	c #074834",
"].	c #0F2522",
"^.	c #0B372B",
"/.	c #074A35",
"(.	c #064237",
"_.	c #0A5630",
":.	c #0A5831",
"<.	c #156C99",
"[.	c #293524",
"}.	c #0D2226",
"|.	c #084732",
"1.	c #064938",
"2.	c #0B2D2B",
"3.	c #073D35",
"4.	c #095032",
"5.	c #0C3E2A",
"6.	c #083A33",
"7.	c #083432",
"8.	c #0A5930",
"9.	c #0E1722",
"0.	c #0A632F",
"a.	c #073C34",
"b.	c #0B5C2D",
"c.	c #0E1E23",
"d.	c #0E1F23",
"e.	c #054739",
"f.	c #064138",
"g.	c #0E1C22",
"h.	c #083D33",
"i.	c #0C4D2B",
"j.	c #2F8036",
"k.	c #2F7A34",
"l.	c #074035",
"m.	c #083632",
"n.	c #094C32",
"o.	c #083C33",
"p.	c #074136",
"q.	c #0D2627",
"r.	c #073D36",
"s.	c #074E35",
"t.	c #075137",
"u.	c #0F1821",
"v.	c #084F35",
"w.	c #0B5E2E",
"x.	c #2C7A34",
"y.	c #0B2E2B",
"z.	c #073E34",
"A.	c #083A32",
"B.	c #083732",
"C.	c #093931",
"D.	c #5E5584",
"E.	c #073C36",
"F.	c #0B5F2D",
"G.	c #074635",
"H.	c #073D34",
"I.	c #0E1B22",
"J.	c #0B552E",
"K.	c #61558A",
"L.	c #0B2D2A",
"M.	c #0C2C2A",
"N.	c #073F35",
"O.	c #0E1D23",
"P.	c #064739",
"Q.	c #488F30",
"R.	c #22542A",
"S.	c #093630",
"T.	c #093E31",
"U.	c #095432",
"V.	c #093B31",
"W.	c #074636",
"X.	c #084C33",
"Y.	c #0A322D",
"Z.	c #81A100",
"`.	c #307531",
" +	c #0C2828",
".+	c #083E34",
"++	c #064337",
"@+	c #0A5F2F",
"#+	c #0B332B",
"$+	c #2C7833",
"%+	c #0E1E22",
"&+	c #064238",
"*+	c #084D33",
"=+	c #095331",
"-+	c #095232",
";+	c #0C2A29",
">+	c #094831",
",+	c #0C2729",
"'+	c #095532",
")+	c #42852E",
"!+	c #0A332D",
"~+	c #0E2124",
"{+	c #0C2928",
"]+	c #084D34",
"^+	c #0A342E",
"/+	c #0A352F",
"(+	c #093731",
"_+	c #095231",
":+	c #172222",
"<+	c #073F34",
"[+	c #083D34",
"}+	c #0C2D2B",
"|+	c #0F1920",
"1+	c #0A332E",
"2+	c #0F1820",
"3+	c #094731",
"4+	c #0A5E2F",
"5+	c #0B2A2B",
"6+	c #2F7D35",
"7+	c #172021",
"8+	c #083832",
"9+	c #10131D",
"0+	c #2C7332",
"a+	c #11181E",
"b+	c #0C2627",
"c+	c #0C2F28",
"d+	c #095333",
"e+	c #0B2D2C",
"f+	c #0D2526",
"g+	c #073F36",
"h+	c #0C532C",
"i+	c #093330",
"j+	c #121C1F",
"k+	c #10151E",
"l+	c #0A322E",
"m+	c #0A312D",
"n+	c #0B302D",
"o+	c #10141E",
"p+	c #18452A",
"q+	c #075436",
"r+	c #0E2623",
"s+	c #20502C",
"t+	c #2C7733",
"u+	c #0D2727",
"v+	c #0C2A2A",
"w+	c #101820",
"x+	c #0B2C2C",
"y+	c #073A34",
"z+	c #0A5530",
"A+	c #193725",
"B+	c #1A4628",
"C+	c #0B572E",
"D+	c #1A3225",
"E+	c #2D7C35",
"F+	c #074135",
"G+	c #074B36",
"H+	c #0B312D",
"I+	c #0B5D2F",
"J+	c #0B552D",
"K+	c #26602E",
"L+	c #11171E",
"M+	c #0D2023",
"N+	c #0B2B2A",
"O+	c #093730",
"P+	c #0B552C",
"Q+	c #084232",
"R+	c #09352F",
"S+	c #083830",
"T+	c #0C2D2A",
"U+	c #8F8A44",
"V+	c #064136",
"W+	c #0A2E2C",
"X+	c #05593C",
"Y+	c #2A7132",
"Z+	c #085334",
"`+	c #0C2025",
" @	c #0D2425",
".@	c #0C2B29",
"+@	c #0E2225",
"@@	c #154F34",
"#@	c #0A5A2F",
"$@	c #0E2222",
"%@	c #0E1C21",
"&@	c #0F1C22",
"*@	c #2B7332",
"=@	c #3B4E29",
"-@	c #074536",
";@	c #094732",
">@	c #0D2524",
",@	c #0D1F23",
"'@	c #2D4129",
")@	c #0C2526",
"!@	c #10161F",
"~@	c #074836",
"{@	c #09342E",
"]@	c #0F191F",
"^@	c #093A32",
"/@	c #05483A",
"(@	c #064638",
"_@	c #074736",
":@	c #073A35",
"<@	c #084934",
"[@	c #0F141D",
"}@	c #0A302C",
"|@	c #063F38",
"1@	c #095132",
"2@	c #216534",
"3@	c #0E1920",
"4@	c #0D2124",
"5@	c #0A582F",
"6@	c #0C2728",
"7@	c #085034",
"8@	c #0D2126",
"9@	c #0A2F2D",
"0@	c #0C2727",
"a@	c #093530",
"b@	c #243C28",
"c@	c #0C2A28",
"d@	c #0C2827",
"e@	c #018FA6",
"f@	c #10151F",
"g@	c #064336",
"h@	c #0B2C2A",
"i@	c #0D2527",
"j@	c #2A462A",
"k@	c #2C4A2B",
"l@	c #3A2413",
"m@	c #AC974E",
"n@	c #0B2B2B",
"o@	c #0A312E",
"p@	c #0A5E30",
"q@	c #074B35",
"r@	c #0E2125",
"s@	c #121E21",
"t@	c #101E22",
"u@	c #403329",
"v@	c #2F4E2C",
"w@	c #30512D",
"x@	c #2B3022",
"y@	c #322216",
"z@	c #3E271D",
"A@	c #2B2018",
"B@	c #086B5D",
"C@	c #064338",
"D@	c #074A37",
"E@	c #064639",
"F@	c #064839",
"G@	c #131B20",
"H@	c #30472B",
"I@	c #383628",
"J@	c #2B2F21",
"K@	c #3E2613",
"L@	c #62351C",
"M@	c #342215",
"N@	c #236734",
"O@	c #0A622F",
"P@	c #0F141F",
"Q@	c #0B292A",
"R@	c #085233",
"S@	c #054639",
"T@	c #0D2225",
"U@	c #0F1F21",
"V@	c #0A5D2F",
"W@	c #084B33",
"X@	c #0F1E22",
"Y@	c #202E24",
"Z@	c #313729",
"`@	c #304D2C",
" #	c #304E2D",
".#	c #31462B",
"+#	c #2B2920",
"@#	c #3C2513",
"##	c #161E21",
"$#	c #1F1C1E",
"%#	c #141E22",
"&#	c #65432D",
"*#	c #2A7634",
"=#	c #143124",
"-#	c #10161E",
";#	c #293726",
">#	c #2F2423",
",#	c #2F1F22",
"'#	c #2B1C1D",
")#	c #28201E",
"!#	c #744B30",
"~#	c #61341C",
"{#	c #545074",
"]#	c #084E34",
"^#	c #064236",
"/#	c #211E1A",
"(#	c #271D18",
"_#	c #1D191E",
":#	c #478930",
"<#	c #161F1F",
"[#	c #0B512D",
"}#	c #0F1B22",
"|#	c #3C6C26",
"1#	c #192422",
"2#	c #054239",
"3#	c #084C34",
"4#	c #0B2B2C",
"5#	c #0A6230",
"6#	c #121D21",
"7#	c #31622A",
"8#	c #074B37",
"9#	c #0F2221",
"0#	c #0C2428",
"a#	c #37702B",
"b#	c #095332",
"c#	c #0C2528",
"d#	c #0A422E",
"e#	c #0A302F",
"f#	c #418530",
"g#	c #164F36",
"h#	c #0A602F",
"i#	c #0F1721",
"j#	c #073B34",
"k#	c #223326",
"l#	c #32452B",
"m#	c #3C3C2B",
"n#	c #48332B",
"o#	c #246530",
"p#	c #094A32",
"q#	c #084B34",
"r#	c #0D3727",
"s#	c #094931",
"t#	c #083C34",
"u#	c #093932",
"v#	c #243426",
"w#	c #37412B",
"x#	c #111A20",
"y#	c #3D2513",
"z#	c #2E5A27",
"A#	c #074C37",
"B#	c #10141D",
"C#	c #161F20",
"D#	c #34442B",
"E#	c #182523",
"F#	c #3C2613",
"G#	c #233527",
"H#	c #074437",
"I#	c #085133",
"J#	c #0A302D",
"K#	c #09362F",
"L#	c #182723",
"M#	c #2F3B27",
"N#	c #293D29",
"O#	c #213125",
"P#	c #0D2325",
"Q#	c #122C25",
"R#	c #235A2D",
"                                                                                                                          . + @ ",
"                            # #         # # #             #                                 # #         # # #           $ % & * ",
"    # #               # =                 #     -         #         # #               # =                 #         ; > , ' ) ' ",
"                      = ! =       #         - - -       # #         ~                 = ! =       #               { ] ^ / ' ' ' ",
"            #         ( =     # # #         # - ! - -             ~ ! ~     #         ( =     # # #         #   _ : ' < ' ' ' ' ",
"          # #   # #   ( #         # # #       - - -       # #     [ ! ~   # #   # #   ( #         # # #       } | < ' ' ' ' ' ' ",
"          # #   ~ # #       # #     #         ( -         # #     ( ~ ~   # #   ~ # #       # #     #         1 * < ' ) ) ) ) ' ",
"          # # ~ ! ~ #     # #                     #               (       # # ~ ! ~ #     # #         2     3 4 5 ) < 6 7 8 9 ' ",
"                ~ (       #     ~ ~     # #     # #   # 0                       ~ (       #     ~ ~     # # a b c d c e f g ) ' ",
"                              ~ ! ~       #     # #   0 ! 0                                   ~ ! ~       h i f j k l m n o < ' ",
"      #                       ~ ~ #             #     ( 0             #                       ~ ~ #     p q r s s t l u v * < < ",
"      # 0 0   # # # #           ( #         - -                       # 0 0   # # # #           ( # w x k y z A B C D < < A E F ",
"        0 ! 0 # #                           - ! -                       0 ! 0 # #                 G H I b J K L M < < ) N * N O ",
"        0 ! 0       # # #   #               # - -     #                 0 ! 0       # # #   #   P Q R a S T * U ) ' ' V W X Y Z ",
"# #     ( 0 0       # #     # #     #       # (       # #     # # #     ( 0 0       # #     # # `  .m ..l +.) ) < ' ' @.#.m l $.",
"# #   # #                     # = # #                   #   # # # #   # #                     %.&.*.=.-.;.* U < , ) ) >.,.'.).) ",
"  # # #           ~ ~   # #   = = = #               # #     #     # # #           ~ ~   # # !.~.l {.].^./.(.K 5 * _.:./ ) _.M ) ",
"  # #   #         ~ ! ~   # = = ! = <.            ~ ~ # #         # #   #         ~ ! ~   # [.}.|.) 1.2.3.4.5.6.7.8.9.0.F ) ) ) ",
"      # #       # ( ~ ~       = = <.        # # ~ ! ~                 # #       # ( ~ ~   Y a.b.< K e c.d.e.f f f.8.g.h.i.' ' ) ",
"      #                         <.        #     ~ ~ (                 #   j.            k.R l.m.n.f.o...p.q.r.s.K _.t.u.v.w.< ) ",
"        #             #                                                 #             #   x.y.Y z.A.q.N +.(._.< < < * B.C.+.) _.",
"        #   #       # #   0         #   ~           # #                 #   #       # #   D.c.r 2.f E.F.w.4.) * < ) G.H.2.I.>.J.",
"            # # #   # # 0 ! 0     # # ~ ! ~   #                             # # #   # # K.L.M.M.N.Z K ) < < * G.) ) G.>.e O.P.c.",
"              # #   #     0 (           ~     # #     #     #                 # #   Q.R.S.s M.T.b U.| V.) * G.W.B * * _.X.N...Y.",
"      Z.Z.          -       # #               # #   # #   # #         Z.Z.        `. +M..++++++.) < @+#+w.G.+.(.K < ' ) * B ++(.",
"      Z.! Z.    # - ! -                           0 0     #           Z.! Z.  $+%+ +b &+*+=+-+w.w.++d ;+>+N.,+'+) ' ' ) -+L A (.",
"      ( Z.Z.# # # ( -       #         # #     # # 0 ! 0               ( Z.Z.)+!+++++B * < < < _.K a.N.;+p.k &+K _.' ' < < K (.(.",
"                          # #         #     # # # ( 0 0     #             ~+{+l l.++b B m.]+).*+&+^+/+M.M.d.(+_+) ' ' ) 6 , 4 p.",
"  # #     #       # #     #             = =     #           #     # #     :+ +M..+.+;+4 Z <+[+[+<+S }+}+y.d.&+* ' ' ) < w.f.c.y.",
"  # #     # #                   # #     = ! =         # #   #     # #   j.|+f I y.M.M./+M.S l.1+S 2.}+M.y.2+3+) ' ' * B 4+5+|+s ",
"            #                   #       ( = =         #                   6+7+ +` `  +2.M.2.M.2.}+}+2.Y.Y. +8+* ) < * B e 9+R [+",
"                                #                                             0+a+b+I ~+2.2.2.}+}+M.S o..+q.z.c+-+G.d+e+Z f+.+g+",
"                                                          . + @ h+i+j+            m k+y.M.`  +}+M.l+m+e n+{+9+P.p.(.e o+..m+(., ",
"                            # #         # # #           p+% & * < | q+r+s+      t+ +j ;+d.u+2.v+,+e ++u M.M.w+s 9+P.y ,+x+y+K z+",
"    # #               # =                 #     ~   A+B+, ' ) ' ' < ) F C+D+  E+q.s s F+m+Q 2.G+| G.G.>.(.<+2.H+Y.b &+>.K ) ) I+",
"    ~                 = ! =       #         ~ ~ ~ ~ ] ^ / ' ' ' ' ' ' ' / J+y K+L+M+<+N+N+[+++6 O+b ++u l.l+M.M.p.m+.+c * 6 ) ) ",
"  ~ ! ~     #         ( =     # # #         ~ ! ! : ' < ' ' ' ' ' ' ' ' ' F < P+Q+R+S+|+T+b s ++Z N..+;+;+2.}+2.M.M.z.+.5 +.) < ",
"  ~ ! ~   # #   # #   ( #         # # #       ~ U+< ' ' ' ' ' ' ' ' ' ' ' ) *+E.V+W+g.H+++H+l.Y.M.^+M.2.2+y.}+}+}+Y.l S.+++.U K ",
"  ( ~ ~   # #   ~ # #       # #     #         X+* < ' ) ) ) ) ' ' ' ' ' ' < ) E f Y 2.Q M.M.S  + + +q. + +M.M.2.S }+S ++++p.B >.",
"  (       # # ~ ! ~ #     # #           Y+    4 5 ) < 6 7 8 9 ' ' ' ' ' ' ' ' ) Z+`+ @O.k f 2.Y .@Y +@c.S M.C.M.u+~+y.H+l I (.1 ",
"                ~ (       #     ~ ~     # # @@b c d c e f g ) ' ' ' ' < * < ' < ) #@$@%@Z Y Q S m Z 2.2.M.m+e S y.&@|+y.M.1+p.++",
"                              ~ ! ~ *@    =@i f j k l m n o < ' ' ' ' ) -@_.E ) ) < ^ ;@>@,@S 2.2.M.}+M.M.I b [+I M.|+Z d.b S e ",
"      #                       ~ ~ #     '@q r s s t l u v * < < ) < ' ) 5 b B F.5 w.w.s s )@2+k M.2.2.Y.l+e ++s e S &@ +!@}+;+N.",
"      # 0 0   # # # #           ( #   x k y z A B C D < < A E F ++* ' ) N f+p.c ~@c -@C.s o.{@]@^@Z Z z.++N.l..+Y.M.Z |+..Y  +l+",
"        0 ! 0 # #                   H I b J K L M < < ) N * N O B.* ' ) ) B O./@f (@b A.....2+_@(.++b s s N.;+[+M.}+M.y.2.y.&@q.",
"        0 ! 0       # # #   #     . R a S T * U ) ' ' V W X Y Z :@* ' ' * <@e.}. +..c.[@%+}@|@b._.1@(.b b S.1+M.2.2.2.y.o.y.m+q.",
"# #     ( 0 0       # #     # #   2@m ..l +.) ) < ' ' @.#.m l $._.) ' ' < _.L K (.l.++3@k 4@M 5@c z+4 y.b ;+|+L.M. +6@M.z.p.^+M.",
"# #   # #                     # = *.=.-.;.* U < , ) ) >.,.'.).) >., , ' < w.4.K (.-@7@8@..S.~+9@0@a@S.M.m+..b@Q c@Y d@y.Y.n+b A.",
"  # # #           ~ ~   # #   = e@{.].^./.(.K 5 * _.:./ ) _.M ) < K K ) * B K * 5 +.) i.f@1+g@[+h@k M.M.M.i@j@k@L+l@q.|+2.M.o.;+",
"  # #   #         ~ ! ~   # = = m@) 1.2.3.4.5.6.7.8.9.0.F ) ) ) =+y+n@~@w.).o@&+4.c p@q@%.I r@r r b+;+s@t@u@v@w@x@y@z@A@..y.M.y.",
"      # #       # ( ~ ~       = B@K e c.d.e.f f f.8.g.h.i.' ' ) * C@O.D@) @.g.E@++b %+F@c.1+4 q.m f+G@H@H@I@w@w@J@K@L@M@;+2+y.2+",
"      #                       N@n.f.o...p.q.r.s.K _.t.u.v.w.< ) O@P@Q@R@>._.S@ +2+T@m+f i@U@V@W@2.X@Y@H@Z@`@ #.#+#K@L@@###$#%#&#",
"        #             #     *#=#z.A.q.N +.(._.< < < * B.C.+.) _.e k f.* ) ) +.++n+M.M.M.[+5 w.B (.++Y.-#;#>#,#'#'#K@L@K@K@)#!#~#",
"        #   #       # #   {#c.r 2.f E.F.w.4.) * < ) G.H.2.I.>.J.(.Y 8.< ' ) 4.#@4 C.R Z ]#F.) U -+++b ^#J d./#(#_#K@L@K@K@L@!#L@",
"            # # #   # :#<#L.M.M.N.Z K ) < < * G.) ) G.>.e O.P.c.c.e _.' ' < * B A (.++s +++.) [#N.I ++++++^#H+h@}#K@L@K@K@L@!#L@",
"              # #   |#1#S.s M.T.b U.| V.) * G.W.B * * _.X.N...Y.2#) , ' ' ' ) 3#4#5#s *+L | ) q@e+T+S.I A.2.R 6#K@~#K@K@K@L@!#L@",
"                  7# +M..++++++.) < @+#+w.G.+.(.K < ' ) * B ++(.K < ) ' ' ' < ) 8#9#V@) G.* ) ) @+0# +M.N.S M. +m K@'#K@K@L@!#L@",
"                a# +b &+*+=+-+w.w.++d ;+>+N.,+'+) ' ' ) -+L A (.X.1@* < * < ' ) b#c#d#++F >.#@) -+e#c.Z S 6@%+r@|+w+w+K@K@L@L@L@",
"            # f#g#++B * < < < _.K a.N.;+p.k &+K _.' ' < < K (.(.B w.-@w.-@* ' < h#i#<+[+j#>.L * < K e |+2.2.&@k#l#m#n#w+K@L@L@K@",
"            o#l l.++b B m.]+).*+&+^+/+M.M.d.(+_+) ' ' ) 6 , 4 p.p#q#B X.L F.* 8.r#s#A...N.t#u X.f.*+u#/+d.r@+@v#H@H@w#x#K@L@K@y#",
"  # #     z# +M..+.+;+4 Z <+[+[+<+S }+}+y.d.&+* ' ' ) < w.f.c.y..+s s ++A +.G.* A#B#R S .@N.;+e Z b s ++1+C#H@H@H@H@H@D#E#K@F#G#",
"  # #     |+f I y.M.M./+M.S l.1+S 2.}+M.y.2+3+) ' ' * B 4+5+|+s ..1+i@p.N.[+[+H#I#J#q.2.2.S M.A.Y.y.M.++++K#L#H@H@H@H@H@H@M#N#H@",
"            7+ +` `  +2.M.2.M.2.}+}+2.Y.Y. +8+* ) < * B e 9+R [+l.S J !@o+R l C.A.q. +2.}+M.M.M.M. +` M.S M.}#    H@H@H@H@H@H@H@",
"              O#a+b+I ~+2.2.2.}+}+M.S o..+q.z.c+-+G.d+e+Z f+.+g+s ;+M.y.J r@f q.6@Y a M.}+.@c.Z y P#Q c.k+Q#R#  H@H@H@H@H@H@    "};
