/* XPM */
static char * forest_up_xpm[] = {
"64 64 560 2",
"  	c #0C532C",
". 	c #093330",
"+ 	c #121C1F",
"@ 	c #2F8136",
"# 	c #10171F",
"$ 	c #10151E",
"% 	c #0B2E2B",
"& 	c #0C2C2A",
"* 	c #0D2728",
"= 	c #0C2828",
"- 	c #0C2D2B",
"; 	c #0A322E",
"> 	c #0A312D",
", 	c #064538",
"' 	c #0B302D",
") 	c #0C2928",
"! 	c #10131D",
"~ 	c #064739",
"{ 	c #074136",
"] 	c #064237",
"^ 	c #10141E",
"/ 	c #0C2929",
"( 	c #0A592F",
"_ 	c #074336",
": 	c #073F34",
"< 	c #0B2D2B",
"[ 	c #064437",
"} 	c #064537",
"| 	c #064337",
"1 	c #0C2B2A",
"2 	c #0B2F2C",
"3 	c #10161F",
"4 	c #0C2A29",
"5 	c #0F1820",
"6 	c #2C7733",
"7 	c #151F20",
"8 	c #084133",
"9 	c #0A5B2F",
"0 	c #0B5F2E",
"a 	c #075436",
"b 	c #0E2623",
"c 	c #2C7734",
"d 	c #296C31",
"e 	c #0A342F",
"f 	c #0E1F23",
"g 	c #0D2727",
"h 	c #0C2A2A",
"i 	c #0C2729",
"j 	c #073E35",
"k 	c #101820",
"l 	c #074236",
"m 	c #0D2326",
"n 	c #0B2C2C",
"o 	c #073A34",
"p 	c #0A5730",
"q 	c #0A5530",
"r 	c #0A5B30",
"s 	c #073F36",
"t 	c #064638",
"u 	c #0B302C",
"v 	c #074436",
"w 	c #0B5C2E",
"x 	c #094B32",
"y 	c #083932",
"z 	c #0E2024",
"A 	c #073E34",
"B 	c #083E34",
"C 	c #226433",
"D 	c #297232",
"E 	c #2E7E35",
"F 	c #1B4B2B",
"G 	c #0D3027",
"H 	c #095E31",
"I 	c #0B5D2E",
"J 	c #0B5C2F",
"K 	c #0A5C2F",
"L 	c #0B572E",
"M 	c #26632E",
"N 	c #0D2627",
"O 	c #074135",
"P 	c #0F1B21",
"Q 	c #074B36",
"R 	c #074635",
"S 	c #0A5830",
"T 	c #0B312D",
"U 	c #0A322D",
"V 	c #064238",
"W 	c #0B5D2F",
"X 	c #0B342B",
"Y 	c #0F1920",
"Z 	c #074035",
"` 	c #083D34",
" .	c #074835",
"..	c #0B5E2E",
"+.	c #084934",
"@.	c #0E2124",
"#.	c #162D23",
"$.	c #193725",
"%.	c #122A23",
"&.	c #0B5B2E",
"*.	c #0B552D",
"=.	c #26602E",
"-.	c #11171E",
";.	c #0D2023",
">.	c #0B2B2A",
",.	c #084E33",
"'.	c #093730",
").	c #095832",
"!.	c #0A332E",
"~.	c #0A392F",
"{.	c #084E34",
"].	c #083C33",
"^.	c #093630",
"/.	c #073F35",
"(.	c #0D1E22",
"_.	c #1C4228",
":.	c #084432",
"<.	c #0A612F",
"[.	c #0B552C",
"}.	c #084232",
"|.	c #09352F",
"1.	c #083830",
"2.	c #0C2D2A",
"3.	c #074735",
"4.	c #073E36",
"5.	c #0B2E2C",
"6.	c #0F1D22",
"7.	c #093230",
"8.	c #0B572D",
"9.	c #084D33",
"0.	c #073C36",
"a.	c #064136",
"b.	c #0A2E2C",
"c.	c #0E1C22",
"d.	c #0A342E",
"e.	c #093831",
"f.	c #084F33",
"g.	c #074B35",
"h.	c #0E2225",
"i.	c #083D33",
"j.	c #0A352F",
"k.	c #0C2627",
"l.	c #0E2923",
"m.	c #075435",
"n.	c #095431",
"o.	c #0F1A21",
"p.	c #064137",
"q.	c #074036",
"r.	c #0E1D23",
"s.	c #0C2B29",
"t.	c #064837",
"u.	c #084A34",
"v.	c #085334",
"w.	c #0C2025",
"x.	c #0D2425",
"y.	c #0E1D22",
"z.	c #0E1E23",
"A.	c #093931",
"B.	c #09362F",
"C.	c #0D2527",
"D.	c #0F1C22",
"E.	c #083A32",
"F.	c #0B2C2A",
"G.	c #0E2125",
"H.	c #133325",
"I.	c #26662F",
"J.	c #193E28",
"K.	c #0D2125",
"L.	c #064438",
"M.	c #085234",
"N.	c #0B402B",
"O.	c #095631",
"P.	c #0A5A2F",
"Q.	c #0E2222",
"R.	c #0E1C21",
"S.	c #2B7232",
"T.	c #2F7333",
"U.	c #499231",
"V.	c #3B6A2B",
"W.	c #083B33",
"X.	c #064637",
"Y.	c #074535",
"Z.	c #074536",
"`.	c #0A5630",
" +	c #094732",
".+	c #0D2524",
"++	c #0D1F23",
"@+	c #0E1F24",
"#+	c #1A3423",
"$+	c #41702C",
"%+	c #171F20",
"&+	c #0C2529",
"*+	c #0B612E",
"=+	c #0B5F2D",
"-+	c #0C2526",
";+	c #064938",
">+	c #163324",
",+	c #2E612F",
"'+	c #2B3E29",
")+	c #0D2426",
"!+	c #11121D",
"~+	c #0A5430",
"{+	c #074936",
"]+	c #0D2526",
"^+	c #074836",
"/+	c #09342E",
"(+	c #0F191F",
"_+	c #093A32",
":+	c #0D2225",
"<+	c #074337",
"[+	c #095331",
"}+	c #0B3829",
"|+	c #064036",
"1+	c #074E36",
"2+	c #074935",
"3+	c #083732",
"4+	c #05483A",
"5+	c #074736",
"6+	c #064038",
"7+	c #0B512B",
"8+	c #0F151E",
"9+	c #064037",
"0+	c #095531",
"a+	c #093A31",
"b+	c #073A35",
"c+	c #054739",
"d+	c #0D2226",
"e+	c #0F141D",
"f+	c #0E1E22",
"g+	c #0A302C",
"h+	c #063F38",
"i+	c #0B5C2D",
"j+	c #095132",
"k+	c #083B32",
"l+	c #085533",
"m+	c #0F1C20",
"n+	c #075636",
"o+	c #0E1920",
"p+	c #0D2124",
"q+	c #0A582F",
"r+	c #0B2D2A",
"s+	c #0C2728",
"t+	c #084C34",
"u+	c #083831",
"v+	c #095731",
"w+	c #0E1E24",
"x+	c #095032",
"y+	c #085034",
"z+	c #0D2126",
"A+	c #0A2F2D",
"B+	c #0C2727",
"C+	c #093530",
"D+	c #243C28",
"E+	c #0C2A28",
"F+	c #0C2827",
"G+	c #0B602D",
"H+	c #073D35",
"I+	c #0F161E",
"J+	c #0B312B",
"K+	c #0A352D",
"L+	c #0F1921",
"M+	c #084933",
"N+	c #0A5D30",
"O+	c #074D36",
"P+	c #0C4D2B",
"Q+	c #10151F",
"R+	c #064336",
"S+	c #2C632F",
"T+	c #2C512C",
"U+	c #3A2413",
"V+	c #374828",
"W+	c #1C2622",
"X+	c #1B2723",
"Y+	c #121E20",
"Z+	c #074834",
"`+	c #0F2522",
" @	c #0B372B",
".@	c #074A35",
"+@	c #0A5831",
"@@	c #0B2B2B",
"#@	c #0A312E",
"$@	c #0A5E30",
"%@	c #225D2C",
"&@	c #366D32",
"*@	c #2F7533",
"=@	c #2B3E24",
"-@	c #322216",
";@	c #3E271D",
">@	c #2B2018",
",@	c #294229",
"'@	c #2F442A",
")@	c #384B28",
"!@	c #293524",
"~@	c #084732",
"{@	c #0C3E2A",
"]@	c #083A33",
"^@	c #083432",
"/@	c #0A5930",
"(@	c #0E1722",
"_@	c #0A632F",
":@	c #064338",
"<@	c #074A37",
"[@	c #064639",
"}@	c #064839",
"|@	c #173223",
"1@	c #2F7934",
"2@	c #428230",
"3@	c #334558",
"4@	c #3E2613",
"5@	c #62351C",
"6@	c #342215",
"7@	c #2D4E29",
"8@	c #162221",
"9@	c #073C34",
"0@	c #064138",
"a@	c #0A622F",
"b@	c #0F141F",
"c@	c #0B292A",
"d@	c #085233",
"e@	c #054639",
"f@	c #0F1F21",
"g@	c #0A5D2F",
"h@	c #084B33",
"i@	c #0F1E22",
"j@	c #275B2C",
"k@	c #458830",
"l@	c #306931",
"m@	c #314E2C",
"n@	c #2B2920",
"o@	c #3C2513",
"p@	c #161E21",
"q@	c #1F1C1E",
"r@	c #141E22",
"s@	c #65432D",
"t@	c #171C20",
"u@	c #0F1B22",
"v@	c #2D482B",
"w@	c #322625",
"x@	c #083632",
"y@	c #094C32",
"z@	c #073D36",
"A@	c #074E35",
"B@	c #075137",
"C@	c #0F1821",
"D@	c #084F35",
"E@	c #205629",
"F@	c #2C622E",
"G@	c #2F3625",
"H@	c #2F1F22",
"I@	c #2B1C1D",
"J@	c #28201E",
"K@	c #744B30",
"L@	c #61341C",
"M@	c #1F1B1B",
"N@	c #31221D",
"O@	c #0F1A20",
"P@	c #3D3529",
"Q@	c #30472B",
"R@	c #095232",
"S@	c #064236",
"T@	c #211E1A",
"U@	c #271D18",
"V@	c #1D191E",
"W@	c #4D3729",
"X@	c #2F2117",
"Y@	c #3B4E29",
"Z@	c #2D4029",
"`@	c #073D34",
" #	c #0E1B22",
".#	c #0B552E",
"+#	c #0B512D",
"@#	c #2B1F1D",
"##	c #3A4B29",
"$#	c #161F1F",
"%#	c #054239",
"&#	c #0B2B2C",
"*#	c #0A6230",
"=#	c #0B2D2C",
"-#	c #121D21",
";#	c #2C1F17",
">#	c #192422",
",#	c #093E31",
"'#	c #095432",
")#	c #093B31",
"!#	c #074636",
"~#	c #084C33",
"{#	c #074B37",
"]#	c #0F2221",
"^#	c #0A5F2F",
"/#	c #0C2428",
"(#	c #0B332B",
"_#	c #095332",
":#	c #0C2528",
"<#	c #0A422E",
"[#	c #0A302F",
"}#	c #094831",
"|#	c #095532",
"1#	c #0A602F",
"2#	c #0F1721",
"3#	c #073B34",
"4#	c #223326",
"5#	c #3C3C2B",
"6#	c #48332B",
"7#	c #101A20",
"8#	c #3D2613",
"9#	c #332315",
"0#	c #0A332D",
"a#	c #094A32",
"b#	c #084B34",
"c#	c #0D3727",
"d#	c #094931",
"e#	c #083C34",
"f#	c #093932",
"g#	c #006B46",
"h#	c #5F5584",
"i#	c #111A20",
"j#	c #3D2513",
"k#	c #1E2E24",
"l#	c #34532D",
"m#	c #162524",
"n#	c #084D34",
"o#	c #093731",
"p#	c #095231",
"q#	c #074C37",
"r#	c #10141D",
"s#	c #161F20",
"t#	c #30562D",
"u#	c #307533",
"v#	c #182523",
"w#	c #3F4C1B",
"x#	c #2B6A31",
"y#	c #326731",
"z#	c #172222",
"A#	c #074437",
"B#	c #085133",
"C#	c #0A302D",
"D#	c #182723",
"E#	c #489031",
"F#	c #2F7D35",
"G#	c #428730",
"H#	c #094731",
"I#	c #0A5E2F",
"J#	c #0B2A2B",
"K#	c #366C2A",
"L#	c #083832",
"M#	c #0D2325",
"N#	c #122C25",
"O#	c #235A2D",
"P#	c #244A29",
"Q#	c #11181E",
"R#	c #0C2F28",
"S#	c #095333",
"T#	c #2F8036",
"U#	c #2F7F36",
"V#	c #0E2325",
"W#	c #2B7332",
"X#	c #245D2D",
"Y#	c #2D7B34",
"Z#	c #489131",
"`#	c #479131",
" $	c #256831",
".$	c #26652F",
"+$	c #61A0EF",
"@$	c #2B7532",
"#$	c #287234",
"$$	c #D9B75C",
"%$	c #297535",
"&$	c #5798D4",
"*$	c #408432",
"=$	c #2E7F36",
"-$	c #4778B1",
";$	c #2C7633",
">$	c #C9AD57",
",$	c #2C7834",
"'$	c #695B95",
")$	c #1C3F25",
"!$	c #2F7E35",
"~$	c #165733",
"{$	c #2A7232",
"]$	c #1C5F36",
"^$	c #133828",
"/$	c #226530",
"($	c #FF5442",
"_$	c #11422F",
":$	c #0C322C",
"<$	c #2C7935",
"[$	c #205D2F",
"}$	c #102021",
"|$	c #216334",
"1$	c #163B26",
"2$	c #0C342C",
"3$	c #297031",
"4$	c #1A4628",
"5$	c #16482D",
"6$	c #226130",
"7$	c #0B3930",
"8$	c #41742D",
"9$	c #104854",
"0$	c #098293",
"a$	c #1093A3",
"b$	c #103E2F",
"c$	c #2E7834",
"d$	c #2D582D",
"e$	c #4B7CB1",
"f$	c #0098B2",
"g$	c #156C99",
"h$	c #1B5230",
"i$	c #102826",
"j$	c #121E21",
"k$	c #101E22",
"l$	c #337734",
"m$	c #2C4927",
"n$	c #4C7FB1",
"o$	c #038C9E",
"p$	c #2A7634",
"q$	c #165738",
"r$	c #0E2B27",
"s$	c #131B20",
"t$	c #4C78B1",
"u$	c #2E6931",
"v$	c #297435",
"w$	c #2E7F35",
"x$	c #1E6634",
"y$	c #123D2C",
"z$	c #112B24",
"A$	c #213625",
"B$	c #30582D",
"C$	c #2D7D35",
"D$	c #2D7D36",
"E$	c #2D5F2B",
"F$	c #2B5F2A",
"G$	c #2B261E",
"H$	c #437E2F",
"I$	c #35702E",
"J$	c #3D3618",
"K$	c #43872F",
"L$	c #026C46",
"M$	c #438830",
"N$	c #3C431C",
"O$	c #81A100",
"P$	c #3A772C",
"Q$	c #2D622C",
"R$	c #2C7934",
"S$	c #1F5229",
"T$	c #132B22",
"U$	c #1D4C28",
"V$	c #3B4E21",
"W$	c #307C34",
"X$	c #40592F",
"Y$	c #2A6D30",
"Z$	c #1B4426",
"`$	c #3E2713",
" %	c #307C35",
".%	c #1B3625",
"+%	c #3E2B15",
"@%	c #3C2613",
"#%	c #233527",
"$%	c #2F7B34",
"%%	c #3E7A2E",
"&%	c #2F6E32",
"  . + @ @ @ @ @ @ # $ % & * = - & ; > , ' ) ! ~ { ] , ^ / > ] ( _ : < & & & : [ } | | 1 < & 2 3 # 4 $ , , = 5 @ @ @ @ @ @ 6 7 8 ",
"9 0 a b c @ @ @ d = e 4 f g < h i , | j & & k l ! ~ m i n o p q r s t % u ' [ v w x y g 4 < 1 & & & < z A [ B > C D E @ F G H I ",
"J 9 w K L M @ c N l l O > P < Q 0 R R S ] : < T U [ V S p w w W X : Y < 1 Z `  .R ..+.[ @.z [ l , T [ [ 2 | [ & P #.$.%.( J w J ",
"J J J J &.*.m =.-.;.: >.>.` | ,.'.[ | j Z ; & & { > B v I ,.w w ).i ' 5 & !.Z ~.v {.I s 2 P ].1 Z , [ ^./.g > ^.(._.:.<.&.J J J ",
"J J J J J K 9 [.}.|.1.Y 2.[ l | 2 /.B 4 4 < - < & & A  .3. .w 9 I 4.P < < < & > | 2 ] _ | * N & A 5.{ /.1 < 6.^ 7.8.J 9 J J J J ",
"J J J J J w 9.0.a.b.c.T | T Z U & d.& < 5 % - - - U e.^.|  .f.p g.; U Y % h.z 2 < > '., i.|.3 % & & 1 j.k.k.l.m.0 9 J J J J J J ",
"J J J J J 9 w n.z o.< P & & 1 = = = N = = & & < 1 - 1 | | { p.S q.Z P r.% # / 1 < > > ' 2 : o.% < & % P s.m t.u.I 9 J w w w w J ",
"J J J J J J J w v.w.x.r.y.z < o.s.o.h.z.1 & A.& g @.% T e.u ] u.5.B./ C.2 ) D.P < % & % < / ! E.4 F.G.H.I.J.K.L.3.w 9 ,.M.N.O.J ",
"J J J 9 I 9 J 9 w P.Q.R.2 o.P 1 # 2 < < & > , 1 % D.Y % & !.{ | | g = @.t < 2 # = Y % $ g = y | , = S.T.U.V.W.[ v X.v , z Y.w J ",
"J J J w Z.`.n.w w 9 <. +.+++1 < < & - & & u [ ` u & Y 2 f [ 1 , B & o.U | A & % = 5 @+o.= o.g ^.| ` #+T.@ $+%+z e y.e.# &+*+9 J ",
"w 9 J w 3.[ p.=+3.....l l -+5 y.& < < U ; , | l , 1 D.= 3 - 4 /.i.4 Y ~ l | ' < & < u < & % 1 , ] | ;+>+,+'+)+l l !+e.j ~+I 9 9 ",
"| I J w {+]+{ v ^+v Z.A.l ]./+(+_+2 2 A | /.Z B U & 2 Y / o.= ; % 3 :+L.<+{ i.4 < & l % B ' ` | [+_ I }+y.m |+_ p.1+2+9 9 _ n.K ",
"3+I J w w p.r.4+z t [ E./ / 5 5+] | [ l l /.4 ` & - & % < % D.N N y.% [ ] Z.] /.& < 1 & i.2 | Z 6+7+8+u [ 5.p 9+0+9 9 w {+I {+a+",
"b+I J J I +.c+d+= / z.e+f+g+h+i+`.j+] [ [ ^.!.& < < < % ].% > N N & : ] 9+..p |+% % & < & < { 1 { P k+W.1 l+I f.w J J r m+n+o.2 ",
"`.w J J 9 `.9+p ] Z | o+y.p+0+q+v q L.% [ 4 Y r+& = s+& A { d.& s.{ A  .t+u.u.] ~ Y & & < P 1 < * u+# / e. .w w 9 J J v+w+# e.q.",
"S ( ( J 9 ..x+p ] Z.y+z+/ ^.@.A+B+C+^.& > / D+P E+o.F+% U ' [ E.A.| |  .,.,.G+H+> '.= B+o.4 4 @+I+J+K+L+M+I f.9 ( w w S N+O+6+w ",
"9 p p w I p.p I 3. .w P+Q+!.R+` F.y.& & & C.S+T+-.U+N Y < & ].4 k+l : ] | /.p.: < & o.N V+W+X+Y+e.Z+`+ @.@] p 3.I `.+@&.w `.0+w ",
"[+o @@^+..6+#@V x+v $@g.@+u G.)+)+k.4 >+%@&@@ *@=@-@;@>@/ % & % & > 4 t B.' e , Z 1 D.,@'@)@!@d+~@w ;+< H+x+{@]@^@/@(@_@K w w w ",
"I :@r.<@w v+c.[@| [ f+}@z.!.L.N # ]+|@1@@ @ U.2@3@4@5@6@4 5 % 5 & & & 2 T T T u /.].# 7@8@o.9@i+9 p , z.f c+z z 0@/@c.i.P+J J w ",
"a@b@c@d@S `.e@= 5 :+> z C.f@g@h@< i@j@@ @ k@l@m@n@4@5@o@p@q@r@s@t@4 L+< % & % < i.u u@v@w@k+Z x@y@0@]./ { N z@A@p `.B@C@D@..9 w ",
", y.0@I w w  .| ' & & & ` 3...p.] | U E@F@G@H@I@I@4@5@4@4@J@K@L@5@M@N@s.O@1 y.4 s./ D.P@Q@D.% o.A E.N {+ .] `.9 9 9 I 3+A. .w `.",
"] o./@9 J w x+P.L.A.k+2 {.=+w f.R@| [ S@5.f T@U@V@4@5@4@4@5@K@5@5@4@5@W@5 X@6.5 D.5 5 Y@Q@Z@z.)+< z 0.=+..x+w I 9 w R `@<  #S .#",
"z., `.J J 9 I p._ ] | l |  .w +#/.u | | | S@T F.u@4@5@4@4@5@K@5@5@4@4@K@5@4@5@5@5@I@@###$#r+& & /.2 p w 9 9 I R w w R S , r.~ z.",
"%#w ( J J J w t+&#*#l 9.9+0 w g.=#2.^.u E.< k+-#4@L@4@4@4@5@K@5@5@4@4@5@5@4@5@5@5@4@;#>#^.l & ,#[ '#0 )#w I R !#p.I I `.~#/./ U ",
"p 9 w J J J 9 w {#]#g@w R I w w ^#/#= & /.1 & = # 4@I@4@4@5@K@5@4@4@4@5@5@I@4@5@4@6@= & B | |  .w 9 ^#(#..R  .] p 9 J w I p.| ] ",
"~#j+I 9 I 9 J w _#:#<#| K S P.w R@[#z.2 1 s+f+G.Y k k 4@4@5@5@5@4@4@4@4@5@5@I@$ f+= [ V 9.[+R@....| X.4 }#/.i |#w J J w R@9+_ ] ",
"p...Z...Z.I J 9 1#2#: ` 3#S 9+I 9 p , Y < < D.4#U.5#6#k 4@5@5@4@4@7#k 4@8#9## 0#| | p.I 9 9 9 `.p 9@/.4 { y.V p `.J J 9 9 p ] ] ",
"a#b#p.~#9+=+I /@c#d#E./ /.e#j ~#0@9.f#j.f G.h.U.U.g#h#i#4@5@4@j#k#@ l#m#:+@.) e.Z | [ p.x@n#6+9.V d.j.& & f o#p#w J J w ,.( L.{ ",
"B l l | _  .R I q#r#k+1 s./.4 , 2 [ l | !.s#t#@ U.@ @ u#v#4@w#x#@ U.U.@ y#z#= & B B 4 L.2 : ` ` : 1 - - % f V I J J w 9 ..0@z.% ",
"/ !.C.{ /.` ` A#B#C#N < < 1 & E.U % & | | B.D#@ @ @ @ E#Q@F#U.@ @ U.U.@ @ G#z u % & & j.& 1 Z !.1 < - & % 5 H#w J J I p.I#J#Y l ",
"Z 1 5.3 ^ k+e.A.E.N = < - & & & & = * & 1 & u@@ @ @ @ U.@ @ @ @ @ @ @ @ @ @ K#= * * = < & < & < - - < U U = L#I w 9 I p., ! k+` ",
"l 4 & % 5.G.z N s+o.W.& - s.z.2 m M#P z.$ N#O#@ @ @ @ @ @ @ @ @ @ @ @ @ @ @ @ P#Q#k.u @.< < < - - & 1 ].B N A R#R@R S#=#2 ]+B s ",
"_ : < & & & : [ } | | 1 < & 2 3 # 4 $ , , = 5 @ T#U#@ @ @ @ @ @ @ @ @ @ @ @ @ @ @ # $ % & * = - & ; > , ' ) ! ~ { ] , ^ / > ] ( ",
"r s t % u ' [ v w x y g 4 < 1 & & & < z A [ B > e V#W#@ @ U.@ @ @ @ @ @ @ @ @ @ X#= e 4 f g < h i , | j & & k l ! ~ m i n o p q ",
"X : Y < 1 Z `  .R ..+.[ @.z [ l , T [ [ 2 | [ & P #.Y#@ @ U.@ @ @ @ Z#`#@ @ @ @  $l l O > P < Q 0 R R S ] : < T U [ V S p w w W ",
").i ' 5 & !.Z ~.v {.I s 2 P ].1 Z , [ ^./.g > ^.(..$T#@ U.U.@ @ @ @ +$@ @ @ @ @ @$;.: >.>.` | ,.'.[ | j Z ; & & { > B v I ,.w w ",
"I 4.P < < < & > | 2 ] _ | * N & A 5.{ /.1 < 6.^ #$+$+$@ @ @ @ @ @ +$$$+$@ @ U.@ %$|.1.Y 2.[ l | 2 /.B 4 4 < - < & & A  .3. .w 9 ",
"g.; U Y % h.z 2 < > '., i.|.3 % & & 1 j.k.k.l.&$$$+$@ @ @ U.U.@ @ +$$$+$@ U.U.@ *$b.c.T | T Z U & d.& < 5 % - - - U e.^.|  .f.p ",
"q.Z P r.% # / 1 < > > ' 2 : o.% < & % P s.m =$g#+$@ @ @ @ U.U.@ @ g#+$+$@ U.U.@ -$o.< P & & 1 = = = N = = & & < 1 - 1 | | { p.S ",
"5.B./ C.2 ) D.P < % & % < / ! E.4 F.G.r.;$E @ @ @ U.@ @ @ @ @ @ @ g#@ @ @ U.U.+$>$w.x.r.y.z < o.s.o.h.z.1 & A.& g @.% T e.u ] u.",
"| g = @.t < 2 # = Y % $ g = y | , = ,$@ U.U.@ @ U.U.@ U.'$@ @ @ @ @ @ @ @ @ @ @ +$g#Q.R.2 o.P 1 # 2 < < & > , 1 % D.Y % & !.{ | ",
"B & o.U | A & % = 5 @+o.= o.g ^.| ` )$!$@ U.@ @ U.U.@ '$$$'$@ @ @ @ @ @ @ @ @ @ @ @ @ ~$.+++1 < < & - & & u [ ` u & Y 2 f [ 1 , ",
"i.4 Y ~ l | ' < & < u < & % 1 , ] | ;+{$@ @ @ @ U.@ @ g#'$@ @ @ @ @ @ U.@ @ @ @ @ @ @ @ ]$^$5 y.& < < U ; , | l , 1 D.= 3 - 4 /.",
"% 3 :+L.<+{ i.4 < & l % B ' ` | [+_ I /$@ @ ($($@ @ @ @ @ @ @ @ @ @ @ U.'$'$@ U.U.U.U.@ @ @ _$(+_+2 2 A | /.Z B U & 2 Y / o.= ; ",
"N y.% [ ] Z.] /.& < 1 & i.2 | Z 6+7+8+:$@ @ ($$$($@ @ @ @ @ @ @ @ @ @ @ '$$$'$U.U.@ @ @ <$[$}$5+] | [ l l /.4 ` & - & % < % D.N ",
"N & : ] 9+..p |+% % & < & < { 1 { P k+|$@ @ U.($($@ @ U.@ @ @ @ @ @ @ @ '$$$'$@ @ @ U.U.1$2$h+i+`.j+] [ [ ^.!.& < < < % ].% > N ",
"s.{ A  .t+u.u.] ~ Y & & < P 1 < * u+3$@ @ @ U.g#@ @ @ U.U.@ @ U.U.U.@ @ g#'$'$@ @ @ U.U.4$p+0+q+v q L.% [ 4 Y r+& = s+& A { d.& ",
"A.| |  .,.,.G+H+> '.= B+o.4 4 @+I+5$U.@ @ @ @ @ @ @ @ @ U.@ U.U.U.U.@ U.U.@ @ @ @ @ @ @ 6$7$@.A+B+C+^.& > / D+P E+o.F+% U ' [ E.",
"k+l : ] | /.p.: < & o.N 8$W+@ 9$0$a$U.@ @ @ @ @ @ @ U.U.@ @ U.@ @ U.U.U.@ @ @ @ @ +$+$@ Y#b$R+` F.y.& & & C.c$d$-.U+N Y < & ].4 ",
"& > 4 t B.' e , Z 1 D.e$@ U.f$f$$$f$g$@ @ @ @ @ @ +$+$U.U.@ @ @ @ U.U.@ U.@ @ @ @ +$$$+$@ h$i$)+)+k.4 j$k$l$@ @ m$-@;@>@/ % & % ",
"& & & 2 T T T u /.].# n$@ D @ o$f$g$@ @ @ @ U.U.+$$$+$@ @ @ @ @ @ @ @ U.U.@ @ @ U.g#+$+$@ p$q$r$# ]+s$Q@Q@@ U.U.t$4@5@6@4 5 % 5 ",
"t@4 L+< % & % < i.u u@u$@ v$@ T#g$@ @ @ @ U.@ @ +$+$g#@ @ @ @ @ @ @ @ U.@ @ @ @ @ @ @ @ @ @ w$x$y$z$A$B$@ U.@ U#n@4@5@o@p@q@r@s@",
"5@M@N@s.O@1 y.4 s./ D.U.@ @ C$@ @ @ @ @ @ @ @ @ @ @ @ @ @ @ @ @ @ @ @ @ U.@ @ @ @ @ @ U.@ @ @ @ =$D$@ @ @ @ @ E$I@4@5@4@4@J@K@L@",
"5@4@5@W@5 X@6.5 D.5 5 U.@ '$@ @ @ @ U.@ +$@ @ @ @ @ U.U.@ @ @ @ @ @ @ @ U.@ U.@ @ @ U.U.@ '$@ @ @ @ U.@ +$@ @ F$V@4@5@4@4@5@K@5@",
"5@4@4@K@5@4@5@5@5@I@G$H$'$$$'$@ @ U.U.+$$$+$@ U.@ @ @ @ @ @ @ @ @ @ @ @ @ @ U.U.U.@ U.U.'$$$'$@ @ U.U.+$$$+$@ I$u@4@5@4@4@5@K@5@",
"5@4@4@5@5@4@5@5@5@J$K$@ @ '$L$@ @ @ @ @ +$@ @ U.U.@ @ U.@ @ U.@ @ @ @ @ @ @ @ U.U.@ U.@ @ '$g#@ @ @ @ @ +$@ @ M$4@L@4@4@4@5@K@5@",
"4@4@4@5@5@I@4@5@N$@ ($@ @ @ U.U.@ @ @ @ @ @ @ U.U.@ U.U.@ U.U.@ @ @ @ O$O$@ @ @ @ @ ($@ @ @ U.U.@ @ @ @ @ @ @ U.P$4@I@4@4@5@K@5@",
"4@4@4@4@5@5@Q$R$U.($$$($@ @ @ @ @ @ @ @ @ @ @ @ @ '$'$@ @ U.@ @ @ @ @ O$$$O$@ @ U.($$$($@ @ @ @ @ @ @ @ @ @ @ @ @ S$k 4@4@5@5@5@",
"4@T$U$V$W$@ U.U.U.g#($@ @ @ U.@ @ @ @ U.U.@ @ U.U.'$$$'$@ @ @ @ @ @ @ g#O$O$U.U.U.g#($@ @ @ U.@ @ @ @ U.U.@ @ U.U.@ X$k 4@5@5@4@",
"Y$@ @ @ @ @ @ @ @ @ @ @ @ U.U.@ @ @ @ U.@ @ U.U.U.g#'$'$@ @ U.@ @ @ @ @ @ @ @ @ @ @ @ @ @ U.U.@ @ @ @ U.@ @ U.U.U.@ @ Z$`$5@4@j#",
"@ U.U.@ @ U.@ @ @ U.U.@ @ U.@ @ @ @ @ @ f$f$@ @ U.@ @ @ @ @ U.@ @ U.U.@ @ U.@ @ @ U.U.@ @ U.@ @ @ @ @ @ f$f$@ @ U.@ @  %.%+%@%#%",
"@ U.U.@ @ U.U.@ @ @ @ @ @ @ @ @ U.U.@ @ f$$$f$@ @ @ @ U.U.@ U.@ @ U.U.@ @ U.U.@ @ @ @ @ @ @ @ @ U.U.@ @ f$$$f$@ @ @ @ U.U.$%%%&%",
"@ @ @ @ @ @ U.@ @ @ @ @ @ @ @ @ U.@ @ @ g#f$f$@ @ @ @ U.@ @ @ @ @ @ @ @ @ @ U.@ @ @ @ @ @ @ @ @ U.@ @ @ g#f$f$@ @ @ @ U.@ @ @ @ ",
"@ @ @ @ @ @ @ @ @ @ @ @ @ @ @ @ U.@ @ @ @ @ @ @ @ @ @ @ @ @ @ @ @ @ @ @ @ @ @ @ @ @ @ @ @ @ @ @ U.@ @ @ @ @ @ @ @ @ @ @ @ @ @ @ "};
