/* XPM */
static char * forest_left_xpm[] = {
"64 64 515 2",
"  	c #2F8136",
". 	c #10171F",
"+ 	c #10151E",
"@ 	c #0B2E2B",
"# 	c #0C2C2A",
"$ 	c #0D2728",
"% 	c #0C2828",
"& 	c #0C2D2B",
"* 	c #0A322E",
"= 	c #0A312D",
"- 	c #064538",
"; 	c #0B302D",
"> 	c #0C2928",
", 	c #10131D",
"' 	c #064739",
") 	c #074136",
"! 	c #064237",
"~ 	c #10141E",
"{ 	c #0C2929",
"] 	c #0A592F",
"^ 	c #074336",
"/ 	c #073F34",
"( 	c #0B2D2B",
"_ 	c #064437",
": 	c #064537",
"< 	c #064337",
"[ 	c #0C2B2A",
"} 	c #0B2F2C",
"| 	c #10161F",
"1 	c #0C2A29",
"2 	c #0F1820",
"3 	c #1C4225",
"4 	c #084133",
"5 	c #2F8036",
"6 	c #0A342F",
"7 	c #0E1F23",
"8 	c #0D2727",
"9 	c #0C2A2A",
"0 	c #0C2729",
"a 	c #073E35",
"b 	c #101820",
"c 	c #074236",
"d 	c #0D2326",
"e 	c #0B2C2C",
"f 	c #073A34",
"g 	c #0A5730",
"h 	c #0A5530",
"i 	c #0A5B30",
"j 	c #073F36",
"k 	c #064638",
"l 	c #0B302C",
"m 	c #074436",
"n 	c #0B5C2E",
"o 	c #094B32",
"p 	c #083932",
"q 	c #0E2024",
"r 	c #073E34",
"s 	c #083E34",
"t 	c #184329",
"u 	c #18452A",
"v 	c #225029",
"w 	c #095E31",
"x 	c #0B5D2E",
"y 	c #499231",
"z 	c #0D2627",
"A 	c #074135",
"B 	c #0F1B21",
"C 	c #074B36",
"D 	c #0B5F2E",
"E 	c #074635",
"F 	c #0A5830",
"G 	c #0B312D",
"H 	c #0A322D",
"I 	c #064238",
"J 	c #0B5D2F",
"K 	c #0B342B",
"L 	c #0F1920",
"M 	c #074035",
"N 	c #083D34",
"O 	c #074835",
"P 	c #0B5E2E",
"Q 	c #084934",
"R 	c #0E2124",
"S 	c #162D23",
"T 	c #193725",
"U 	c #122A23",
"V 	c #0B5C2F",
"W 	c #11171E",
"X 	c #0D2023",
"Y 	c #0B2B2A",
"Z 	c #084E33",
"` 	c #093730",
" .	c #095832",
"..	c #0A332E",
"+.	c #0A392F",
"@.	c #084E34",
"#.	c #083C33",
"$.	c #093630",
"%.	c #073F35",
"&.	c #0D1E22",
"*.	c #1C4228",
"=.	c #084432",
"-.	c #0A612F",
";.	c #0B5B2E",
">.	c #084232",
",.	c #09352F",
"'.	c #083830",
").	c #0C2D2A",
"!.	c #074735",
"~.	c #0A5B2F",
"{.	c #073E36",
"].	c #0B2E2C",
"^.	c #0F1D22",
"/.	c #093230",
"(.	c #0B572D",
"_.	c #347234",
":.	c #0A2E2C",
"<.	c #0E1C22",
"[.	c #0A342E",
"}.	c #093831",
"|.	c #084F33",
"1.	c #074B35",
"2.	c #0E2225",
"3.	c #083D33",
"4.	c #0A352F",
"5.	c #0C2627",
"6.	c #0E2923",
"7.	c #075435",
"8.	c #5D9AE7",
"9.	c #0F1A21",
"0.	c #064137",
"a.	c #074036",
"b.	c #0E1D23",
"c.	c #0C2B29",
"d.	c #064837",
"e.	c #084A34",
"f.	c #61A0EF",
"g.	c #D9B75C",
"h.	c #5791D9",
"i.	c #224B28",
"j.	c #0E1D22",
"k.	c #0E1E23",
"l.	c #093931",
"m.	c #09362F",
"n.	c #0D2527",
"o.	c #0F1C22",
"p.	c #083A32",
"q.	c #0B2C2A",
"r.	c #0E2125",
"s.	c #1F4C2A",
"t.	c #193E28",
"u.	c #0D2125",
"v.	c #064438",
"w.	c #085234",
"x.	c #0B402B",
"y.	c #095631",
"z.	c #006B46",
"A.	c #25672F",
"B.	c #2A7032",
"C.	c #30472B",
"D.	c #3B4E29",
"E.	c #2E3D26",
"F.	c #083B33",
"G.	c #064637",
"H.	c #074535",
"I.	c #0D1F23",
"J.	c #0E1F24",
"K.	c #161F20",
"L.	c #171F20",
"M.	c #0C2529",
"N.	c #0B612E",
"O.	c #2D7F35",
"P.	c #064938",
"Q.	c #121D21",
"R.	c #2D4129",
"S.	c #2B3E29",
"T.	c #0D2426",
"U.	c #11121D",
"V.	c #0A5430",
"W.	c #695B95",
"X.	c #246A33",
"Y.	c #0F191F",
"Z.	c #093A32",
"`.	c #0D2225",
" +	c #074337",
".+	c #095331",
"++	c #0B3829",
"@+	c #064036",
"#+	c #074E36",
"$+	c #074935",
"%+	c #095431",
"&+	c #0A5C2F",
"*+	c #2E7E35",
"=+	c #074736",
"-+	c #074536",
";+	c #064038",
">+	c #0B512B",
",+	c #0F151E",
"'+	c #064037",
")+	c #095531",
"!+	c #074936",
"~+	c #093A31",
"{+	c #3F8333",
"]+	c #0B5C2D",
"^+	c #0A5630",
"/+	c #095132",
"(+	c #083B32",
"_+	c #085533",
":+	c #0F1C20",
"<+	c #075636",
"[+	c #408631",
"}+	c #0A582F",
"|+	c #0B2D2A",
"1+	c #0C2728",
"2+	c #084C34",
"3+	c #083831",
"4+	c #095731",
"5+	c #0E1E24",
"6+	c #297232",
"7+	c #0A2F2D",
"8+	c #0C2727",
"9+	c #093530",
"0+	c #0C2A28",
"a+	c #0C2827",
"b+	c #0B602D",
"c+	c #073D35",
"d+	c #0F161E",
"e+	c #0B312B",
"f+	c #0A352D",
"g+	c #0F1921",
"h+	c #084933",
"i+	c #0A5D30",
"j+	c #074D36",
"k+	c #2D7C36",
"l+	c #3A2413",
"m+	c #374828",
"n+	c #1C2622",
"o+	c #1B2723",
"p+	c #121E20",
"q+	c #074834",
"r+	c #0F2522",
"s+	c #0B372B",
"t+	c #074A35",
"u+	c #0A5831",
"v+	c #0098B2",
"w+	c #077184",
"x+	c #21572B",
"y+	c #2C7934",
"z+	c #2B3022",
"A+	c #322216",
"B+	c #3E271D",
"C+	c #2B2018",
"D+	c #294229",
"E+	c #2F442A",
"F+	c #384B28",
"G+	c #293524",
"H+	c #0D2226",
"I+	c #084732",
"J+	c #095032",
"K+	c #0C3E2A",
"L+	c #083A33",
"M+	c #083432",
"N+	c #0A5930",
"O+	c #0E1722",
"P+	c #0A632F",
"Q+	c #0096B0",
"R+	c #04869D",
"S+	c #115272",
"T+	c #21572A",
"U+	c #2B2F21",
"V+	c #3E2613",
"W+	c #62351C",
"X+	c #342215",
"Y+	c #2D4E29",
"Z+	c #162221",
"`+	c #073C34",
" @	c #054739",
".@	c #064138",
"+@	c #0C4D2B",
"@@	c #156C99",
"#@	c #489031",
"$@	c #31562D",
"%@	c #2B2920",
"&@	c #3C2513",
"*@	c #161E21",
"=@	c #1F1C1E",
"-@	c #141E22",
";@	c #65432D",
">@	c #171C20",
",@	c #0F1B22",
"'@	c #2D482B",
")@	c #322625",
"!@	c #083632",
"~@	c #094C32",
"{@	c #073D36",
"]@	c #074E35",
"^@	c #075137",
"/@	c #0F1821",
"(@	c #084F35",
"_@	c #2F2423",
":@	c #2F4227",
"<@	c #2B1C1D",
"[@	c #28201E",
"}@	c #744B30",
"|@	c #61341C",
"1@	c #1F1B1B",
"2@	c #31221D",
"3@	c #0F1A20",
"4@	c #3D3529",
"5@	c #083732",
"6@	c #2E7F36",
"7@	c #211E1A",
"8@	c #271D18",
"9@	c #1D191E",
"0@	c #4D3729",
"a@	c #2F2117",
"b@	c #2D4029",
"c@	c #073C36",
"d@	c #0B5F2D",
"e@	c #073D34",
"f@	c #0E1B22",
"g@	c #0B552E",
"h@	c #2B1F1D",
"i@	c #3A4B29",
"j@	c #161F1F",
"k@	c #2C1F17",
"l@	c #192422",
"m@	c #093E31",
"n@	c #095432",
"o@	c #093B31",
"p@	c #074636",
"q@	c #084C33",
"r@	c #81A100",
"s@	c #FF5442",
"t@	c #356B29",
"u@	c #0A5F2F",
"v@	c #0B332B",
"w@	c #2D7B34",
"x@	c #0E1E22",
"y@	c #084D33",
"z@	c #095232",
"A@	c #094831",
"B@	c #095532",
"C@	c #478E31",
"D@	c #64578B",
"E@	c #997F44",
"F@	c #101A20",
"G@	c #3D2613",
"H@	c #332315",
"I@	c #0A332D",
"J@	c #463E65",
"K@	c #3D2513",
"L@	c #1E2E24",
"M@	c #2F7333",
"N@	c #317333",
"O@	c #162524",
"P@	c #084D34",
"Q@	c #093731",
"R@	c #095231",
"S@	c #317032",
"T@	c #182523",
"U@	c #3C2613",
"V@	c #264C2A",
"W@	c #2F7F36",
"X@	c #35422B",
"Y@	c #172222",
"Z@	c #2F7E35",
"`@	c #488F31",
" #	c #094731",
".#	c #0A5E2F",
"+#	c #0B2A2B",
"@#	c #2F7A34",
"##	c #172021",
"$#	c #083832",
"%#	c #2C7332",
"&#	c #11181E",
"*#	c #0C2F28",
"=#	c #095333",
"-#	c #0B2D2C",
";#	c #0D2526",
">#	c #296E30",
",#	c #0C532C",
"'#	c #093330",
")#	c #121C1F",
"!#	c #0F2726",
"~#	c #0D3027",
"{#	c #075436",
"]#	c #0E2623",
"^#	c #286C31",
"/#	c #296C31",
"(#	c #1F4D29",
"_#	c #0B572E",
":#	c #1A3225",
"<#	c #2C7734",
"[#	c #609EEC",
"}#	c #335E78",
"|#	c #0B552D",
"1#	c #26602E",
"2#	c #CDAC57",
"3#	c #0B552C",
"4#	c #2D7C34",
"5#	c #064136",
"6#	c #145737",
"7#	c #085334",
"8#	c #0C2025",
"9#	c #0D2425",
"0#	c #154F34",
"a#	c #0A5A2F",
"b#	c #0E2222",
"c#	c #0E1C21",
"d#	c #094732",
"e#	c #0D2524",
"f#	c #609FED",
"g#	c #0C2526",
"h#	c #2E8036",
"i#	c #074836",
"j#	c #09342E",
"k#	c #05483A",
"l#	c #184026",
"m#	c #073A35",
"n#	c #0F141D",
"o#	c #0A302C",
"p#	c #063F38",
"q#	c #499131",
"r#	c #17452B",
"s#	c #0E1920",
"t#	c #0D2124",
"u#	c #356C2B",
"v#	c #085034",
"w#	c #0D2126",
"x#	c #2A6630",
"y#	c #10151F",
"z#	c #064336",
"A#	c #22612F",
"B#	c #2E6C31",
"C#	c #488D30",
"D#	c #0B2B2B",
"E#	c #0A312E",
"F#	c #0A5E30",
"G#	c #121E21",
"H#	c #20572B",
"I#	c #327834",
"J#	c #2F7D35",
"K#	c #2B3E24",
"L#	c #064338",
"M#	c #074A37",
"N#	c #064639",
"O#	c #064839",
"P#	c #131B20",
"Q#	c #306330",
"R#	c #476FA1",
"S#	c #2F7F35",
"T#	c #0A622F",
"U#	c #0F141F",
"V#	c #0B292A",
"W#	c #085233",
"X#	c #054639",
"Y#	c #0F1F21",
"Z#	c #0A5D2F",
"`#	c #084B33",
" $	c #0F1E22",
".$	c #202E24",
"+$	c #2F7B35",
"@$	c #307233",
"#$	c #2D3034",
"$$	c #10161E",
"%$	c #2E7A34",
"&$	c #2F562B",
"*$	c #2B231E",
"=$	c #65598F",
"-$	c #064236",
";$	c #64578E",
">$	c #0B512D",
",$	c #44852D",
"'$	c #054239",
")$	c #0B2B2C",
"!$	c #0A6230",
"~$	c #307531",
"{$	c #074B37",
"]$	c #0F2221",
"^$	c #0C2428",
"/$	c #095332",
"($	c #0C2528",
"_$	c #0A422E",
":$	c #0A302F",
"<$	c #307631",
"[$	c #0A602F",
"}$	c #0F1721",
"|$	c #073B34",
"1$	c #396F2C",
"2$	c #3F732E",
"3$	c #366631",
"4$	c #377333",
"5$	c #094A32",
"6$	c #084B34",
"7$	c #0D3727",
"8$	c #094931",
"9$	c #083C34",
"0$	c #093932",
"a$	c #2A7231",
"b$	c #074C37",
"c$	c #10141D",
"d$	c #436D25",
"e$	c #29642F",
"f$	c #478F30",
"g$	c #074437",
"h$	c #085133",
"i$	c #0A302D",
"j$	c #182723",
"k$	c #468B30",
"l$	c #2F7B34",
"m$	c #366C2A",
"n$	c #213125",
"o$	c #0D2325",
"p$	c #122C25",
"                  . + @ # $ % & # * = - ; > , ' ) ! - ~ { = ! ] ^ / ( # # # / _ : < < [ ( # } | . 1 + - - % 2               3 4 ",
"                5 % 6 1 7 8 ( 9 0 - < a # # b c , ' d 0 e f g h i j k @ l ; _ m n o p 8 1 ( [ # # # ( q r _ s = 6 t     u v w x ",
"    y y         z c c A = B ( C D E E F ! / ( G H _ I F g n n J K / L ( [ M N O E P Q _ R q _ c - G _ _ } < _ # B S T U ] V n V ",
"                W X / Y Y N < Z ` _ < a M * # # ) = s m x Z n n  .0 ; 2 # ..M +.m @.x j } B #.[ M - _ $.%.8 = $.&.*.=.-.;.V V V ",
"            y   >.,.'.L )._ c < } %.s 1 1 ( & ( # # r O !.O n ~.x {.B ( ( ( # = < } ! ^ < $ z # r ].) %.[ ( ^.~ /.(.V ~.V V V V ",
"          y y   _.:.<.G < G M H # [.# ( 2 @ & & & H }.$.< O |.g 1.* H L @ 2.q } ( = ` - 3.,.| @ # # [ 4.5.5.6.7.D ~.V V V V V V ",
"          y y   8.9.( B # # [ % % % z % % # # ( [ & [ < < ) 0.F a.M B b.@ . { [ ( = = ; } / 9.@ ( # @ B c.d d.e.x ~.V n n n n V ",
"          y y f.g.h.i.b.j.q ( 9.c.9.2.k.[ # l.# 8 R @ G }.l ! e.].m.{ n.} > o.B ( @ # @ ( { , p.1 q.r.b.s.t.u.v.!.n ~.Z w.x.y.V ",
"                f.z.  A.} 9.B [ . } ( ( # = - [ @ o.L @ # ..) < < 8 % R k ( } . % L @ + 8 % p < - % B.C.D.E.F._ m G.m - q H.n V ",
"                          I.[ ( ( # & # # l _ N l # L } 7 _ [ - s # 9.H < r # @ % 2 J.9.% 9.8 $.< N K.C.C.D.L.q 6 j.}.. M.N.~.V ",
"      y     5     O.5       2 j.# ( ( H * - < c - [ o.% | & 1 %.3.1 L ' c < ; ( # ( l ( # @ [ - ! < P.Q.R.S.T.c c U.}.a V.x ~.~.",
"      y W.W.  y y y y       X.Y.Z.} } r < %.M s H # } L { 9.% * @ | `.v. +) 3.1 ( # c @ s ; N < .+^ x ++j.d @+^ 0.#+$+~.~.^ %+&+",
"        W.g.W.y y           *+=+! < _ c c %.1 N # & # @ ( @ o.z z j.@ _ ! -+! %.# ( [ # 3.} < M ;+>+,+l _ ].g '+)+~.~.n !+x !+~+",
"        W.g.W.      y y y   {+]+^+/+! _ _ $...# ( ( ( @ #.@ = z z # / ! '+P g @+@ @ # ( # ( ) [ ) B (+F.[ _+x |.n V V i :+<+9.} ",
"y y     z.W.W.      y y     [+}+m h v.@ _ 1 L |+# % 1+# r ) [.# c.) r O 2+e.e.! ' L # # ( B [ ( $ 3+. { }.O n n ~.V V 4+5+. }.a.",
"y y   y y                   6+7+8+9+$.# = {   B 0+9.a+@ H ; _ p.l.< < O Z Z b+c+= ` % 8+9.1 1 J.d+e+f+g+h+x |.~.] n n F i+j+;+n ",
"  y y y           f.f.  y y k+N q.j.# # #       W l+z L ( # #.1 (+c / ! < %.0./ ( # 9.z m+n+o+p+}.q+r+s+t+! g !.x ^+u+;.n ^+)+n ",
"  y y   y         f.g.f.  y v+w+T.5.1 x+y+      z+A+B+C+{ @ # @ # = 1 k m.; 6 - M [ o.D+E+F+G+H+I+n P.( c+J+K+L+M+N+O+P+&+n n n ",
"      y y       y z.f.f.      Q+R+S+T+      y y U+V+W+X+1 2 @ 2 # # # } G G G l %.#.. Y+Z+9.`+]+~.g - k.7  @q q .@N+<.3.+@V V n ",
"      y                         @@        #@  $@%@V+W+&@*@=@-@;@>@1 g+( @ # @ ( 3.l ,@'@)@(+M !@~@.@#.{ ) z {@]@g ^+^@/@(@P ~.n ",
"        y             y                   _@:@<@<@V+W+V+V+[@}@|@W+1@2@c.3@[ j.1 c.{ o.4@C.o.@ 9.r p.z !+O ! ^+~.~.~.x 5@l.O n ^+",
"        y   y       y y   W.        y   f.6@7@8@9@V+W+V+V+W+}@W+W+V+W+0@2 a@^.2 o.2 2 D.C.b@k.T.( q c@d@P J+n x ~.n E e@( f@F g@",
"            y y y   y y W.g.W.    y y f.g.f.  q.,@V+W+V+V+W+}@W+W+V+V+}@W+V+W+W+W+<@h@i@j@|+# # %.} g n ~.~.x E n n E F - b.' k.",
"              y y   y     W.z.          f.    y V+|@V+V+V+W+}@W+W+V+V+W+W+V+W+W+W+V+k@l@$.c # m@_ n@D o@n x E p@0.x x ^+q@%.{ H ",
"      r@r@          s@      y y       5       y t@V+<@V+V+W+}@W+V+V+V+W+W+<@V+W+V+X+% # s < < O n ~.u@v@P E O ! g ~.V n x 0.< ! ",
"      r@g.r@    y s@g.s@              5         w@b b V+V+W+W+W+V+V+V+V+W+W+<@+ x@% _ I y@.+z@P P < G.1 A@%.0 B@n V V n z@'+^ ! ",
"      z.r@r@y y y z.s@      y         y C@    y y D@E@b V+W+W+V+V+F@b V+G@H@. I@< < 0.x ~.~.~.^+g `+%.1 ) j.I g ^+V V ~.~.g ! ! ",
"                          y y         y     y y y z.W.J@V+W+V+K@L@M@N@O@`.R > }.M < _ 0.!@P@;+y@I [.4.# # 7 Q@R@n V V n Z ] v.) ",
"  y y     y       y y     y             v+v+    y     S@T@V+U@V@W@y y 5 X@Y@% # s s 1 v.} / N N / [ & & @ 7 I x V V n ~.P .@k.@ ",
"  y y     y y                   y y     v+g.v+        y y Z@`@    y y   5 L q l @ # # 4.# [ M ..[ ( & # @ 2  #n V V x 0..#+#L c ",
"            y                   y       z.v+v+        y                   @###% $ $ % ( # ( # ( & & ( H H % $#x n ~.x 0.- , (+N ",
"                                y                                             %#&#5.l R ( ( ( & & # [ #.s z r *#z@E =#-#} ;#s j ",
"                                                          5 >#4 ,#'#)#            . + @ # $ % & # * = - ; > , ' ) ! - ~ { = ! ] ",
"                            y y 5       y y y           !#~#w x ~.D {#]#^#      /#% 6 1 7 8 ( 9 0 - < a # # b c , ' d 0 e f g h ",
"    y y               y v+                y     f.  (#U ] V n V V ~.n &+_#:#  <#z c c A = B ( C D E E F ! / ( G H _ I F g n n J ",
"    f.                v+g.v+      y         f.f.[#}#=.-.;.V V V V V V V ;.|#d 1#W X / Y Y N < Z ` _ < a M * # # ) = s m x Z n n ",
"  f.g.f.    y         z.v+    y y y         f.2#/.(.V ~.V V V V V V V V V &+~.3#>.,.'.L )._ c < } %.s 1 1 ( & ( # # r O !.O n ~.",
"  f.g.f.  y y   y y   z.y         y y y     4#7.D ~.V V V V V V V V V V V n y@c@5#:.<.G < G M H # [.# ( 2 @ & & & H }.$.< O |.g ",
"  z.f.f.  y y   f.y y       y y     y       6#e.x ~.V n n n n V V V V V V ~.n %+q 9.( B # # [ % % % z % % # # ( [ & [ < < ) 0.F ",
"  z.      y y f.g.f.y     y y               u.v.!.n ~.Z w.x.y.V V V V V V V V n 7#8#9#b.j.q ( 9.c.9.2.k.[ # l.# 8 R @ G }.l ! e.",
"                f.z.      y     f.f.    y y 0#_ m G.m - q H.n V V V V ~.x ~.V ~.n a#b#c#} 9.B [ . } ( ( # = - [ @ o.L @ # ..) < ",
"                              f.g.f.      y L.q 6 j.}.. M.N.~.V V V V n -+^+%+n n ~.-.d#e#I.[ ( ( # & # # l _ N l # L } 7 _ [ - ",
"      y                       f.f#y   5   S.T.c c U.}.a V.x ~.~.n ~.V n !._ 0.d@!.P P c c g#2 j.# ( ( H * - < c - [ o.% | & 1 %.",
"      y W.W.  y y y y         h#z.y   ++j.d @+^ 0.#+$+~.~.^ %+&+< x V n !+;#) m i#m -+l.c #.j#Y.Z.} } r < %.M s H # } L { 9.% * ",
"        W.g.W.y y           6@      ,+l _ ].g '+)+~.~.n !+x !+~+5@x V n n 0.b.k#q k _ p.{ { 2 =+! < _ c c %.1 N # & # @ ( @ o.z ",
"        W.g.W.      y y y h#y     l#(+F.[ _+x |.n V V i :+<+9.} m#x V V x Q  @H+% { k.n#x@o#p#]+^+/+! _ _ $...# ( ( ( @ #.@ = z ",
"y y     z.W.W.      y y     y q#r#3+. { }.O n n ~.V V 4+5+. }.a.^+n V V ~.^+'+g ! M < s#j.t#)+}+m h v.@ _ 1 L |+# % 1+# r ) [.# ",
"y y   y y                     u#d+e+f+g+h+x |.~.] n n F i+j+;+n F ] ] V ~.P J+g ! -+v#w#{ $.R 7+8+9+$.# = { x#B 0+9.a+@ H ; _ p.",
"  y y y           f.f.  y y *+p+}.q+r+s+t+! g !.x ^+u+;.n ^+)+n ~.g g n x 0.g x !.O n +@y#..z#N q.j.# # # A#  B#W l+z L ( # #.1 ",
"  y y   y         f.g.f.  C#G+H+I+n P.( c+J+K+L+M+N+O+P+&+n n n .+f D#i#P ;+E#I J+m F#1.J.l r.T.T.5.1 G#H#I#  J#K#A+B+C+{ @ # @ ",
"      y y       y z.f.f.5 9.`+]+~.g - k.7  @q q .@N+<.3.+@V V n x L#b.M#n 4+<.N#< _ x@O#k...v.z . ;#P#Q#    y y R#V+W+X+1 2 @ 2 ",
"      y                 S#(+M !@~@.@#.{ ) z {@]@g ^+^@/@(@P ~.n T#U#V#W#F ^+X#% 2 `.= q n.Y#Z#`#(  $.$+$  y   @$#$V+W+&@*@=@-@;@",
"        y             y   A.@ 9.r p.z !+O ! ^+~.~.~.x 5@l.O n ^+- j..@x n n O < ; # # # N !.P 0.! < H $$%$  &$*$<@V+W+V+V+[@}@|@",
"        y   y       y y   =$k.T.( q c@d@P J+n x ~.n E e@( f@F g@! 9.N+~.V n J+a#v.l.(+} @.d@n |.z@< _ -$].7 7@8@9@V+W+V+V+W+}@W+",
"            y y y   y C#;$|+# # %.} g n ~.~.x E n n E F - b.' k.k.- ^+V V ~.x 0.^ ! < c < O n >$%.l < < < -$G q.,@V+W+V+V+W+}@W+",
"              y y   ,$l@$.c # m@_ n@D o@n x E p@0.x x ^+q@%.{ H '$n ] V V V n 2+)$!$c y@'+D n 1.-#).$.l p.( (+Q.V+|@V+V+V+W+}@W+",
"                  ~$% # s < < O n ~.u@v@P E O ! g ~.V n x 0.< ! g ~.n V V V ~.n {$]$Z#n E x n n u@^$% # %.[ # % . V+<@V+V+W+}@W+",
"                x@% _ I y@.+z@P P < G.1 A@%.0 B@n V V n z@'+^ ! q@/+x ~.x ~.V n /$($_$< &+F a#n z@:$k.} [ 1+x@r.L b b V+V+W+W+W+",
"          <$. I@< < 0.x ~.~.~.^+g `+%.1 ) j.I g ^+V V ~.~.g ! ! 0.P -+P -+x V ~.[$}$/ N |$F '+x ~.g - L ( ( o.1$2$3$4$b V+W+W+V+",
"          R > }.M < _ 0.!@P@;+y@I [.4.# # 7 Q@R@n V V n Z ] v.) 5$6$0.q@'+d@x N+7$8$p.{ %.9$a q@.@y@0$4.7 r.u#y y     a$V+W+V+K@",
"  y y     Y@% # s s 1 v.} / N N / [ & & @ 7 I x V V n ~.P .@k.@ s c c < ^ O E x b$c$(+[ c.%.1 - } _ c < ..K.C.Z@y     Z@T@V+d$e$",
"  y y     f$q l @ # # 4.# [ M ..[ ( & # @ 2  #n V V x 0..#+#L c { ..n.) %.N N g$h$i$z ( ( [ # p.H @ # < < m.j$@#      y k$l$y   ",
"            m$% $ $ % ( # ( # ( & & ( H H % $#x n ~.x 0.- , (+N M [ ].| ~ (+}.l.p.z % ( & # # # # % $ # [ # ,@        y         ",
"              n$&#5.l R ( ( ( & & # [ #.s z r *#z@E =#-#} ;#s j c 1 # @ ].r.q z 1+9.F.# & c.k.} d o$B k.+ p$                    "};
