/* XPM */
static char * forest_right_xpm[] = {
"64 64 504 2",
"  	c #0C532C",
". 	c #093330",
"+ 	c #121C1F",
"@ 	c #2F8136",
"# 	c #10171F",
"$ 	c #10151E",
"% 	c #0B2E2B",
"& 	c #0C2C2A",
"* 	c #0D2728",
"= 	c #0C2828",
"- 	c #0C2D2B",
"; 	c #0A322E",
"> 	c #0A312D",
", 	c #064538",
"' 	c #0B302D",
") 	c #0C2928",
"! 	c #10131D",
"~ 	c #064739",
"{ 	c #074136",
"] 	c #064237",
"^ 	c #10141E",
"/ 	c #0C2929",
"( 	c #0A592F",
"_ 	c #074336",
": 	c #073F34",
"< 	c #0B2D2B",
"[ 	c #064437",
"} 	c #064537",
"| 	c #064337",
"1 	c #0C2B2A",
"2 	c #0B2F2C",
"3 	c #10161F",
"4 	c #0C2A29",
"5 	c #0F1820",
"6 	c #0A5B2F",
"7 	c #0B5F2E",
"8 	c #075436",
"9 	c #0E2623",
"0 	c #21512B",
"a 	c #0A342F",
"b 	c #0E1F23",
"c 	c #0D2727",
"d 	c #0C2A2A",
"e 	c #0C2729",
"f 	c #073E35",
"g 	c #101820",
"h 	c #074236",
"i 	c #0D2326",
"j 	c #0B2C2C",
"k 	c #073A34",
"l 	c #0A5730",
"m 	c #0A5530",
"n 	c #0A5B30",
"o 	c #073F36",
"p 	c #064638",
"q 	c #0B302C",
"r 	c #074436",
"s 	c #0B5C2E",
"t 	c #094B32",
"u 	c #083932",
"v 	c #0E2024",
"w 	c #073E34",
"x 	c #083E34",
"y 	c #297334",
"z 	c #499231",
"A 	c #0B5C2F",
"B 	c #0A5C2F",
"C 	c #0B572E",
"D 	c #1A3225",
"E 	c #286B31",
"F 	c #0D2627",
"G 	c #074135",
"H 	c #0F1B21",
"I 	c #074B36",
"J 	c #074635",
"K 	c #0A5830",
"L 	c #0B312D",
"M 	c #0A322D",
"N 	c #064238",
"O 	c #0B5D2F",
"P 	c #0B342B",
"Q 	c #0F1920",
"R 	c #074035",
"S 	c #083D34",
"T 	c #074835",
"U 	c #0B5E2E",
"V 	c #084934",
"W 	c #0E2124",
"X 	c #0B5B2E",
"Y 	c #0B552D",
"Z 	c #26602E",
"` 	c #11171E",
" .	c #0D2023",
"..	c #0B2B2A",
"+.	c #084E33",
"@.	c #093730",
"#.	c #0B5D2E",
"$.	c #095832",
"%.	c #0A332E",
"&.	c #0A392F",
"*.	c #084E34",
"=.	c #083C33",
"-.	c #093630",
";.	c #073F35",
">.	c #2D7D35",
",.	c #0B552C",
"'.	c #084232",
").	c #09352F",
"!.	c #083830",
"~.	c #0C2D2A",
"{.	c #074735",
"].	c #073E36",
"^.	c #0B2E2C",
"/.	c #0F1D22",
"(.	c #084D33",
"_.	c #073C36",
":.	c #064136",
"<.	c #0A2E2C",
"[.	c #0E1C22",
"}.	c #0A342E",
"|.	c #093831",
"1.	c #084F33",
"2.	c #074B35",
"3.	c #0E2225",
"4.	c #083D33",
"5.	c #0A352F",
"6.	c #0C2627",
"7.	c #184628",
"8.	c #2E8036",
"9.	c #095431",
"0.	c #0F1A21",
"a.	c #064137",
"b.	c #074036",
"c.	c #0E1D23",
"d.	c #0C2B29",
"e.	c #17432A",
"f.	c #085334",
"g.	c #0C2025",
"h.	c #0D2425",
"i.	c #0E1D22",
"j.	c #0E1E23",
"k.	c #093931",
"l.	c #084A34",
"m.	c #09362F",
"n.	c #0D2527",
"o.	c #0F1C22",
"p.	c #083A32",
"q.	c #0B2C2A",
"r.	c #0E2125",
"s.	c #2E7D35",
"t.	c #2D7B34",
"u.	c #2F8036",
"v.	c #0A5A2F",
"w.	c #0E2222",
"x.	c #0E1C21",
"y.	c #074536",
"z.	c #0A5630",
"A.	c #0A612F",
"B.	c #094732",
"C.	c #0D2524",
"D.	c #0D1F23",
"E.	c #0E1F24",
"F.	c #161F20",
"G.	c #0B5F2D",
"H.	c #0C2526",
"I.	c #064938",
"J.	c #121D21",
"K.	c #2F7934",
"L.	c #074936",
"M.	c #0D2526",
"N.	c #074836",
"O.	c #09342E",
"P.	c #0F191F",
"Q.	c #093A32",
"R.	c #0D2225",
"S.	c #064438",
"T.	c #074337",
"U.	c #095331",
"V.	c #226530",
"W.	c #FF5442",
"X.	c #083732",
"Y.	c #05483A",
"Z.	c #074736",
"`.	c #064038",
" +	c #0B512B",
".+	c #0F151E",
"++	c #2D7C35",
"@+	c #D9B75C",
"#+	c #073A35",
"$+	c #054739",
"%+	c #0D2226",
"&+	c #0F141D",
"*+	c #0E1E22",
"=+	c #0A302C",
"-+	c #063F38",
";+	c #0B5C2D",
">+	c #095132",
",+	c #064037",
"'+	c #064036",
")+	c #297435",
"!+	c #0E1920",
"~+	c #0D2124",
"{+	c #095531",
"]+	c #0A582F",
"^+	c #0B2D2A",
"/+	c #0C2728",
"(+	c #084C34",
"_+	c #297233",
":+	c #006B46",
"<+	c #095032",
"[+	c #085034",
"}+	c #0D2126",
"|+	c #0A2F2D",
"1+	c #0C2727",
"2+	c #093530",
"3+	c #243C28",
"4+	c #0C2A28",
"5+	c #0C2827",
"6+	c #0B602D",
"7+	c #073D35",
"8+	c #226230",
"9+	c #0098B2",
"0+	c #0C4D2B",
"a+	c #10151F",
"b+	c #064336",
"c+	c #2A462A",
"d+	c #2C4A2B",
"e+	c #3A2413",
"f+	c #083B32",
"g+	c #0B2B2B",
"h+	c #0A312E",
"i+	c #0A5E30",
"j+	c #0D2426",
"k+	c #121E21",
"l+	c #101E22",
"m+	c #403329",
"n+	c #2F4E2C",
"o+	c #30512D",
"p+	c #2B3022",
"q+	c #322216",
"r+	c #3E271D",
"s+	c #2B2018",
"t+	c #61A0EF",
"u+	c #156C99",
"v+	c #064338",
"w+	c #074A37",
"x+	c #095731",
"y+	c #064639",
"z+	c #064839",
"A+	c #131B20",
"B+	c #30472B",
"C+	c #383628",
"D+	c #2B2F21",
"E+	c #3E2613",
"F+	c #62351C",
"G+	c #342215",
"H+	c #0A622F",
"I+	c #0F141F",
"J+	c #0B292A",
"K+	c #085233",
"L+	c #054639",
"M+	c #0F1F21",
"N+	c #0A5D2F",
"O+	c #084B33",
"P+	c #0F1E22",
"Q+	c #202E24",
"R+	c #313729",
"S+	c #304D2C",
"T+	c #304E2D",
"U+	c #31462B",
"V+	c #2B2920",
"W+	c #3C2513",
"X+	c #161E21",
"Y+	c #1F1C1E",
"Z+	c #141E22",
"`+	c #65432D",
" @	c #171C20",
".@	c #0F1921",
"+@	c #0F1B22",
"@@	c #064138",
"#@	c #10161E",
"$@	c #293726",
"%@	c #2F2423",
"&@	c #2F1F22",
"*@	c #2B1C1D",
"=@	c #28201E",
"-@	c #744B30",
";@	c #61341C",
">@	c #1F1B1B",
",@	c #31221D",
"'@	c #0F1A20",
")@	c #0A5930",
"!@	c #095232",
"~@	c #064236",
"{@	c #211E1A",
"]@	c #271D18",
"^@	c #1D191E",
"/@	c #4D3729",
"(@	c #2F2117",
"_@	c #488C30",
":@	c #695B95",
"<@	c #0B512D",
"[@	c #3C6C28",
"}@	c #499131",
"|@	c #054239",
"1@	c #0B2B2C",
"2@	c #0A6230",
"3@	c #0B2D2C",
"4@	c #376128",
"5@	c #074B37",
"6@	c #0F2221",
"7@	c #0A5F2F",
"8@	c #0C2428",
"9@	c #307230",
"0@	c #084C33",
"a@	c #095332",
"b@	c #0C2528",
"c@	c #0A422E",
"d@	c #0A302F",
"e@	c #478F30",
"f@	c #0A602F",
"g@	c #0F1721",
"h@	c #073B34",
"i@	c #396F2C",
"j@	c #3F732E",
"k@	c #564D70",
"l@	c #48332B",
"m@	c #101A20",
"n@	c #235F2C",
"o@	c #3D2613",
"p@	c #332315",
"q@	c #489031",
"r@	c #094A32",
"s@	c #084B34",
"t@	c #0D3727",
"u@	c #094931",
"v@	c #083C34",
"w@	c #093932",
"x@	c #356C2B",
"y@	c #65598F",
"z@	c #111A20",
"A@	c #3D2513",
"B@	c #1E2E24",
"C@	c #276830",
"D@	c #2E7E35",
"E@	c #074C37",
"F@	c #10141D",
"G@	c #2F7633",
"H@	c #2F7F36",
"I@	c #25612E",
"J@	c #436D25",
"K@	c #29642F",
"L@	c #074437",
"M@	c #085133",
"N@	c #0A302D",
"O@	c #0C7A8E",
"P@	c #028DA5",
"Q@	c #083B33",
"R@	c #0D2325",
"S@	c #122C25",
"T@	c #2F7F35",
"U@	c #1C4225",
"V@	c #084133",
"W@	c #164B30",
"X@	c #2D7B35",
"Y@	c #18452A",
"Z@	c #0D3027",
"`@	c #095E31",
" #	c #20502C",
".#	c #162D23",
"+#	c #26642E",
"@#	c #122A23",
"##	c #0D1E22",
"$#	c #1C4228",
"%#	c #084432",
"&#	c #093230",
"*#	c #0B572D",
"=#	c #0E2923",
"-#	c #075435",
";#	c #064837",
">#	c #40812E",
",#	c #1F4C2A",
"'#	c #193E28",
")#	c #0D2125",
"!#	c #085234",
"~#	c #0B402B",
"{#	c #095631",
"]#	c #2A7032",
"^#	c #3B4E29",
"/#	c #2E3D26",
"(#	c #064637",
"_#	c #074535",
":#	c #297232",
"<#	c #171F20",
"[#	c #0C2529",
"}#	c #0B612E",
"|#	c #2C7C36",
"1#	c #2D4129",
"2#	c #2B3E29",
"3#	c #11121D",
"4#	c #0A5430",
"5#	c #297536",
"6#	c #0B3829",
"7#	c #074E36",
"8#	c #074935",
"9#	c #216635",
"0#	c #093A31",
"a#	c #085533",
"b#	c #0F1C20",
"c#	c #075636",
"d#	c #478F31",
"e#	c #083831",
"f#	c #0E1E24",
"g#	c #2B7834",
"h#	c #0F161E",
"i#	c #0B312B",
"j#	c #0A352D",
"k#	c #084933",
"l#	c #0A5D30",
"m#	c #074D36",
"n#	c #17462C",
"o#	c #374828",
"p#	c #1C2622",
"q#	c #1B2723",
"r#	c #121E20",
"s#	c #074834",
"t#	c #0F2522",
"u#	c #0B372B",
"v#	c #074A35",
"w#	c #0A5831",
"x#	c #21512F",
"y#	c #294229",
"z#	c #2F442A",
"A#	c #384B28",
"B#	c #293524",
"C#	c #084732",
"D#	c #0C3E2A",
"E#	c #083A33",
"F#	c #083432",
"G#	c #0E1722",
"H#	c #0A632F",
"I#	c #0195AE",
"J#	c #2D4E29",
"K#	c #162221",
"L#	c #073C34",
"M#	c #097083",
"N#	c #156A96",
"O#	c #2D482B",
"P#	c #322625",
"Q#	c #083632",
"R#	c #094C32",
"S#	c #073D36",
"T#	c #074E35",
"U#	c #075137",
"V#	c #0F1821",
"W#	c #084F35",
"X#	c #28622E",
"Y#	c #3D3529",
"Z#	c #2D6B30",
"`#	c #2D4029",
" $	c #073D34",
".$	c #0E1B22",
"+$	c #0B552E",
"@$	c #184228",
"#$	c #29602A",
"$$	c #2B1F1D",
"%$	c #3A4B29",
"&$	c #161F1F",
"*$	c #346E2E",
"=$	c #2C1F17",
"-$	c #192422",
";$	c #093E31",
">$	c #095432",
",$	c #093B31",
"'$	c #074636",
")$	c #488B2F",
"!$	c #0B332B",
"~$	c #3A742B",
"{$	c #094831",
"]$	c #095532",
"^$	c #184025",
"/$	c #0A332D",
"($	c #468930",
"_$	c #2F7E35",
":$	c #162524",
"<$	c #084D34",
"[$	c #093731",
"}$	c #095231",
"|$	c #35422B",
"1$	c #172222",
"2$	c #306931",
"3$	c #094731",
"4$	c #0A5E2F",
"5$	c #0B2A2B",
"6$	c #154F59",
"7$	c #2F7D35",
"8$	c #172021",
"9$	c #083832",
"0$	c #087084",
"a$	c #213125",
"b$	c #11181E",
"c$	c #0C2F28",
"d$	c #095333",
"e$	c #2B7333",
"  . + @ @ @ @ @ @ # $ % & * = - & ; > , ' ) ! ~ { ] , ^ / > ] ( _ : < & & & : [ } | | 1 < & 2 3 # 4 $ , , = 5 @ @ @ @ @ @ @ @ @ ",
"6 7 8 9 @ @ @ @ 0 = a 4 b c < d e , | f & & g h ! ~ i e j k l m n o p % q ' [ r s t u c 4 < 1 & & & < v w [ x y @ @ @ @ @ z @ @ ",
"A 6 s B C D @ E F h h G > H < I 7 J J K ] : < L M [ N K l s s O P : Q < 1 R S T J U V [ W v [ h , L [ [ 2 | [ & @ @ @ @ @ z @ @ ",
"A A A A X Y i Z `  .: ....S | +.@.[ | f R ; & & { > x r #.+.s s $.e ' 5 & %.R &.r *.#.o 2 H =.1 R , [ -.;.c > -.>.@ @ @ z z @ @ ",
"A A A A A B 6 ,.'.).!.Q ~.[ h | 2 ;.x 4 4 < - < & & w T {.T s 6 #.].H < < < & > | 2 ] _ | * F & w ^.{ ;.1 < /.^ @ @ @ @ @ @ @ @ ",
"A A A A A s (._.:.<.[.L | L R M & }.& < 5 % - - - M |.-.| T 1.l 2.; M Q % 3.v 2 < > @., 4.).3 % & & 1 5.6.6.7.8.@ @ @ @ @ z z @ ",
"A A A A A 6 s 9.v 0.< H & & 1 = = = F = = & & < 1 - 1 | | { a.K b.R H c.% # / 1 < > > ' 2 : 0.% < & % H d.e.@ @ @ @ @ @ @ z z @ ",
"A A A A A A A s f.g.h.c.i.v < 0.d.0.3.j.1 & k.& c W % L |.q ] l.^.m./ n.2 ) o.H < % & % < / ! p.4 q.r.@ s.t.u.@ @ z @ @ @ @ @ @ ",
"A A A 6 #.6 A 6 s v.w.x.2 0.H 1 # 2 < < & > , 1 % o.Q % & %.{ | | c = W p < 2 # = Q % $ c = u | , = @ @ z z @ @ z z @ z @ @ @ @ ",
"A A A s y.z.9.s s 6 A.B.C.D.1 < < & - & & q [ S q & Q 2 b [ 1 , x & 0.M | w & % = 5 E.0.= 0.c -.| S F.@ @ z @ @ z z @ @ @ @ @ @ ",
"s 6 A s {.[ a.G.{.U U h h H.5 i.& < < M ; , | h , 1 o.= 3 - 4 ;.4.4 Q ~ h | ' < & < q < & % 1 , ] | I.J.K.@ @ @ z @ @ @ @ @ @ @ ",
"| #.A s L.M.{ r N.r y.k.h =.O.P.Q.2 2 w | ;.R x M & 2 Q / 0.= ; % 3 R.S.T.{ 4.4 < & h % x ' S | U._ #.V.@ @ W.W.@ @ @ @ @ @ @ @ ",
"X.#.A s s a.c.Y.v p [ p./ / 5 Z.] | [ h h ;.4 S & - & % < % o.F F i.% [ ] y.] ;.& < 1 & 4.2 | R `. +.+++@ @ W.@+W.@ @ @ @ @ @ @ ",
"#+#.A A #.V $+%+= / j.&+*+=+-+;+z.>+] [ [ -.%.& < < < % =.% > F F & : ] ,+U l '+% % & < & < { 1 { H )+@ @ @ z W.W.@ @ z @ @ @ @ ",
"z.s A A 6 z.,+l ] R | !+i.~+{+]+r m S.% [ 4 Q ^+& = /+& w { }.& d.{ w T (+l.l.] ~ Q & & < H 1 < _+@ z @ @ @ z :+@ @ @ z z @ @ z ",
"K ( ( A 6 U <+l ] y.[+}+/ -.W |+1+2+-.& > / 3+H 4+0.5+% M ' [ p.k.| | T +.+.6+7+> @.= 1+0.8+8+z 9+z z @ @ @ @ @ @ @ @ @ z @ z z ",
"6 l l s #.a.l #.{.T s 0+a+%.b+S q.i.& & & n.c+d+` e+F Q < & =.4 f+h : ] | ;.a.: < & 0.F z z @ 9+9+9+z @ @ @ @ @ @ @ z z @ @ z @ ",
"U.k g+N.U `.h+N <+r i+2.E.q r.j+j+6.4 k+l+m+n+o+p+q+r+s+/ % & % & > 4 p m.' a , R 1 o.t+@ z 9+9+@+9+u+@ @ @ @ @ @ t+t+z z @ @ @ ",
"#.v+c.w+s x+[.y+| [ *+z+j.%.S.F # M.A+B+B+C+o+o+D+E+F+G+4 5 % 5 & & & 2 L L L q ;.=.# t+@ @ @ 9+9+u+@ @ @ @ z z t+@+t+@ @ @ @ @ ",
"H+I+J+K+K z.L+= 5 R.> v n.M+N+O+< P+Q+B+R+S+T+U+V+E+F+W+X+Y+Z+`+ @4 .@< % & % < 4.q +@@ @ @ @ @ u+@ @ @ @ z @ @ t+t+:+@ @ @ @ @ ",
", i.@@#.s s T | ' & & & S {.U a.] | M #@$@%@&@*@*@E+F+E+E+=@-@;@F+>@,@d.'@1 i.4 d./ o.z @ @ @ @ @ @ @ @ @ @ @ @ @ @ @ @ @ @ @ @ ",
"] 0.)@6 A s <+v.S.k.f+2 *.G.s 1.!@| [ ~@^.b {@]@^@E+F+E+E+F+-@F+F+E+F+/@5 (@/.5 o.5 5 _@@ :@@ @ @ @ z @ t+@ @ @ @ @ z z @ @ @ @ ",
"j., z.A A 6 #.a._ ] | h | T s <@;.q | | | ~@L q.+@E+F+E+E+F+-@F+F+E+E+-@F+E+F+F+F+*@[@}@:@@+:@@ @ z z t+@+t+@ z @ @ @ @ @ @ @ @ ",
"|@s ( A A A s (+1@2@h (.,+7 s 2.3@~.-.q p.< f+J.E+;@E+E+E+F+-@F+F+E+E+F+F+E+F+F+F+4@z @ @ :@:+@ @ @ @ @ t+@ @ z z @ @ z @ @ z @ ",
"l 6 s A A A 6 s 5@6@N+s J #.s s 7@8@= & ;.1 & = # E+*@E+E+F+-@F+E+E+E+F+F+*@E+F+E+9@W.@ @ @ z z @ @ @ @ @ @ @ z z @ z z @ z z @ ",
"0@>+#.6 #.6 A s a@b@c@| B K v.s !@d@j.2 1 /+*+r.Q g g E+E+F+F+F+E+E+E+E+F+F+*@$ e@W.@+W.@ @ @ @ @ @ @ @ @ @ @ @ @ :@:@@ @ z @ @ ",
"a.U y.U y.#.A 6 f@g@: S h@K ,+#.6 l , Q < < o.i@j@k@l@g E+F+F+E+E+m@n@E+o@p@# q@z :+W.@ @ @ z @ @ @ @ z z @ @ z z :@@+:@@ @ @ @ ",
"r@s@a.0@,+G.#.)@t@u@p./ ;.v@f 0@@@(.w@5.b r.x@z z :+y@z@E+F+E+A@B@@ @ C@R.W D@@ @ @ @ @ @ z z @ @ @ @ z @ @ z z z :+:@:@@ @ z @ ",
"x h h | _ T J #.E@F@f+1 d.;.4 , 2 [ h | %.F.G@@ z @ @ H@I@4@J@K@@ z z @ @ z @ @ @ z z @ @ z @ @ @ @ @ @ 9+9+@ @ z @ @ @ @ @ z @ ",
"/ %.n.{ ;.S S L@M@N@F < < 1 & p.M % & | | m.O@@ @ @ @ z z @ z @ @ z z @ @ z z @ @ @ @ @ @ @ @ @ z z @ @ 9+@+9+@ @ @ @ z z @ z @ ",
"R 1 ^.3 ^ f+|.k.p.F = < - & & & & = * & 1 & P@@ @ @ @ z @ @ @ @ @ @ @ @ @ @ z @ @ @ @ @ @ @ @ @ z @ @ @ :+9+9+@ @ @ @ z @ @ @ @ ",
"h 4 & % ^.r.v F /+0.Q@& - d.j.2 i R@H j.$ S@t.@ @ @ @ @ @ @ @ @ @ @ @ @ @ @ @ @ @ @ @ @ @ @ @ @ z @ @ @ @ @ @ @ @ @ @ @ @ @ @ @ ",
"_ : < & & & : [ } | | 1 < & 2 3 # 4 $ , , = 5 @ @ @ @ @ @ T@U@V@  . + @ @ @ @ @ @ @ @ @ @ @ @ @ @ @ @ @ @ @ @ @ @ @ @ @ @ @ @ @ ",
"n o p % q ' [ r s t u c 4 < 1 & & & < v w [ x > W@X@@ @ Y@Z@`@#.6 7 8 9  #@ @ @ @ @ @ @ @ @ z z @ @ @ @ z z z @ @ @ @ @ @ z @ @ ",
"P : Q < 1 R S T J U V [ W v [ h , L [ [ 2 | [ & H .#+#@#( A s A A 6 s B C D @ @ @ @ @ z 9+@ @ @ @ @ @ @ @ z @ @ W.@ @ @ @ z @ @ ",
"$.e ' 5 & %.R &.r *.#.o 2 H =.1 R , [ -.;.c > -.##$#%#A.X A A A A A A A X Y i u.@ @ @ 9+@+9+@ @ @ z @ @ @ @ W.W.W.@ @ @ z z @ @ ",
"#.].H < < < & > | 2 ] _ | * F & w ^.{ ;.1 < /.^ &#*#A 6 A A A A A A A A A B 6 ,.@ @ @ :+9+@ @ z z z @ @ @ @ z W.@+W.W.@ @ @ @ @ ",
"2.; M Q % 3.v 2 < > @., 4.).3 % & & 1 5.6.6.=#-#7 6 A A A A A A A A A A A s (._.:.z @ :+z @ @ @ @ z z z @ @ @ W.W.W.@ @ @ z z @ ",
"b.R H c.% # / 1 < > > ' 2 : 0.% < & % H d.i ;#l.#.6 A s s s s A A A A A A 6 s 9.v >#z @ u.@ z z @ @ z @ @ @ @ :+W.@ @ @ @ z z @ ",
"^.m./ n.2 ) o.H < % & % < / ! p.4 q.r.c.,#'#)#S.{.s 6 +.!#~#{#A A A A A A A A s f.g.z @ @ z z @ @ @ @ @ @ @ @ @ @ z @ @ @ @ @ @ ",
"| c = W p < 2 # = Q % $ c = u | , = ]#B+^#/#Q@[ r (#r , v _#s A A A A 6 #.6 A 6 s v.:#@ @ z @ @ t+t+@ @ z z @ @ z z @ z :@@ @ @ ",
"x & 0.M | w & % = 5 E.0.= 0.c -.| S F.B+B+^#<#v a i.|.# [#}#6 A A A A s y.z.9.s s 6 A.|#@ @ @ t+@+t+@ @ @ z @ @ z z @ :@@+:@@ @ ",
"4.4 Q ~ h | ' < & < q < & % 1 , ] | I.J.1#2#j+h h 3#|.f 4##.6 6 s 6 A s {.[ a.G.{.U U h 5#@ @ t+t+z @ @ @ @ @ @ z @ @ :+:@@ @ @ ",
"% 3 R.S.T.{ 4.4 < & h % x ' S | U._ #.6#i.i '+_ a.7#8#6 6 _ 9.B | #.A s L.M.{ r N.r y.k.h 9#@ @ :+z @ @ @ @ W.W.@ @ @ @ @ @ @ @ ",
"F i.% [ ] y.] ;.& < 1 & 4.2 | R `. +.+q [ ^.l ,+{+6 6 s L.#.L.0#X.#.A s s a.c.Y.v p [ p./ / 5 @ @ @ @ @ @ @ W.@+W.@ @ @ @ @ @ @ ",
"F & : ] ,+U l '+% % & < & < { 1 { H f+Q@1 a##.1.s A A n b#c#0.2 #+#.A A #.V $+%+= / j.&+*+=+d#@ @ @ @ @ @ @ z W.W.@ @ z @ @ @ @ ",
"d.{ w T (+l.l.] ~ Q & & < H 1 < * e## / |.T s s 6 A A x+f## |.b.z.s A A 6 z.,+l ] R | !+i.g#z z @ @ z @ @ @ z :+@ @ @ z z @ @ z ",
"k.| | T +.+.6+7+> @.= 1+0.4 4 E.h#i#j#.@k##.1.6 ( s s K l#m#`.s K ( ( A 6 U <+l ] y.[+}+n#@ @ z 9+z z u.@ @ @ @ @ @ @ @ z @ z z ",
"f+h : ] | ;.a.: < & 0.F o#p#q#r#|.s#t#u#v#] l {.#.z.w#X s z.{+s 6 l l s #.a.l #.{.T s 0+a+x#u.9+9+9+z @ @ @ @ @ @ @ z z @ @ z @ ",
"& > 4 p m.' a , R 1 o.y#z#A#B#%+C#s I.< 7+<+D#E#F#)@G#H#B s s s U.k g+N.U `.h+N <+r i+2.E.q r.I#@+9+u+@ @ @ @ @ @ t+t+z z @ @ @ ",
"& & & 2 L L L q ;.=.# J#K#0.L#;+6 l , j.b $+v v @@)@[.4.0+A A s #.v+c.w+s x+[.y+| [ *+z+j.%.S.F M#N#@ @ @ @ z z t+@+t+@ @ @ @ @ ",
" @4 .@< % & % < 4.q +@O#P#f+R Q#R#@@=./ { F S#T#l z.U#V#W#U 6 s H+I+J+K+K z.L+= 5 R.> v n.M+N+O+< P+X#H@@ z @ @ t+t+:+@ @ @ @ @ ",
"F+>@,@d.'@1 i.4 d./ o.Y#B+o.% 0.w p.F L.T ] z.6 6 6 #.X.k.T s z., i.@@#.s s T | ' & & & S {.U a.] | M #@Z#@ @ @ @ @ @ @ @ @ @ @ ",
"F+E+F+/@5 (@/.5 o.5 5 ^#B+`#j.j+< v _.G.U <+s #.6 s J  $< .$K +$] 0.)@6 A s <+v.S.k.f+2 *.G.s 1.!@| [ ~@^.@$#$@ @ @ z z @ @ @ @ ",
"F+E+E+-@F+E+F+F+F+*@$$%$&$^+& & ;.2 l s 6 6 #.J s s J K , c.~ j.j., z.A A 6 #.a._ ] | h | T s <@;.q | | | ~@L *$@ @ @ @ @ @ @ @ ",
"F+E+E+F+F+E+F+F+F+E+=$-$-.h & ;$[ >$7 ,$s #.J '$a.#.#.z.0@;./ M |@s ( A A A s (+1@2@h (.,+7 s 2.3@~.-.q p.< f+J.)$@ @ z @ @ z @ ",
"E+E+E+F+F+*@E+F+E+G+= & x | | T s 6 7@!$U J T ] l 6 A s #.a.| ] l 6 s A A A 6 s 5@6@N+s J #.s s 7@8@= & ;.1 & = ~$@ z z @ z z @ ",
"E+E+E+E+F+F+*@$ *+= [ N (.U.!@U U | (#4 {$;.e ]$s A A s !@,+_ ] 0@>+#.6 #.6 A s a@b@c@| B K v.s !@d@j.2 1 /+*+r.^$@ @ @ @ z @ @ ",
"E+m@g E+o@p@# /$| | a.#.6 6 6 z.l L#;.4 { i.N l z.A A 6 6 l ] ] a.U y.U y.#.A 6 f@g@: S h@K ,+#.6 l , Q < < o.i@($@ @ @ @ @ @ @ ",
"B@_$_$:$R.W ) |.R | [ a.Q#<$`.(.N }.5.& & b [$}$s A A s +.( S.{ r@s@a.0@,+G.#.)@t@u@p./ ;.v@f 0@@@(.w@5.b r.x@z z @ @ @ @ @ z @ ",
"u.z z u.|$1$= & x x 4 S.2 : S S : 1 - - % b N #.A A s 6 U @@j.% x h h | _ T J #.E@F@f+1 d.;.4 , 2 [ h | %.F.2$@ z @ @ @ @ @ z @ ",
"@ z z @ G@Q v q % & & 5.& 1 R %.1 < - & % 5 3$s A A #.a.4$5$Q h / %.n.{ ;.S S L@M@N@F < < 1 & p.M % & | | m.6$@ @ @ @ z z @ z @ ",
"@ @ @ @ @ 7$8$= * * = < & < & < - - < M M = 9$#.s 6 #.a., ! f+S R 1 ^.3 ^ f+|.k.p.F = < - & & & & = * & 1 & 0$@ @ @ @ z @ @ @ @ ",
"@ @ @ @ @ @ @ a$b$6.q W < < < - - & 1 =.x F w c$!@J d$3@2 M.x o h 4 & % ^.r.v F /+0.Q@& - d.j.2 i R@H j.$ S@e$@ @ @ @ @ @ @ @ @ "};
