/* XPM */
static char * forest_right_down_xpm[] = {
"64 64 413 2",
"  	c #2F8136",
". 	c #10171F",
"+ 	c #10151E",
"@ 	c #0B2E2B",
"# 	c #0C2C2A",
"$ 	c #0D2728",
"% 	c #0C2828",
"& 	c #0C2D2B",
"* 	c #0A322E",
"= 	c #0A312D",
"- 	c #064538",
"; 	c #0B302D",
"> 	c #0C2928",
", 	c #10131D",
"' 	c #064739",
") 	c #074136",
"! 	c #064237",
"~ 	c #10141E",
"{ 	c #0C2929",
"] 	c #0A592F",
"^ 	c #074336",
"/ 	c #073F34",
"( 	c #0B2D2B",
"_ 	c #064437",
": 	c #064537",
"< 	c #064337",
"[ 	c #0C2B2A",
"} 	c #0B2F2C",
"| 	c #10161F",
"1 	c #0C2A29",
"2 	c #0F1820",
"3 	c #1C4225",
"4 	c #084133",
"5 	c #2F8036",
"6 	c #0A342F",
"7 	c #0E1F23",
"8 	c #0D2727",
"9 	c #0C2A2A",
"0 	c #0C2729",
"a 	c #073E35",
"b 	c #101820",
"c 	c #074236",
"d 	c #0D2326",
"e 	c #0B2C2C",
"f 	c #073A34",
"g 	c #0A5730",
"h 	c #0A5530",
"i 	c #0A5B30",
"j 	c #073F36",
"k 	c #064638",
"l 	c #0B302C",
"m 	c #074436",
"n 	c #0B5C2E",
"o 	c #094B32",
"p 	c #083932",
"q 	c #0E2024",
"r 	c #073E34",
"s 	c #083E34",
"t 	c #184329",
"u 	c #18452A",
"v 	c #225029",
"w 	c #095E31",
"x 	c #0B5D2E",
"y 	c #499231",
"z 	c #0D2627",
"A 	c #074135",
"B 	c #0F1B21",
"C 	c #074B36",
"D 	c #0B5F2E",
"E 	c #074635",
"F 	c #0A5830",
"G 	c #0B312D",
"H 	c #0A322D",
"I 	c #064238",
"J 	c #0B5D2F",
"K 	c #0B342B",
"L 	c #0F1920",
"M 	c #074035",
"N 	c #083D34",
"O 	c #074835",
"P 	c #0B5E2E",
"Q 	c #084934",
"R 	c #0E2124",
"S 	c #162D23",
"T 	c #193725",
"U 	c #122A23",
"V 	c #0B5C2F",
"W 	c #11171E",
"X 	c #0D2023",
"Y 	c #0B2B2A",
"Z 	c #084E33",
"` 	c #093730",
" .	c #095832",
"..	c #0A332E",
"+.	c #0A392F",
"@.	c #084E34",
"#.	c #083C33",
"$.	c #093630",
"%.	c #073F35",
"&.	c #0D1E22",
"*.	c #1C4228",
"=.	c #084432",
"-.	c #0A612F",
";.	c #0B5B2E",
">.	c #084232",
",.	c #09352F",
"'.	c #083830",
").	c #0C2D2A",
"!.	c #074735",
"~.	c #0A5B2F",
"{.	c #073E36",
"].	c #0B2E2C",
"^.	c #0F1D22",
"/.	c #093230",
"(.	c #0B572D",
"_.	c #347234",
":.	c #0A2E2C",
"<.	c #0E1C22",
"[.	c #0A342E",
"}.	c #093831",
"|.	c #084F33",
"1.	c #074B35",
"2.	c #0E2225",
"3.	c #083D33",
"4.	c #0A352F",
"5.	c #0C2627",
"6.	c #0E2923",
"7.	c #075435",
"8.	c #5D9AE7",
"9.	c #0F1A21",
"0.	c #064137",
"a.	c #074036",
"b.	c #0E1D23",
"c.	c #0C2B29",
"d.	c #064837",
"e.	c #084A34",
"f.	c #61A0EF",
"g.	c #D9B75C",
"h.	c #5791D9",
"i.	c #224B28",
"j.	c #0E1D22",
"k.	c #0E1E23",
"l.	c #093931",
"m.	c #09362F",
"n.	c #0D2527",
"o.	c #0F1C22",
"p.	c #083A32",
"q.	c #0B2C2A",
"r.	c #0E2125",
"s.	c #1F4C2A",
"t.	c #193E28",
"u.	c #0D2125",
"v.	c #064438",
"w.	c #085234",
"x.	c #0B402B",
"y.	c #095631",
"z.	c #006B46",
"A.	c #25672F",
"B.	c #2A7032",
"C.	c #30472B",
"D.	c #3B4E29",
"E.	c #2E3D26",
"F.	c #083B33",
"G.	c #064637",
"H.	c #074535",
"I.	c #0D1F23",
"J.	c #0E1F24",
"K.	c #161F20",
"L.	c #171F20",
"M.	c #0C2529",
"N.	c #0B612E",
"O.	c #2D7F35",
"P.	c #064938",
"Q.	c #121D21",
"R.	c #2D4129",
"S.	c #2B3E29",
"T.	c #0D2426",
"U.	c #11121D",
"V.	c #0A5430",
"W.	c #695B95",
"X.	c #246A33",
"Y.	c #0F191F",
"Z.	c #093A32",
"`.	c #0D2225",
" +	c #074337",
".+	c #095331",
"++	c #0B3829",
"@+	c #064036",
"#+	c #074E36",
"$+	c #074935",
"%+	c #095431",
"&+	c #0A5C2F",
"*+	c #2E7E35",
"=+	c #074736",
"-+	c #074536",
";+	c #064038",
">+	c #0B512B",
",+	c #0F151E",
"'+	c #064037",
")+	c #095531",
"!+	c #074936",
"~+	c #093A31",
"{+	c #3F8333",
"]+	c #0B5C2D",
"^+	c #0A5630",
"/+	c #095132",
"(+	c #083B32",
"_+	c #085533",
":+	c #0F1C20",
"<+	c #075636",
"[+	c #408631",
"}+	c #0A582F",
"|+	c #0B2D2A",
"1+	c #0C2728",
"2+	c #084C34",
"3+	c #083831",
"4+	c #095731",
"5+	c #0E1E24",
"6+	c #297232",
"7+	c #0A2F2D",
"8+	c #0C2727",
"9+	c #093530",
"0+	c #0C2A28",
"a+	c #0C2827",
"b+	c #0B602D",
"c+	c #073D35",
"d+	c #0F161E",
"e+	c #0B312B",
"f+	c #0A352D",
"g+	c #0F1921",
"h+	c #084933",
"i+	c #0A5D30",
"j+	c #074D36",
"k+	c #2D7C36",
"l+	c #3A2413",
"m+	c #374828",
"n+	c #1C2622",
"o+	c #1B2723",
"p+	c #121E20",
"q+	c #074834",
"r+	c #0F2522",
"s+	c #0B372B",
"t+	c #074A35",
"u+	c #0A5831",
"v+	c #0098B2",
"w+	c #077184",
"x+	c #21572B",
"y+	c #2C7934",
"z+	c #2B3022",
"A+	c #322216",
"B+	c #3E271D",
"C+	c #2B2018",
"D+	c #294229",
"E+	c #2F442A",
"F+	c #384B28",
"G+	c #293524",
"H+	c #0D2226",
"I+	c #084732",
"J+	c #095032",
"K+	c #0C3E2A",
"L+	c #083A33",
"M+	c #083432",
"N+	c #0A5930",
"O+	c #0E1722",
"P+	c #0A632F",
"Q+	c #0096B0",
"R+	c #04869D",
"S+	c #115272",
"T+	c #21572A",
"U+	c #2B2F21",
"V+	c #3E2613",
"W+	c #62351C",
"X+	c #342215",
"Y+	c #2D4E29",
"Z+	c #162221",
"`+	c #073C34",
" @	c #054739",
".@	c #064138",
"+@	c #0C4D2B",
"@@	c #156C99",
"#@	c #489031",
"$@	c #31562D",
"%@	c #2B2920",
"&@	c #3C2513",
"*@	c #161E21",
"=@	c #1F1C1E",
"-@	c #141E22",
";@	c #65432D",
">@	c #171C20",
",@	c #0F1B22",
"'@	c #2D482B",
")@	c #322625",
"!@	c #083632",
"~@	c #094C32",
"{@	c #073D36",
"]@	c #074E35",
"^@	c #075137",
"/@	c #0F1821",
"(@	c #084F35",
"_@	c #2F2423",
":@	c #2F4227",
"<@	c #2B1C1D",
"[@	c #28201E",
"}@	c #744B30",
"|@	c #61341C",
"1@	c #1F1B1B",
"2@	c #31221D",
"3@	c #0F1A20",
"4@	c #3D3529",
"5@	c #083732",
"6@	c #2E7F36",
"7@	c #211E1A",
"8@	c #271D18",
"9@	c #1D191E",
"0@	c #4D3729",
"a@	c #2F2117",
"b@	c #2D4029",
"c@	c #073C36",
"d@	c #0B5F2D",
"e@	c #073D34",
"f@	c #0E1B22",
"g@	c #0B552E",
"h@	c #2B1F1D",
"i@	c #3A4B29",
"j@	c #161F1F",
"k@	c #2C1F17",
"l@	c #192422",
"m@	c #093E31",
"n@	c #095432",
"o@	c #093B31",
"p@	c #074636",
"q@	c #084C33",
"r@	c #81A100",
"s@	c #FF5442",
"t@	c #356B29",
"u@	c #0A5F2F",
"v@	c #0B332B",
"w@	c #2D7B34",
"x@	c #0E1E22",
"y@	c #084D33",
"z@	c #095232",
"A@	c #094831",
"B@	c #095532",
"C@	c #478E31",
"D@	c #64578B",
"E@	c #997F44",
"F@	c #101A20",
"G@	c #3D2613",
"H@	c #332315",
"I@	c #0A332D",
"J@	c #463E65",
"K@	c #3D2513",
"L@	c #1E2E24",
"M@	c #2F7333",
"N@	c #317333",
"O@	c #162524",
"P@	c #084D34",
"Q@	c #093731",
"R@	c #095231",
"S@	c #317032",
"T@	c #182523",
"U@	c #3C2613",
"V@	c #264C2A",
"W@	c #2F7F36",
"X@	c #35422B",
"Y@	c #172222",
"Z@	c #2F7E35",
"`@	c #488F31",
" #	c #094731",
".#	c #0A5E2F",
"+#	c #0B2A2B",
"@#	c #2F7A34",
"##	c #172021",
"$#	c #083832",
"%#	c #2C7332",
"&#	c #11181E",
"*#	c #0C2F28",
"=#	c #095333",
"-#	c #0B2D2C",
";#	c #0D2526",
">#	c #1E5C32",
",#	c #0D2425",
"'#	c #0E1C21",
")#	c #094732",
"!#	c #0D2524",
"~#	c #0C2526",
"{#	c #1E5C31",
"]#	c #0A302C",
"^#	c #063F38",
"/#	c #0D2124",
"(#	c #2A6630",
"_#	c #478F30",
":#	c #22612F",
"<#	c #2E6C31",
"[#	c #2F7D35",
"}#	c #2B3E24",
"|#	c #0097B1",
"1#	c #476FA1",
"2#	c #307834",
"3#	c #2D3034",
"4#	c #2D5729",
"5#	c #497DB9",
"6#	c #2A5627",
"7#	c #2F642D",
"8#	c #3B772C",
"9#	c #366631",
"0#	c #377333",
"a#	c #2A7231",
"b#	c #2F8035",
"c#	c #23582C",
"d#	c #436D25",
"e#	c #29642F",
"f#	c #2F7C34",
"                  . + @ # $ % & # * = - ; > , ' ) ! - ~ { = ! ] ^ / ( # # # / _ : < < [ ( # } | . 1 + - - % 2               3 4 ",
"                5 % 6 1 7 8 ( 9 0 - < a # # b c , ' d 0 e f g h i j k @ l ; _ m n o p 8 1 ( [ # # # ( q r _ s = 6 t     u v w x ",
"    y y         z c c A = B ( C D E E F ! / ( G H _ I F g n n J K / L ( [ M N O E P Q _ R q _ c - G _ _ } < _ # B S T U ] V n V ",
"                W X / Y Y N < Z ` _ < a M * # # ) = s m x Z n n  .0 ; 2 # ..M +.m @.x j } B #.[ M - _ $.%.8 = $.&.*.=.-.;.V V V ",
"            y   >.,.'.L )._ c < } %.s 1 1 ( & ( # # r O !.O n ~.x {.B ( ( ( # = < } ! ^ < $ z # r ].) %.[ ( ^.~ /.(.V ~.V V V V ",
"          y y   _.:.<.G < G M H # [.# ( 2 @ & & & H }.$.< O |.g 1.* H L @ 2.q } ( = ` - 3.,.| @ # # [ 4.5.5.6.7.D ~.V V V V V V ",
"          y y   8.9.( B # # [ % % % z % % # # ( [ & [ < < ) 0.F a.M B b.@ . { [ ( = = ; } / 9.@ ( # @ B c.d d.e.x ~.V n n n n V ",
"          y y f.g.h.i.b.j.q ( 9.c.9.2.k.[ # l.# 8 R @ G }.l ! e.].m.{ n.} > o.B ( @ # @ ( { , p.1 q.r.b.s.t.u.v.!.n ~.Z w.x.y.V ",
"                f.z.  A.} 9.B [ . } ( ( # = - [ @ o.L @ # ..) < < 8 % R k ( } . % L @ + 8 % p < - % B.C.D.E.F._ m G.m - q H.n V ",
"                          I.[ ( ( # & # # l _ N l # L } 7 _ [ - s # 9.H < r # @ % 2 J.9.% 9.8 $.< N K.C.C.D.L.q 6 j.}.. M.N.~.V ",
"      y     5     O.5       2 j.# ( ( H * - < c - [ o.% | & 1 %.3.1 L ' c < ; ( # ( l ( # @ [ - ! < P.Q.R.S.T.c c U.}.a V.x ~.~.",
"      y W.W.  y y y y       X.Y.Z.} } r < %.M s H # } L { 9.% * @ | `.v. +) 3.1 ( # c @ s ; N < .+^ x ++j.d @+^ 0.#+$+~.~.^ %+&+",
"        W.g.W.y y           *+=+! < _ c c %.1 N # & # @ ( @ o.z z j.@ _ ! -+! %.# ( [ # 3.} < M ;+>+,+l _ ].g '+)+~.~.n !+x !+~+",
"        W.g.W.      y y y   {+]+^+/+! _ _ $...# ( ( ( @ #.@ = z z # / ! '+P g @+@ @ # ( # ( ) [ ) B (+F.[ _+x |.n V V i :+<+9.} ",
"y y     z.W.W.      y y     [+}+m h v.@ _ 1 L |+# % 1+# r ) [.# c.) r O 2+e.e.! ' L # # ( B [ ( $ 3+. { }.O n n ~.V V 4+5+. }.a.",
"y y   y y                   6+7+8+9+$.# = {   B 0+9.a+@ H ; _ p.l.< < O Z Z b+c+= ` % 8+9.1 1 J.d+e+f+g+h+x |.~.] n n F i+j+;+n ",
"  y y y           f.f.  y y k+N q.j.# # #       W l+z L ( # #.1 (+c / ! < %.0./ ( # 9.z m+n+o+p+}.q+r+s+t+! g !.x ^+u+;.n ^+)+n ",
"  y y   y         f.g.f.  y v+w+T.5.1 x+y+      z+A+B+C+{ @ # @ # = 1 k m.; 6 - M [ o.D+E+F+G+H+I+n P.( c+J+K+L+M+N+O+P+&+n n n ",
"      y y       y z.f.f.      Q+R+S+T+      y y U+V+W+X+1 2 @ 2 # # # } G G G l %.#.. Y+Z+9.`+]+~.g - k.7  @q q .@N+<.3.+@V V n ",
"      y                         @@        #@  $@%@V+W+&@*@=@-@;@>@1 g+( @ # @ ( 3.l ,@'@)@(+M !@~@.@#.{ ) z {@]@g ^+^@/@(@P ~.n ",
"        y             y                   _@:@<@<@V+W+V+V+[@}@|@W+1@2@c.3@[ j.1 c.{ o.4@C.o.@ 9.r p.z !+O ! ^+~.~.~.x 5@l.O n ^+",
"        y   y       y y   W.        y   f.6@7@8@9@V+W+V+V+W+}@W+W+V+W+0@2 a@^.2 o.2 2 D.C.b@k.T.( q c@d@P J+n x ~.n E e@( f@F g@",
"            y y y   y y W.g.W.    y y f.g.f.  q.,@V+W+V+V+W+}@W+W+V+V+}@W+V+W+W+W+<@h@i@j@|+# # %.} g n ~.~.x E n n E F - b.' k.",
"              y y   y     W.z.          f.    y V+|@V+V+V+W+}@W+W+V+V+W+W+V+W+W+W+V+k@l@$.c # m@_ n@D o@n x E p@0.x x ^+q@%.{ H ",
"      r@r@          s@      y y       5       y t@V+<@V+V+W+}@W+V+V+V+W+W+<@V+W+V+X+% # s < < O n ~.u@v@P E O ! g ~.V n x 0.< ! ",
"      r@g.r@    y s@g.s@              5         w@b b V+V+W+W+W+V+V+V+V+W+W+<@+ x@% _ I y@.+z@P P < G.1 A@%.0 B@n V V n z@'+^ ! ",
"      z.r@r@y y y z.s@      y         y C@    y y D@E@b V+W+W+V+V+F@b V+G@H@. I@< < 0.x ~.~.~.^+g `+%.1 ) j.I g ^+V V ~.~.g ! ! ",
"                          y y         y     y y y z.W.J@V+W+V+K@L@M@N@O@`.R > }.M < _ 0.!@P@;+y@I [.4.# # 7 Q@R@n V V n Z ] v.) ",
"  y y     y       y y     y             v+v+    y     S@T@V+U@V@W@y y 5 X@Y@% # s s 1 v.} / N N / [ & & @ 7 I x V V n ~.P .@k.@ ",
"  y y     y y                   y y     v+g.v+        y y Z@`@    y y   5 L q l @ # # 4.# [ M ..[ ( & # @ 2  #n V V x 0..#+#L c ",
"            y                   y       z.v+v+        y                   @###% $ $ % ( # ( # ( & & ( H H % $#x n ~.x 0.- , (+N ",
"                                y                                             %#&#5.l R ( ( ( & & # [ #.s z r *#z@E =#-#} ;#s j ",
"                                                                                  . + @ # $ % & # * = - ; > , ' ) ! - ~ { = ! ] ",
"                            y y 5       y y y             y                         >#1 7 8 ( 9 0 - < a # # b c , ' d 0 e f g h ",
"    y y               y v+                y     f.        y         y y               y = B ( C D E E F ! / ( G H _ I F g n n J ",
"    f.                v+g.v+      y         f.f.f.f.    y y         f.                Y Y N < Z ` _ < a M * # # ) = s m x Z n n ",
"  f.g.f.    y         z.v+    y y y         f.g.g.f.f.            f.g.f.    y       '.L )._ c < } %.s 1 1 ( & ( # # r O !.O n ~.",
"  f.g.f.  y y   y y   z.y         y y y       f.g.f.      y y     f.g.f.  y y   y y <.G < G M H # [.# ( 2 @ & & & H }.$.< O |.g ",
"  z.f.f.  y y   f.y y       y y     y         z.f.        y y     z.f.f.  y y   f.y ( B # # [ % % % z % % # # ( [ & [ < < ) 0.F ",
"  z.      y y f.g.f.y     y y                     y               z.      y y f.g.f.,#b.j.q ( 9.c.9.2.k.[ # l.# 8 R @ G }.l ! e.",
"                f.z.      y     f.f.    y y     y y   y W.                      f.z.  '#} 9.B [ . } ( ( # = - [ @ o.L @ # ..) < ",
"                              f.g.f.      y     y y   W.g.W.                          )#!#I.[ ( ( # & # # l _ N l # L } 7 _ [ - ",
"      y                       f.f.y             y     z.W.            y                 c ~#2 j.# ( ( H * - < c - [ o.% | & 1 %.",
"      y W.W.  y y y y           z.y         s@s@                      y W.W.  y y y y       {#Y.Z.} } r < %.M s H # } L { 9.% * ",
"        W.g.W.y y                           s@g.s@                      W.g.W.y y           2 =+! < _ c c %.1 N # & # @ ( @ o.z ",
"        W.g.W.      y y y   y               y s@s@    y                 W.g.W.      y y y ]#^#]+^+/+! _ _ $...# ( ( ( @ #.@ = z ",
"y y     z.W.W.      y y     y y     y       y z.      y y     y y y     z.W.W.      y y   /#)+}+m h v.@ _ 1 L |+# % 1+# r ) [.# ",
"y y   y y                     y v+y y                   y   y y y y   y y                   R 7+8+9+$.# = { (#B 0+9.a+@ H ; _ p.",
"  y y y           f.f.  y y   v+v+v+y               y y     y     y y y           f.f.  _#y   N q.j.# # # :#  <#W l+z L ( # #.1 ",
"  y y   y         f.g.f.  y v+v+g.v+@@            f.f.y y         y y   y         f.g.f.  y v+v+g.v+@@        [#}#A+B+C+{ @ # @ ",
"      y y       y z.f.f.      v+v+@@        y y f.g.f.                y y       y z.f.f.      |#v+@@        y y 1#V+W+X+1 2 @ 2 ",
"      y                         @@        y     f.f.z.                y                         @@        y   2#3#V+W+&@*@=@-@;@",
"        y             y                                                 y             y                       4#<@V+W+V+V+[@}@|@",
"        y   y       y y   W.        y   f.          y y                 y   y       y y   W.        y   5#    6#9@V+W+V+V+W+}@W+",
"            y y y   y y W.g.W.    y y f.g.f.  y                             y y y   y y W.g.W.    y y f.g.f.  7#,@V+W+V+V+W+}@W+",
"              y y   y     W.z.          f.    y y     y     y                 y y   y     W.z.          f.    8#V+|@V+V+V+W+}@W+",
"                    s@      y y               y y   y y   y y         r@r@          s@      y y               y . V+<@V+V+W+}@W+",
"                y s@g.s@                          W.W.    y           r@g.r@    y s@g.s@                          b b V+V+W+W+W+",
"            y y y z.s@      y         y y     y y W.g.W.              z.r@r@y y y z.s@      y         y y     y y 9#0#b V+W+W+V+",
"                          y y         y     y y y z.W.W.    y                             y y         y     y y y     a#V+W+V+K@",
"  y y     y       y y     y             v+v+    y           y     y y     y       y y     y             v+v+  b#y       c#V+d#e#",
"  y y     y y                   y y     v+g.v+        y y   y     y y     y y                   y y     v+g.v+Z@      y y f#y   ",
"            y                   y       z.v+v+        y                     y                   y       z.v+v+        y         ",
"                                y                                                               y                               "};
