/* XPM */
static char * trunc_xpm[] = {
"64 64 263 2",
"  	c #2F8136",
". 	c #499231",
"+ 	c #0098B2",
"@ 	c #FF5442",
"# 	c #D9B75C",
"$ 	c #61A0EF",
"% 	c #006B46",
"& 	c #695B95",
"* 	c #156C99",
"= 	c #026743",
"- 	c #2E7C34",
"; 	c #2D7531",
"> 	c #2D7A33",
", 	c #2E7E35",
"' 	c #478F30",
") 	c #2C6E2E",
"! 	c #3E6327",
"~ 	c #657732",
"{ 	c #697532",
"] 	c #598431",
"^ 	c #598531",
"/ 	c #6E7D35",
"( 	c #395F23",
"_ 	c #365D23",
": 	c #39551F",
"< 	c #314B22",
"[ 	c #407C2A",
"} 	c #647632",
"| 	c #307732",
"1 	c #405C30",
"2 	c #3F5B23",
"3 	c #5A8431",
"4 	c #77833A",
"5 	c #7A863E",
"6 	c #A57D4B",
"7 	c #A67D4B",
"8 	c #A67E4B",
"9 	c #74823A",
"0 	c #608A35",
"a 	c #4F7C2D",
"b 	c #4E4021",
"c 	c #4C3D21",
"d 	c #499131",
"e 	c #81A100",
"f 	c #FE5442",
"g 	c #386025",
"h 	c #5D8633",
"i 	c #78883E",
"j 	c #757F38",
"k 	c #9B683A",
"l 	c #9A6538",
"m 	c #9B683B",
"n 	c #9E6E40",
"o 	c #798B41",
"p 	c #717A34",
"q 	c #455E25",
"r 	c #3B6324",
"s 	c #3A4521",
"t 	c #588331",
"u 	c #75833B",
"v 	c #5D8733",
"w 	c #727C35",
"x 	c #A47A48",
"y 	c #A47A49",
"z 	c #A47948",
"A 	c #A27645",
"B 	c #748038",
"C 	c #75823A",
"D 	c #788940",
"E 	c #787F37",
"F 	c #362316",
"G 	c #44842C",
"H 	c #2E7531",
"I 	c #49862E",
"J 	c #538B31",
"K 	c #608D38",
"L 	c #5D8532",
"M 	c #A7804D",
"N 	c #9A6639",
"O 	c #9D6C3E",
"P 	c #AA8551",
"Q 	c #996438",
"R 	c #A8814E",
"S 	c #9E6E3F",
"T 	c #758038",
"U 	c #4E3226",
"V 	c #2D5C28",
"W 	c #3E8A34",
"X 	c #46842E",
"Y 	c #5B8532",
"Z 	c #A67948",
"` 	c #9B673A",
" .	c #A37847",
"..	c #A77F4D",
"+.	c #986135",
"@.	c #9C6639",
"#.	c #9A673A",
"$.	c #A57B49",
"%.	c #A07141",
"&.	c #986236",
"*.	c #AB8551",
"=.	c #62712F",
"-.	c #2C4D24",
";.	c #45842E",
">.	c #2B1A12",
",.	c #8D5E35",
"'.	c #AB8853",
").	c #996337",
"!.	c #AA8651",
"~.	c #A98450",
"{.	c #9D6B3D",
"].	c #78883F",
"^.	c #707A33",
"/.	c #552B18",
"(.	c #386125",
"_.	c #2C5628",
":.	c #41762C",
"<.	c #41772C",
"[.	c #3D2513",
"}.	c #4D2A14",
"|.	c #53371E",
"1.	c #AA7A47",
"2.	c #A57D4A",
"3.	c #A67A49",
"4.	c #A0683C",
"5.	c #A57C4A",
"6.	c #798B40",
"7.	c #5E8733",
"8.	c #568130",
"9.	c #566226",
"0.	c #492A16",
"a.	c #2D5B2A",
"b.	c #3B6727",
"c.	c #457628",
"d.	c #62351C",
"e.	c #3E2613",
"f.	c #4C2D16",
"g.	c #986437",
"h.	c #9E683B",
"i.	c #798940",
"j.	c #717B34",
"k.	c #598331",
"l.	c #5D6E2F",
"m.	c #497628",
"n.	c #435B21",
"o.	c #2D5E2B",
"p.	c #3C6A28",
"q.	c #395D28",
"r.	c #556326",
"s.	c #5F331B",
"t.	c #596628",
"u.	c #56682B",
"v.	c #623D22",
"w.	c #527C2C",
"x.	c #507D2D",
"y.	c #566427",
"z.	c #734B2F",
"A.	c #4F7A2B",
"B.	c #375C25",
"C.	c #2C5228",
"D.	c #337B35",
"E.	c #3D604C",
"F.	c #5F98E3",
"G.	c #4C792E",
"H.	c #427840",
"I.	c #537F30",
"J.	c #5E6E30",
"K.	c #744B30",
"L.	c #4C852D",
"M.	c #2B1C1D",
"N.	c #2D652D",
"O.	c #324822",
"P.	c #2C4023",
"Q.	c #2B2C1F",
"R.	c #41742C",
"S.	c #395626",
"T.	c #122621",
"U.	c #337A35",
"V.	c #326528",
"W.	c #44822D",
"X.	c #101820",
"Y.	c #43522F",
"Z.	c #377334",
"`.	c #4E8830",
" +	c #2F7934",
".+	c #5C8ED3",
"++	c #977C43",
"@+	c #536E9F",
"#+	c #46832C",
"$+	c #2D5428",
"%+	c #385F26",
"&+	c #2F7433",
"*+	c #1D4D28",
"=+	c #2C4224",
"-+	c #121D20",
";+	c #111C20",
">+	c #284467",
",+	c #173724",
"'+	c #2B2B1F",
")+	c #312330",
"!+	c #30642B",
"~+	c #2D5B27",
"{+	c #1E5029",
"]+	c #5C90D6",
"^+	c #367534",
"/+	c #334A22",
"(+	c #131E2B",
"_+	c #5A4D2E",
":+	c #473724",
"<+	c #3B5E45",
"[+	c #34672A",
"}+	c #3B6396",
"|+	c #C4A554",
"1+	c #489131",
"2+	c #2F8036",
"3+	c #39732B",
"4+	c #25662E",
"5+	c #1E4F29",
"6+	c #3F395D",
"7+	c #075339",
"8+	c #25642E",
"9+	c #367634",
"0+	c #307F36",
"a+	c #193F25",
"b+	c #244724",
"c+	c #2E5E2A",
"d+	c #2C5528",
"e+	c #046A46",
"f+	c #308036",
"g+	c #C94337",
"h+	c #38712A",
"i+	c #3B6227",
"j+	c #2D5528",
"k+	c #276A2F",
"l+	c #3C7A2E",
"m+	c #80A001",
"n+	c #C7A755",
"o+	c #789310",
"p+	c #194126",
"q+	c #2E7131",
"r+	c #3C782C",
"s+	c #036A46",
"t+	c #244924",
"u+	c #43802D",
"v+	c #499031",
"w+	c #1B3522",
"x+	c #0F2925",
"y+	c #3B762C",
"z+	c #3B752C",
"A+	c #3F8533",
"B+	c #3D6632",
"C+	c #1C4A27",
"D+	c #295326",
"E+	c #3B772B",
"F+	c #26692F",
"G+	c #152F23",
"H+	c #498D30",
"I+	c #49722F",
"J+	c #2C5A27",
"K+	c #2C3F23",
"L+	c #324722",
"M+	c #1F3E23",
"N+	c #498430",
"                                                                                                                                ",
"                            . .         . . .             .                                 . .         . . .             .     ",
"    . .               . +                 .     @         .         . .               . +                 .               .     ",
"                      + # +       .         @ @ @       . .         $                 + # +       .                     . .     ",
"            .         % +     . . .         . @ # @ @             $ # $     .         % +     . . .         .                   ",
"          . .   . .   % .         . . .       @ @ @       . .     $ # $   . .   . .   % .         . . .                   . .   ",
"          . .   $ . .       . .     .         % @         . .     % $ $   . .   $ . .       . .     .                     . .   ",
"          . . $ # $ .     . .                     .               %       . . $ # $ .     . .                     .             ",
"                $ %       .     $ $     . .     . .   . &                       $ %       .     $ $     . .     . .   .         ",
"                              $ # $       .     . .   & # &                                   $ # $       .     . .             ",
"      .                       $ $ .             .     % &             .                       $ $ .             .               ",
"      . & &   . . . .           % .         @ @                       . & &   . . . .           % .         @ @                 ",
"        & # & . .                           @ # @                       & # & . .                           @ # @               ",
"        & # &       . . .   .               . @ @     .                 & # &       . . .   .               . @ @     .         ",
". .     % & &       . .     . .     .       . %       . .     . . .     % & &       . .     . .     .       . %       . .     . ",
". .   . .                     . + . .                   .   . . . .   . .                     . + . .                   .   . . ",
"  . . .           $ $   . .   + + + .               . .     .     . . .           $ $   . .   + + + .               . .     .   ",
"  . .   .         $ # $   . + + # + *             $ $ . .         . .   .         $ # $   . + + # + *             $ $ . .       ",
"      . .       . % $ $       + + *         . . $ # $                 . .       . % $ $       + + *         . . $ # $           ",
"      .                         *         .     $ $ = - ; ; ; ; > > , '                         *         .     $ $ %           ",
"        .             .                             - - ; ; ; ; > > , , .             .                                         ",
"        .   .       . .   &         .   $   ) ) ! ! ~ ~ { { ] ] ^ ^ / / ( _ : <     . .   &         .   $           . .         ",
"            . . .   . . & # &     . . $ # $ ) [ ! ! } } { { ] ] ^ ^ / / _ _ : : .   . . & # &     . . $ # $   .                 ",
"              . .   .     & %       | | 1 2 3 3 4 4 5 5 6 6 7 7 8 8 9 9 0 0 a a b c d     & %           $     . .     .     .   ",
"      e e           @       . .     | | 2 2 3 3 4 4 5 5 6 6 7 7 8 8 9 9 0 0 a a c c f       . .               . .   . .   . .   ",
"      e # e     . @ # @             g g h h i i j j k k l l l l l l m m n n o o p p q q                           & &     .     ",
"      % e e . . . % @       .       g r h h i i j j k k l l l l l l m m n n o o p p q q     .         . .     . . & # &         ",
"                          . .   s s t t u u v v w w x x y y z z z z A A B B C C D D E E F F G H       .     . . . % & &     .   ",
"  . .     .       . .     .     s s t t u u v v w w x x y y z z z z A A B B C C D D E E F F H H         + +     .           .   ",
"  . .     . .                   I I J J K K L L M M N N O O P P 8 8 Q Q R R N N S S T T U U V V . .     + # +         . .   .   ",
"            .                   I I J J K K L L M M N N O O P P 8 8 Q Q R R N N S S T T U U V V .       % + +         .         ",
"                            W W X X Y Y Z Z ` `  . .....+.+.@.@.#.#.$.$.%.%.&.&.*.*.h h =.=.-.-..                               ",
"                            W W X X Y Y Z Z ` `  . .....+.+.@.@.#.#.$.$.%.%.&.&.*.*.h h =.=.-.-.                                ",
"                            . . ;.;.>.>.,.,.'.'.N N ).).!.!.~.~.~.~.{.{.m m ].].^.^.h h /./.(.(.        . . .             .     ",
"    . .               . +   W W ;.;.>.>.,.,.'.'.N N ).).!.!.~.~.~.~.{.{.m m ].].^.^.h h /./._._.          .     @         .     ",
"    $                 + # +     :.<.[.[.}.}.|.|.1.1.2.2.3.3.4.4.8 8 5.5.6.6.7.7.8.8.9.9.0.0.a.a.  .         @ @ @       . .     ",
"  $ # $     .         % +     . <.<.[.[.}.}.|.|.1.1.2.2.3.3.4.4.8 8 5.5.6.6.7.7.8.8.9.9.0.0.a.b.. .         . @ # @ @           ",
"  $ # $   . .   . .   % .       :.<.c.c.d.d.e.e.f.f.g.g.h.h.i.i.L L j.j.k.k.l.l.m.m.c.c.n.n.o.o.  . . .       @ @ @       . .   ",
"  % $ $   . .   $ . .       . . :.:.c.c.d.d.e.e.f.f.g.g.h.h.i.i.L L j.j.k.k.l.l.m.m.c.c.n.n.p.p.    .         % @         . .   ",
"  %       . . $ # $ .     . .   q.q.c.c.r.r.e.e.s.s.t.t.u.u.v.v.w.w.x.x.y.y.z.z.A.A.n.n.n.n.B.C.D.D.              .             ",
"                $ %       .     E.E.c.c.r.r.e.e.s.s.t.t.u.u.v.v.w.w.x.x.y.y.z.z.A.A.n.n.n.n.C.C.F.F.    . .     . .   . &       ",
"                              $ G.H.n.n.A.A.n.n.r.r.d.d.I.I.J.J.r.r.e.e.d.d.K.K.A.A.n.n.L.L.M.M.M.M.N.N.  .     . .   & # &     ",
"      .                       $ H.<.n.n.A.A.n.n.r.r.d.d.I.I.J.J.r.r.e.e.d.d.K.K.A.A.n.n.L.L.M.M.M.M.N.N.        .     % &       ",
"      . & &   . . . O.P.Q.Q.Q.Q.R.R.e.e.A.A.c.c.e.e.r.r.I.I.d.d.d.d.e.e.d.d.K.K.A.A.c.c.L.L.S.S.e.e.T.T.U.U.@ @                 ",
"        & # & . .   P.P.Q.Q.Q.Q.R.R.e.e.A.A.c.c.e.e.r.r.I.I.d.d.d.d.e.e.d.d.K.K.A.A.c.c.L.L.S.S.e.e.T.T.U.U.@ # @               ",
"        & # &       V.V.e.e.e.e.W.W.n.n.A.A.c.c.e.e.A.A.I.I.d.d.d.d.n.n.d.d.J.J.L.L.c.c.A.A.r.r.S.S.X.X.Y.Y.. @ @     .         ",
". .     % & &       V.V.e.e.e.e.W.W.n.n.A.A.c.c.e.e.A.A.I.I.d.d.d.d.n.n.d.d.J.J.L.L.c.c.A.A.r.r.S.S.X.X.Y.Y.. %       . .     . ",
". .   . .           Z.Z.X.X.S.S.c.c.e.e.r.r.n.n.n.n.r.r.`.`.d.d.r.r.e.e.e.e.J.J.A.A.e.e.A.A.d.d.r.r.S.S.M.M. + +        .   . . ",
"  . . .           $ .+Z.X.X.S.S.c.c.e.e.r.r.n.n.n.n.r.r.`.`.d.d.r.r.e.e.e.e.J.J.A.A.e.e.A.A.d.d.r.r.S.S.M.M. + +    . .     .   ",
"  . .   .         $ ++@+S.S.#+#+c.c.d.d.n.n.e.e.e.e.d.d.J.J.A.A.A.A.e.e.e.e.A.A.A.A.e.e.A.A.d.d.d.d.e.e.e.e.$+$+  $ $ . .       ",
"      . .       . % @+@+S.S.#+#+c.c.d.d.n.n.e.e.e.e.d.d.J.J.A.A.A.A.e.e.e.e.A.A.A.A.e.e.A.A.d.d.d.d.e.e.e.e.%+%+$ # $           ",
"      .         &+&+M.M.n.n.c.c.d.d.e.e.M.M.n.n.e.e.d.d.K.K.r.r.#+#+e.e.n.n.A.A.d.d.M.M.n.n.r.r.e.e.e.e.X.X.*+*+$ $ %           ",
"        .       &+&+M.M.n.n.c.c.d.d.e.e.M.M.n.n.e.e.d.d.K.K.r.r.#+#+e.e.n.n.A.A.d.d.M.M.n.n.r.r.e.e.e.e.X.X.*+*+                ",
"        .   .   =+=+e.e.e.e.e.e.X.X.-+;+>+,+n.n.n.n.d.d.d.d.d.d.c.c.n.n.c.c.n.n.d.d.d.d.'+)+!+!+!+!+~+{+]+^+        . .         ",
"            . . /+=+e.e.e.e.e.e.X.X.-+(+_+>+n.n.n.n.d.d.d.d.d.d.c.c.n.n.c.c.n.n.d.d.d.d.)+:+<+!+!+[+~+}+|+]+  .                 ",
"              . 1+2+3+4+5+6+7+8+9+9+0+0+$   a+b+n.n.r.r.d.d.e.e.n.n.c+c+d+d+e.e.e.e.e.e.'+)+e+f+        $     . .     .     .   ",
"                2+2+g+4+5+5+h+h+9+9+0+0+    a+b+n.n.r.r.d.d.e.e.n.n.c+i+j+d+e.e.e.e.e.e.'+'+d d               . .   . .   . .   ",
"                . @ # @                     k+k+n.n.d.d.e.e.n.n.l+l+f+m+n+o+p+p+X.X.e.e.e.e.q+q+                          .     ",
"            . . . % @       .         . .   k+r+n.n.d.d.e.e.n.n.l+l+f+s+o+o+t+t+X.X.e.e.e.e.u+q+      . .     . .               ",
"                          . .         .     v+v+w+x+e.e.n.n.y+z+A+A+        f+f+B+B+{+{+C+D+E+F+      .     . . .           .   ",
"  . .     .       . .     .             + + f+f+w+G+e.e.n.n.y+z+A+H+.     . f+f+B+I+J+{+C+D+F+F+        + +     .           .   ",
"  . .     . .                   . .     + # +   8+8+K+L+M+,+N+^+  . .     . .                   . .     + # +         . .   .   ",
"            .                   .       % + +   8+8+K+L+,+,+^+^+            .                   .       % + +         .         ",
"                                .                                                               .                               "};
